/* XPM */
static char *_763d47a221a424cf532eec4a8d5e838P9uMQP1ZISYWNLaC[] = {
/* columns rows colors chars-per-pixel */
"80 80 91 1 ",
"  c #53462F",
". c #56482F",
"X c #59492F",
"o c #534731",
"O c #564A32",
"+ c #5B4D34",
"@ c #5B4E38",
"# c #5E5136",
"$ c #5E5239",
"% c #5F583A",
"& c #604F34",
"* c #625236",
"= c #6A5537",
"- c #645937",
"; c #64553A",
": c #69573B",
"> c #66593D",
", c #6A5A3D",
"< c #715D3D",
"1 c #7A5C3B",
"2 c #65603C",
"3 c #6D613E",
"4 c #72623E",
"5 c #7B623E",
"6 c #635740",
"7 c #665A41",
"8 c #6B5D41",
"9 c #6C5D41",
"0 c #6E5E42",
"q c #695C44",
"w c #6E5F44",
"e c #675E49",
"r c #6B5F48",
"t c #705D40",
"y c #715F40",
"u c #725E41",
"i c #705F44",
"p c #6F6041",
"a c #6C6142",
"s c #6D6143",
"d c #6F6142",
"f c #6E6249",
"g c #726041",
"h c #706343",
"j c #756241",
"k c #716346",
"l c #746245",
"z c #766344",
"x c #776345",
"c c #746444",
"v c #796642",
"b c #796742",
"n c #7A6742",
"m c #786547",
"M c #756845",
"N c #7B6A46",
"B c #7C6947",
"V c #73654A",
"C c #776748",
"Z c #75654A",
"A c #76694A",
"S c #7B6B4A",
"D c #7C6849",
"F c #7D6B49",
"G c #7E6D4A",
"H c #7C6A4D",
"J c #787047",
"K c #7C724D",
"L c #726752",
"P c #7C6B51",
"I c #84633E",
"U c #806746",
"Y c #826A45",
"T c #8C6B42",
"R c #8D6C46",
"E c #826D4B",
"W c #896E4C",
"Q c #906E44",
"! c #84704A",
"~ c #87704D",
"^ c #85734D",
"/ c #84744D",
"( c #88764E",
") c #8A784F",
"_ c #816E54",
"` c #847453",
"' c #867854",
"] c #8F7D52",
"[ c #8E7C53",
"{ c #927F53",
"} c #928055",
/* pixels */
"0,:::b:>,,*::,,,:,,,*:,:>:;:>>,,,:*;+#$:8>,,qMkgkzzFwr6:00,,g000mNF>>0,:m,,,,,:;",
",gj,,,:,0,:;,>>:::,,:::++#+;:,>#*:;7;*#:8::,kkHczmcc,$o*,k0g[/,0czZgp,,<zy,,yb,:",
":,<y,ggg,:,,>:>>;*;:**:>p>:*0:**O*;qq:*;>;;:iZ_Zzcjy,&+;:,,<Rj;cmgggcg:::y<,cb::",
":,::::zFc,8,,:;;>,#+:<,gp::*:*++++O@g0*$O*>wFwZy0jj,::::y,,,51zAm,mzyy,,,:;:,::,",
"0,:,ggc0cgkp,,;:::-:,,:*-:::--++**+>,,##:,8kcy!czjzz0,0,gz,>:kzz~Bg,,,,,<::y,;,,",
",:*:yzg:y0gp,,,:::,:***X>,,:::-++**+&1**8q0c00gz0:0zjEE,*:::,Pqkcc3,:,::,:,j:;yj",
":::**,,,:0,::,p0,:,:>;**3,3;;,,:*#+*&I<+*;0ky0kGF00kmjF==;;:,V0,7,00,:,:,0g0,:,0",
",:0y:,::,,*::,,>,,>:>;,Y,4,*>p,,;O+*++:**:0ck,:zNgymFy<<y::y8cE:0g,yjy:,,,Fz,g,,",
",jFF,,,-:,::,0:;q,,::><T5:*:;*;;OO::;*:*#*:wkg:++:zFEEmzy:=y0,,yz0,;:,:0,UFGgF0*",
"cFFg*;0,,,:+*87:Vk,>>>F,-#+,##;+++;:>:::*:*:qk,;,0FEF~j,,;:,:yykgy0,,,,,<Wmc8kg,",
"kzc,:08**::*+;qpfp>;>;Ngq$+:##+#*:,:;:,,**:>00:0y,B(0yyZi;:0,,:,,00:0,yyb<yc0cc0",
"*,*:gPH:O+*;;$;,>;%$$;;>q;##*$*##:;+::****,:0k00,y0<<gZ`0,y0,,;:,pqy0,zEY,000ccq",
":*#,:y[g++**qq>qq>;$:>>$>;,;::**::*+***:;*:::zzk:,0yyyb,:0y000,>q>qy00:::;>,0g,,",
"0,,1::4:+***+++$$;;;:p>>0pq++$;888*+*:,00#:,:,ymyk:,,yy:,,,0:::y0>>q,:*,,;,,gz*:",
":,5Q:*--:**:++;,,,;>;,;$$qq>pA>qp>#;>,,gc,qz,;yFzz:,:,0y0,,,::yy0kkp,;:gMc,:,0**",
",:*=O+:cg*+:O;>,f>;,$$##;ppqVA;qk8>:>3**0Zky::UEzy,,,,y0yy0,:0zyzzmkq::pg0,,:**&",
"*-:O +*::#+*O;p:>::;$77@8q;>pqqpq7::;2*:,g,::,=<0:;:0,,y:,y,:,,<gzmjp,:,M>*,,+,:",
":::+#M:#:,:O*+>*:,,;8;r$qq777q086;;;*::,:*::,cFj0<,:,0:,:y0>,,0,zg,,0q,,,,*,;O+:",
",**+$MM;,F,+**+#:**0'w;>p,qqff8;;;;;$::,;,:,,gN,yk00::y:;,:>,,,,g,+,,;::*:$,,:,,",
"**;O;gc8:,>*;::>;:;8AV7pMp;$7qq;;;;;;>,:8::,,*:,000,,,*,::0,,,0,0::,:*:::,>0,:0:",
"*+$$:::,,;**k>,,::;:;L78qw7;;;;:q8;76p0>q>>*:,y,,0,800,:::,,:,y,0,,,::0,:>33+:*#",
",,:,:*::,0F::,#:,*;,&;>:>8>q6$$6677p8kp>:;;*:jj,,,0yyzz,::*,,,,:0g,:*;;:,;*:;:*8",
",:0:>:8kp>z*#::$*:,:+*787q7fVfqqfqq08kp,,>;>kjg*,0,zzjy,,,;,800,:,b:::&#>:*O++:;",
":,,:;$:>$$*>>8f7;:7:*;0+;77ZAVpwpq7:qVPqM0g<*,,#,zgyc0,,,:0,00,y:;4*:,*#;**O+*:*",
"#,::$#*++$;>:7fe667>:$$+@0wk0q>7qf7>p7,pw<Tb#:::0zzzyk0,,,0,::0j:#*:::$;:*+++:,,",
",>:;q>O;>$$>q$7e%#6p8$*;:kM8,qq;77$*q8wqq8,:>:,0,,,00y,,:,0,>:,<,++*:,:>q:*>$:0>",
"KKp>p,+*p;$:,M7;6@7q:::,V08>Vq;;87$$>;qqp:,::;::*,::,00y::0kk:::+;#OO**,0c,,;*O+",
",SM,>*#$qq>*,M>+#67;$,0k8,,87q8888:$$*;>;:,,:*:**:;::,0y,,:gp,:**,*++*#:>kk,,p#+",
";p,>$:;$>q>O$ O*$@O+;8::>0,0qqw08q;;>:$;8q,,:*:*::::,:,,,,,g,>**:,,;**;M>;*;#0>#",
"*:,>>:;>*+;;#+oOOO$+*:*0ppq8>>q0p>$*+*+;qw,*#:,#::,,,::,,kp,;;:*+++*0:;>++%++&>,",
":>,q>;;::+O O;+OOO+*O;0k:;;:*>0q0*$OO#$:7q*O+>i*::,,kc,8:,0,*;>:+@$*,c8+*#++*;->",
",;+:,;>88:##$$++OO+:*k0>:*;:*8,q,,:++:qqq887;>Z::,:qpp,0,:,>;%$$*$;;:,k:>:*$::;:",
"0,;;#+*:;#>;;;+++;O*;qq;$$*;;>>;#;$*#,0fw7q;qfM,>Mq,p0,0,:8;*%++:;$**#::;;*$8>;,",
"k0:#+*:++>,;;,;#+*O;;>0;O*;$8p;++;##;g0pr677qpp88g00p>,cj>>:>8$::*$:*;;:::>#>q0,",
",p,+##* O#>,;#*##+#V88,*+0Zqqq++>>;##q>qq$;77qVk,:,::*:,gM0,;>;,::**+##*:#;;$+:,",
":>,$>;*++;,::O+#:O#fk,,::pHZ7***:p;+$q7q8;;;78pkg>>qq>g0>g;;;;;,,:;+*+#;#+>>;$#;",
";,>q>*;;;>>>;>;*,;%>,*:0q,p,*$::>p;#;qwqwwpw7qq>;;;pKA,::,p>p,;>0>$+*#*;#O::$+$>",
">qp>>$>,:#$##;;:,>>+#*+q00>,:***qq$;q78pA77qw800:*;pHK:;>,AMfV0qV0***O+#++$;%OO$",
";+::++#>>+*#+$O>;O$$$*+,A,:;:*O$;>;;7;6pV888w7,0::0M00:8p0kMqppkAp,,;$**;>;67>$#",
">#,:++#::##++#+*+O$%$++;>p:#;;#+#;>7;%;qpq00kk:7,:qAp00,0y0qqkk,,g,:;::$;;,7;;##",
":$;::++;$#;;%$;>++++%@OO;0,0Mk0+*>:;;76$;:::qq:pM:;8,q>:q;,fpcMqp3;**;>;$*8q;#+#",
">>:,,*>>>>>>+#$*###*#O#,00,gp,#@>q877q%$;:;;;;;:>;;:4zz,pppMggq>pp>%>>>;*::q,>>>",
":>,,:*::>,:;;%###$#:+O;,-:*;p,OO$8,;>8,qq8;:;++;#*;;,<<->cMApp0;,,>>>>;7,>>,>>>-",
"M3:,,--*:q>#;;;###+++#>;:*::c* +O;0:>,>>wA8$**;:;:,*:,##>gpApfp;>,p>>p>>:,,,>3,:",
"gz,:,,=::>:;>$%>%++@;;>+*#+#*OO+@;$@880:pk0*@$$$8YT,:#*;33qfqV'p>;,pp:$,;;$,:gc,",
",4,-,,,-*,:>#>>###;>JKp;+>q;,;;;O@@O;qk0kw0*;:$$>11,M,qq>3pppqMq;;q>7;::7;$:::::",
";:,-:::+,,>;;p%##*%,pMp>O#;;q0;*$$$;:;p00,;*:,:*;:00FkpMppq,kMq7>>q>qq:;;*$q,:4b",
"q>:::,:*:,q>%;%-$>>>;%,:++*%;>*;>pVAw8q:pp;$::>,::pkSMpAcZAcqqpq7>;q>::*>>*,0,,:",
">>:>-=:;%>>%#%%%%$;;.$:,:O+>$$$:>7qVVw77qp>;,:;+$;q0McMFpq,g,:>7q0-;,>0>#::>,,:-",
">#+>-**>>;%#;>#>,;;+O+=<,.*>$++$##+>p7;%$@>>>>$*:**pppgNq,p>,:,77YI=cFM>****>:,:",
";#*-***>;*>;;##M(,;%+*44-*,:;$++O++;q;78**,>;;>;;$#>3:0/,>q>>,,>7Y<#g/,:::*#,::+",
",;;;#*;>;;*;;#$;3,>%;*>+*:,,>%>8$>:;;q7q:q0*;:>$;7*:0,::;q7>>pp>qFz,*->,**++*:*:",
"0*#%$;;;>*##+#-->,#$;++;c,,,0;VZq,;*;*$%*>8>8qq>;;77,:q,,pq>fp>pV,Nz*;;,,****:>k",
"F*;%#;#*;;#+*>;>>>%q,;>HMp0ppwwqpq%>>#+#;:>;*;7,,,q8,:0>qqq>,;>f,,>*>>>:,:::*+:H",
",:*--#*:%;**,q%$;:>/M;>M,8>>>8;;>:;>q>*##**>:$;q>pq::>pp>>7;>>;>>q,,:;%*:*:*+:,c",
",:*,,>;;>;gg;>%$O++,+#$>:7>*,0*;;7>$;p;+++*bb;;:;>,**qppp>>>;>>>q>>,>>pp::***+:,",
"4y:**,;;:>gG:,q>+ +,*$;,>;qp8q8qpw8;+>%*+*::,:##;;+$*::,p0p,,33>>;>;>,,:;;::,::,",
"-:::=::**pMM,>>>**:;*;*,>;>>q;7wwZ8;77;>;###*;#$:;;##:>*>gg,,p,,>$:>--,>0,,>::::",
"**&:::,,*ppp>;>>:>::,*#,,>::q;:87k7$$7;>:;;::q,:;$;*;q,cc0,>>p2,>#-,>>,*,,*-***,",
"::,*:;:,::*O;>g:>>:,:*;:,:pA>q788p;$$;;;:;;>q0,F,;>*>::c,>,q;;p,>-3>;::#:-;;:**:",
"*::,::**:;:;qAM,,::::**;,,gMf>>8:;*:;:;77;$,,,N}g>,q;#:0:00:%%%;**,,:>:=:*:;;*::",
"::,,*::&#;:,:::>,;-+;+:pqpM,$Oqp7%:Vq%$%;>>,::,4,;:,:$+::,:##;>>:;3q,g,T1*:;+:::",
":#;:,:,;#,,:;>,:>>*++++:;:k:O:qq7%;6q>$%;cg:;;>#$;,,,*#*:::>>>>>:>qpNG:,,*#;::,,",
"$;:p,:;:g,>>>pgpp-*OO*-:>+,:;qpw;7%;qq6$%>>:$;>>;N[Fk:*;:,>,*;;>,>pSGb;*,*+:*++*",
"*,gj::,,:**:,>>*;,* &:4:>#::,0p7:++KH7O$;pq>>>>pMgj,g::y:::,,:$:>;;;,g*++*:;+O+&",
",::,,::::,::>*#+*;$O**>*#:*,00pq:$OAA7$>*%q>pq>p0M,k::**+y,*,$::;>#+++:,##$@+*;:",
",*;::,::,::g4;**::::>**##:>MHApq>Vq:7q;;##q0q,,g>;>k*:*0,,:+:*:>;+##:,,:**$***>g",
">;+-*-,<5::,,#**::,::;;>:,p>q0>8;pA,$7$#:>:>p>,;%>;>>,:>,:;;::;,:+*:,;#;>;:,,,fM",
"q:*,-+-TI*>,>O+##**:::*,:,0,>p,q7>q;;p77;:##p,,;#,p>qppwy,,y,:*>:*:,p:*:;;,,0ppp",
",,,:*&::=*>,#X*+*-:::*#**>,,:::;;>0q>766q###;>,q,j,>ppk0y,008$*,,*:,p,,*;>ggccp,",
"g,,:,,,>;#$;++::-::*:::*#4,;#::$$#q7$O6q7$::;,q>y,qq7,,,y,7qq;:,,,,;>,,:>>,gg,;>",
">p:::,>:$##>>>*::j,::;,,-M>>,;,g0,;$;fVk,,,::/K;>>pq>:::<,,kk:*;,,,+q::;>>>,>;;%",
"0,:,:>,:#;;>,>*,,,,**#:*:,:,,,,0;:+O>8F{NAk,+4:#qq>:,y,,:,,<0*:;>z0:p0::,,>;>>>,",
"cy,,,-;*#;>:,,::,;:>:*:-***:*:;#;+$:$$8c0kz,+O*<HG,00kiFyy::::87>0,>g,0g,>g:,>>p",
",,Mpp>;;gc,,>>::,**>;***::+ +>:*;>*#+;$@O+:,:*ITm}j<q>cZw:::*:,7>>:>pg0qq,G:,>q0",
">pp0p0>$qm,,,>:,>,*;#+>:*,:O+>>+o:88;6$+++F~:*5YN}(!0@cV8:::;:::,VM00g,>p>,*gj0:",
">>,,,j:*zmFc,,:,::**#*:*+:pk**>;Oq>,;;++#;~~:,N[<(!b:+,w,,,,::0:>pM0>>q>p,,::,:;",
":>,,<b:,00[/,y,,,+&:*;:**,gz;+*;$$:76$@@**;*:,0y,:-:yy,,y,:,,*::ppgq,;,>,,gk:;,>",
",,0,bj,cj,g>:g,y,:&&*:,#,3**;:,:#O;wqq$;:**:,,gN,:,,000,88*:,,q0kk0p0>>>,q>,>,,:",
"<00,>3,y,**+8,:::,-#+**+M,#;0cFFq@*8;6;$>;::q>b):,y0fV8:::,,,,0,:p0p,*;;,0,,:,>,"
};
