/* XPM */
static char *result[] = {
/* columns rows colors chars-per-pixel */
"80 80 252 2 ",
"   c #7D452D",
".  c #784839",
"X  c #6E4F3D",
"o  c #5C5C55",
"O  c #5D5D5D",
"+  c #595C5C",
"@  c #6D4E46",
"#  c #6B524C",
"$  c #685448",
"%  c #625B55",
"&  c #625C5C",
"*  c #665455",
"=  c #724E46",
"-  c #5A615C",
";  c #57625A",
":  c #62605A",
">  c #5C5D62",
",  c #585D66",
"<  c #635B62",
"1  c #605969",
"2  c #556161",
"3  c #596063",
"4  c #636064",
"5  c #991E00",
"6  c #962401",
"7  c #9C2503",
"8  c #962D03",
"9  c #9D2C03",
"0  c #9D2609",
"q  c #9C2D0A",
"w  c #962E09",
"e  c #9C3103",
"r  c #95320C",
"t  c #9A310B",
"y  c #953105",
"u  c #9B2D12",
"i  c #8D3915",
"p  c #8C3B1D",
"a  c #8B3818",
"s  c #943413",
"d  c #9B3112",
"f  c #93351A",
"g  c #95371A",
"h  c #8E380E",
"j  c #A22603",
"k  c #A22B03",
"l  c #A22C09",
"z  c #A72906",
"x  c #A23204",
"c  c #A53A04",
"v  c #A4330A",
"b  c #A73A0A",
"n  c #A63816",
"m  c #A32C11",
"M  c #8B3B23",
"N  c #853F23",
"B  c #A42E13",
"V  c #AC460B",
"C  c #B44B0B",
"Z  c #B7540A",
"A  c #AA4618",
"S  c #B44E11",
"D  c #B75718",
"F  c #AE5414",
"G  c #BC6417",
"H  c #B9600B",
"J  c #82422A",
"K  c #834225",
"L  c #814435",
"P  c #AB4825",
"I  c #B34B29",
"U  c #B35425",
"Y  c #AD5A37",
"T  c #B55834",
"R  c #AC512E",
"E  c #BB632A",
"W  c #B8643A",
"Q  c #BE722E",
"!  c #CB730D",
"~  c #C56C13",
"^  c #C46818",
"/  c #C97716",
"(  c #C2640D",
")  c #C46C28",
"_  c #C57524",
"`  c #C87838",
"'  c #CA742F",
"]  c #C05D08",
"[  c #B45E44",
"{  c #BA6444",
"}  c #BD6F4D",
"|  c #C47451",
" . c #D78918",
".. c #D98E12",
"X. c #FD9602",
"o. c #F69C03",
"O. c #FD9C03",
"+. c #FD9C0B",
"@. c #F99B09",
"#. c #E39619",
"$. c #FE9E13",
"%. c #FB9F19",
"&. c #E08D14",
"*. c #FCA204",
"=. c #FCA30B",
"-. c #FCAB0C",
";. c #F8A407",
":. c #EBAA19",
">. c #FCA414",
",. c #FCAB12",
"<. c #FCA41B",
"1. c #FCAC1B",
"2. c #F5A713",
"3. c #EDB519",
"4. c #FBB315",
"5. c #FCB41B",
"6. c #FBBB1C",
"7. c #F6B917",
"8. c #F7AC0E",
"9. c #D48626",
"0. c #DB982A",
"q. c #CE833A",
"w. c #D58D39",
"e. c #D49234",
"r. c #CF8728",
"t. c #E29C35",
"y. c #E5A928",
"u. c #FCAC24",
"i. c #FCAD2B",
"p. c #FCA622",
"a. c #EDB72A",
"s. c #FBB224",
"d. c #FDBD25",
"f. c #FCB32B",
"g. c #FDBB2C",
"h. c #F4B927",
"j. c #E6A937",
"k. c #FBAD35",
"l. c #FDBB34",
"z. c #FCB53C",
"x. c #F9B737",
"c. c #EBB637",
"v. c #DFA21D",
"b. c #FCC216",
"n. c #F7C41C",
"m. c #FCC41B",
"M. c #FDCB1C",
"N. c #FBC918",
"B. c #FFD01E",
"V. c #FCC424",
"C. c #FDCB23",
"Z. c #FDCB2B",
"A. c #F7C42A",
"S. c #FED22C",
"D. c #FBC634",
"F. c #FCCD33",
"G. c #FCC33C",
"H. c #FCCC3B",
"J. c #F5C836",
"K. c #FCD334",
"L. c #FCD23C",
"P. c #F8D83F",
"I. c #BF8C63",
"U. c #D18943",
"Y. c #D99A47",
"T. c #CD8859",
"R. c #D28F54",
"E. c #DFA952",
"W. c #E5AD46",
"Q. c #FCBB44",
"!. c #FBB848",
"~. c #E1AA58",
"^. c #FDBB56",
"/. c #ECBA4D",
"(. c #D59666",
"). c #CC906E",
"_. c #DDAA6A",
"`. c #D7A47A",
"'. c #DEB46E",
"]. c #E9B46C",
"[. c #EFC348",
"{. c #FBCC43",
"}. c #F8C74A",
"|. c #FCD444",
" X c #FCD34C",
".X c #FCD94B",
"XX c #FBC45C",
"oX c #FCCC5C",
"OX c #F8C656",
"+X c #FCD657",
"@X c #ECC05A",
"#X c #F9C869",
"$X c #FDD563",
"%X c #FEDB64",
"&X c #FDDB6C",
"*X c #FCD769",
"=X c #ECC777",
"-X c #FBDB79",
";X c #FAD876",
":X c #F5C871",
">X c #FFE26D",
",X c #FFE465",
"<X c #FEE277",
"1X c #D7A788",
"2X c #DAB194",
"3X c #E2BD98",
"4X c #E2B284",
"5X c #DDBBA5",
"6X c #E1B6A2",
"7X c #D39D87",
"8X c #EBC485",
"9X c #FDD284",
"0X c #FAD989",
"qX c #E6C497",
"wX c #FCDB94",
"eX c #F9D997",
"rX c #F5D086",
"tX c #FDE483",
"yX c #FDE68B",
"uX c #FCEB93",
"iX c #FBE699",
"pX c #FDF097",
"aX c #E8C9A7",
"sX c #FCDCA4",
"dX c #E6C9B9",
"fX c #F2DCB5",
"gX c #ECD6AC",
"hX c #FCECAC",
"jX c #FAE7A8",
"kX c #FDEEB3",
"lX c #FBE8B8",
"zX c #FBF3BC",
"xX c #F9F6B6",
"cX c #FEF1A9",
"vX c #EAD4C8",
"bX c #F0DFCA",
"nX c #FBEBC8",
"mX c #FCF2C3",
"MX c #F9F5CB",
"NX c #F5ECD8",
"BX c #FDF3D3",
"VX c #FEFAD5",
"CX c #FCF4DC",
"ZX c #FDFCDD",
"AX c #F7F5DD",
"SX c #EFE8C9",
"DX c #FAF7E9",
"FX c #FDFDF4",
"GX c #FDFEFD",
"HX c #F7F5F2",
"JX c #F6EFE4",
"KX c None",
/* pixels */
"KXKXKXKXKXKXKXKXKXKXKXKXKXKXKXKXKXKXKXKXKXKXKXKXKXKXKXKXKXKXKXKXKXKXKXKXKXKXKXKXKXKXKXKXKXKXKXKXKXKXKXKXKXKXKXKXKXKXKXKXKXKXKXKXKXKXKXKXKXKXKXKXKXKXKXKXKXKXKXKX",
"KXKXKXKXKXKXKXKXKXKXKXKXKXKXKXKXKXKXKXKXKXKXKXKXKXKXKXKXKXKXKXKXKXKXKXKXKXKXKXKXKXKXKXKXKXKXKXKXKXKXKXKXKXKXKXKXKXKXKXKXKXKXKXKXKXKXKXKXKXKXKXKXKXKXKXKXKXKXKXKX",
"KXKXKXKXKXKXKXKXKXKXKXKXKXKXKXKXKXKXKXKXKXKXKXKXKXKXKXKXKXKXKXKXKXKXKXKXKXKXKXKXKXKXKXKXKXKXKXKXKXKXKXKXKXKXKXKXKXKXKXKXKXKXKXKXKXKXKXKXKXKXKXKXKXKXKXKXKXKXKXKX",
"KXKXKXKXKXKXKXKXKXKXKXKXKXKXKXKXKXKXKXKXKXKXKXKXKXKXKXKXKXKXKXKXKXKXKXKXKXKXKXKXKXKXKXKXKXKXKXKXKXKXKXKXKXKXKXKXKXKXKXKXKXKXKXKXKXKXKXKXKXKXKXKXKXKXKXKXKXKXKXKX",
"KXKXKXKXKXKXKXKXKXKXKXKXKXKXKXKXKXKXKXKXKXKXKXKXKXKXKXKXKXKXKXKXKXl q t s r r q q t u q u KXKXKXKXKXKXKXKXKXKXKXKXKXKXKXKXKXKXKXKXKXKXKXKXKXKXKXKXKXKXKXKXKXKXKX",
"KXKXKXKXKXKXKXKXKXKXKXKXKXKXKXKXKXKXKXKXKXKXKXKXKXKXKXKXKXf s w k k j k k 9 9 l k k k k l 9 9 y s s KXKXKXKXKXKXKXKXKXKXKXKXKXKXKXKXKXKXKXKXKXKXKXKXKXKXKXKXKXKX",
"KXKXKXKXKXKXKXKXKXKXKXKXKXKXKXKXKXKXKXKXKXKXKXKXKXKXi 9 k k k k k 9 9 e 8 e 8 e e e e e 9 9 9 k k k k w g KXKXKXKXKXKXKXKXKXKXKXKXKXKXKXKXKXKXKXKXKXKXKXKXKXKXKX",
"KXKXKXKXKXKXKXKXKXKXKXKXKXKXKXKXKXKXKXKXKXKXKXM v z l l 9 q k k k e e e 9 k 9 k 9 9 k x k k k k k k 9 z j 9 y KXKXKXKXKXKXKXKXKXKXKXKXKXKXKXKXKXKXKXKXKXKXKXKXKX",
"KXKXKXKXKXKXKXKXKXKXKXKXKXKXKXKXKXKXKXKXKXK l z l q 9 9 7 9 k j e k k 7 7 j 0 7 5 5 j 7 9 9 9 q k 9 9 l l e t 6 t KXKXKXKXKXKXKXKXKXKXKXKXKXKXKXKXKXKXKXKXKXKXKX",
"KXKXKXKXKXKXKXKXKXKXKXKXKXKXKXKXKXKXKXKXl k 9 9 9 9 9 9 k z j 5 7 z n A Y Y Y { { [ R A l 5 5 0 q 7 9 e e 9 9 9 9 9 t KXKXKXKXKXKXKXKXKXKXKXKXKXKXKXKXKXKXKXKXKX",
"KXKXKXKXKXKXKXKXKXKXKXKXKXKXKXKXKXKXd k k k k k 9 j 0 6 6 z P { ).2X5XdXvXvXvXvXvXvXvX5X6X7X| { n q 5 j k x 0 q l k k 6 KXKXKXKXKXKXKXKXKXKXKXKXKXKXKXKXKXKXKXKX",
"KXKXKXKXKXKXKXKXKXKXKXKXKXKXKXKXKXm l 9 k k 8 x j 0 0 P } `.6XvXJXHXGXGXGXGXGXFXFXGXGXGXGXHXJXdX2X).{ n 7 0 m m 7 z l 9 l u KXKXKXKXKXKXKXKXKXKXKXKXKXKXKXKXKXKX",
"KXKXKXKXKXKXKXKXKXKXKXKXKXKXKXKXt z l 9 9 9 9 7 m R | 6XbXDXGXGXJXSXlXsXeXeX9X9X0XwXsXjXnXNXJXFXGXJXdX1X} P 0 z 8 k v l k k y KXKXKXKXKXKXKXKXKXKXKXKXKXKXKXKXKX",
"KXKXKXKXKXKXKXKXKXKXKXKXKXKXKXt 9 k 9 k l j j P | 5XJXGXFXCXnXsX8X^.z.u.>.$.O.+.+.<.1.i.!.^.9XsXnXJXGXGXbX7X[ n k 8 9 9 9 8 9 u KXKXKXKXKXKXKXKXKXKXKXKXKXKXKXKX",
"KXKXKXKXKXKXKXKXKXKXKXKXKXKX9 k e k e 8 0 v T 2XNXGXHXnXeX:Xk.$.X.O.X.O.O.X.O.O.O.O.O.O.X.X.+.<.!.rXlXJXFXFXbX).I u 7 l 9 e k q q KXKXKXKXKXKXKXKXKXKXKXKXKXKXKX",
"KXKXKXKXKXKXKXKXKXKXKXKXKXq z 9 z k 9 q n I.bXDXFXnX0X!.<.O.O.*.X.O.O.+.+.O.O.O.O.O.O.O.+.O.o.O.X.O.>.XXsXCXFXDXaX} B q l 9 9 9 k B KXKXKXKXKXKXKXKXKXKXKXKXKXKX",
"KXKXKXKXKXKXKXKXKXKXKXKXl 9 t z 9 9 7 R 1XNXDXAXeXQ.$.+.+.X.o.O.+.+.O.O.O.O.O.O.O.O.O.X.O.O.O.+.X.@.@.X.<.#XjXCXCXSX).P 7 l q w k k q KXKXKXKXKXKXKXKXKXKXKXKXKX",
"KXKXKXKXKXKXKXKXKXKXKXl l w e k 9 7 { 3XNXZXzX#Xp.@.O.O.O.O.O.O.@.X.O.@.;.>.<.p.<.>.O.O.X.O.@.O.O.+.+.O.@.$.k.9XBXZXSX`.P 5 k z q l k d KXKXKXKXKXKXKXKXKXKXKXKX",
"KXKXKXKXKXKXKXKXKXKXq k k 8 9 k 7 { aXAXAXeXQ.%.$.+.o.o.O.O.X.X.>.z.^.#X9XwXwXwXwX0X9X#X^.k.%.X.X.O.O.O.O.O.X.p.^.nXZXNX1XA 7 x w 9 9 9 u KXKXKXKXKXKXKXKXKXKXKX",
"KXKXKXKXKXKXKXKXKXKXz z k e 9 j [ aXNXBX0Xf.O.X.+.=.O.O.O.$.k.#X9XjXzXBXVXVXZXZXZXZXCXBXkXsX;X^.i.@.O.O.O.o.@.o.2./.sXZXBX1XP 9 l l 9 9 9 KXKXKXKXKXKXKXKXKXKXKX",
"KXKXKXKXKXKXKXKXKXz k 9 9 q B I 3XMXMX9Xk.O.o.@.o.O.X.<.k.#XjXBXZXVXSXfXaXqX3X3XqX3XaXfXBXZXCXmXwXXXi.+.O.o.*.;.O.o.z.wXVXMX`.n 9 z l 9 k 9 KXKXKXKXKXKXKXKXKXKX",
"KXKXKXKXKXKXKXKXk k e w 7 j P 1XmXMXrXi.X.O.o.+.O.O.<.^.iXMXVXnXaX4X(.| [ T P U R T ` | ).3XfXNXVXzX0X!.>.O.@.O.O.+.o.z.eXCXlX).v k k 9 9 l u KXKXKXKXKXKXKXKXKX",
"KXKXKXKXKXKXKXKXk 8 k k z n T.MXmXwXk.X.O.@.O.o.$.i.;XmXBXkXqX(.T n 7 6 6 7 0 7 5 7 7 5 9 A | `.gXmXVXhX#Xp.O.+.O.O.O.@.Q.jXMXlX} 8 8 9 9 k z KXKXKXKXKXKXKXKXKX",
"KXKXKXKXKXKXKX9 k k k k k W fXxXjXz.+.+.*.*.X.+.x.iXmXmXgX(.I 7 j k w 9 x e y e q l 9 l j j 5 l U `.fXmXmX9Xu.+.O.O.=.+.+.!.hXSXqXP 8 9 k k k 8 KXKXKXKXKXKXKXKX",
"KXKXKXKXKXKXi 9 k 9 k 0 R '.MXhX^.$.O.O.O.+.>.^.jXxXlX4XY w 9 x k 9 x 8 9 k l 9 z x l q 9 k x 9 w B Q qXzXzXwXk.o.;.=.O.X.<.#XmXzX(.n 9 k k y k KXKXKXKXKXKXKXKX",
"KXKXKXKXKXKX9 9 9 k 7 v T.kXxX*X$.X.@.O.O.=.Q.sXzXjX).P q k q 9 k 9 8 l k j k 7 k k k j k e e k k 9 r T '.lXkXwXi.*.O.+.O.O.p.0XkXsX{ q j q e z w KXKXKXKXKXKXKX",
"KXKXKXKXKXf 9 e 9 l 7 T 8XxXwXk.O.*.@.O.@.k.iXjXlXR.A 6 k 9 k z j k j 9 t s s a i y 9 k k 9 9 8 l e k l T _.kXkX;X>.O.@.;.O.$.Q.jXxX_.A 9 8 9 z 9 KXKXKXKXKXKXKX",
"KXKXKXKXKXw k 9 k 9 l (.jXjXXX+.O.o.O.O.p.;XxXjXT.n 7 8 k 9 9 k k t p   X @ $ # # = .   a e k 7 l k 9 l 7 P _.lXlX#X$.O.@.O.O.>.;XlXeX` 9 7 9 k 9 t KXKXKXKXKXKX",
"KXKXKXKXKXq k k 9 7 T 4XxXtXp.@.O.O.O.=.XXhXkX_.n l l 9 9 k z s N . # % O 3 3 3 > , > o = L p 9 k k w k 9 9 U 4XxXiXz.+.O.O.O.=.z.iXhX(.n 6 e k k 9 KXKXKXKXKXKX",
"KXKXKXKXf k 9 k q 7 T.eXpXoX@.+.O.O.o.z.yXhX].U 0 q z 9 8 l B . o , < > - > 3 O % o ; 2 4 < # K w l k k e 9 z ` rXhX;Xu.X.O.O.o.%.*XhXqX) j 8 9 8 w KXKXKXKXKXKX",
"KXKXKXKXr k q k l b '.cX-Xf.X.O.$.O.>.*XhXeX` 7 9 l q 9 9 g . O + ; & & + > O O O O + - O O > % L q k x 9 j 9 y (.iXiX}.@.O.O.O.X.}.iXjXT.l 9 k y 9 s KXKXKXKXKX",
"KXKXKXKXe 9 q e 7 W 8XiXoX=.O.O.+.X.z.0XiX_.v 9 l z 8 q f X o & & o & < > > < & < < < 4 & o O 3 2 J k k l e e 8 U 8XjX;Xi.X.+.*.O.u.;XhX_.A 7 k l z r KXKXKXKXKX",
"KXKXKXt k 7 9 e 0 U.eXyXQ.O.O.O.+.+.oXuX=X| 7 l l 9 k t . & % % > > < < O & O O O + + > > O o 4 + o M t 9 9 9 k 9 (.eXuXQ.O.+.;.+.>.oXpX=XW 6 l j z e KXKXKXKXKX",
"KXKXKXt k k l e q (.uX-Xf.X.O.*.O.u.;XpX_.A 7 k w k w J % 3 3 O + > & o ; ; ; O - + O O O > & o ; , # p 9 q k k 0 U =XuXoX>.X.=.X.O.!.yXrXU.7 9 k k 9 r KXKXKXKX",
"KXKXKXt k k 9 l A ].uX$X<.O.O.*.O.z.tX0XU.w 9 k e k p # > % O O > O - > O - + > & & O O + > < ; : - > . s k z k 9 t ~.uX;Xa.X.O.O.X.k.-XyXR.e w e 9 k s KXKXKXKX",
"KXKXKXw l e 9 j D :XuXOX+.@.O.O.@.OXuX=XE 6 k k k l J * 3 o O > < O O > & > O O & & O O O & O > O + , # a k 9 k k 9 U.0XtXz.O.O.O.O.1.$XiX~.b q e k z s KXKXKXKX",
"KXKXKXt k e 9 j E ;XtXx.O.O.O.O.>.$XyX_.F 5 k w k r = & > O O < & O O O & O - O & > O - & O + < + O & % J k 9 8 k 5 Q :XyX}.O.O.*.O.=.OXyX].A q 9 k k s KXKXKXKX",
"KXKXM v k 9 l 9 ` rX<Xl.O.O.O.O.1.*XyXY.b 7 k 9 k s * + O O O O O O O O O O O O > O O O O & - > + ; & < = t k 8 v 6 U '.yXOX=.O.O.O.;.}.yX=XD 6 k 9 k s KXKXKXKX",
"KXKXg l k 9 9 9 | -X-Xh.O.O.O.O.u.&XtXU.c 7 z 8 l N % - O O O O O O O O O O O O O O O O O O O O > ; & > = s 9 x l 7 A ~.yXoX=.X.O.O.o.}.tX:XE 6 e k k r KXKXKXKX",
"KXKXt 9 k 9 k 9 w.;X&Xf.O.O.O.X.s.&X-X` k 9 k 8 l   o 3 & O O O O O O O O O & > O O O O O O O & < ; + 3 # p 9 k k j b E.<XoX=.X.O.*.O.x.<X:X) 6 k e k t KXKXKXKX",
"KXKXe k 9 k k k Y.;X*Xs.O.O.O.O.s.&X-X` k 9 k 9 l   & > O O O O O O O O & O O O O O O > O 3 O & & ; 2 3 * N k k j k n Y.<XoX>.o.O.O.O.l.>X:X) 6 k x 9 t KXKXKXKX",
"KXKXt 9 9 k k l q.>X%Xh.O.O.X.+.s.;X&X` 9 9 9 k k   % , O O O & - & O > > O O O O O O & O O O O % 3 > , * p k k k 7 b Y.>X+X,.O.O.O.O.l.>X#X) 6 k 9 k t KXKXKXKX",
"KXKXr w k 9 k k w.*X%Xu.O.O.O.+.s.$X&Xq.x 9 e k 8 K % 3 O O O O O O O O O O O O O O O O O O O O o < & 3 $ s k k k 7 V E.>X}.,.O.O.O.O.l.>X@XE 9 k 9 k t KXKXKXKX",
"KXKXs q k 9 k 7 ` oX%Xf.O.O.O.O.1.+X%Xw.b 7 k k e i * 3 O O O O O O O & O O > O O O O O O O & O O < < 3 @ t z 9 9 7 A W.>X{.=.O.O.O.O.l.>X@XD 8 x 9 k r KXKXKXKX",
"KXKXa q k e 9 j ' oX*Xh.O.O.O.O.>. X,XY.n 7 l l 9 t $ 3 O O O O O O O O O O O O O O O O O O > ; & * > > . 9 9 9 q 7 D /.>XG.o.O.*.O.O.D.&X/.S 7 k k k r KXKXKXKX",
"KXKXKXd k 9 k 7 D OX%Xx.O.O.O.O.*.H.,X~.D 6 k l k 9 . > O O O > - O O O O > & O O O & O O O O ; & O - O   9 9 9 l 0 ) XX&Xl.o.O.O.O.=.G.&XW.V 7 x 9 k s KXKXKXKX",
"KXKXKXd j 9 e k C /.>Xz.>.O.o.*.O.g.+X@X) 6 9 z k k M * + o O > O 3 O O , , & O O O & & & ; O > > O ; X f j k l 9 w w.+X+Xs.O.O.O.O.,. X%Xt.x k e e z s KXKXKXKX",
"KXKXKXw k 9 9 9 c W.+X{.>.O.*.O.O.u. X+Xe.e 9 9 7 k t . % O & > 3 % % O O O O O - > > > > + < ; + < O   7 j k 9 7 V W.+X}.>.X.*.O.O.s. XoXw.k j 8 9 l s KXKXKXKX",
"KXKXKXw k 9 8 9 9 e.+X Xu.O.*.O.O.>.}.+Xc.F 6 x m k k p # , > & > < % O O o O > > O O > > O o O + , = h z l w k 6 ) [.%Xl.O.O.*.O.X.g.+X[._ 6 k k k 9 KXKXKXKXKX",
"KXKXKXw 9 k 8 k 9 G [..Xh.*.O.O.O.O.l. X X' 6 9 k x k 9   o , < O + > > O O O % & O > O o & * o 2 # g k q q 9 9 v t..X|.5.O.O.o.O.+.G.+XW.F 7 k e k t KXKXKXKXKX",
"KXKXKXKXt 9 e z l S j.+XJ.>.X.X.O.O.u.G.+XW.S 7 9 e 7 9 e K * - & O O & O > O & O ; O O O > , , $ a q j k l k 0 _ /..Xg.>.O.O.O.O.1.|.+Xe.c 7 k 9 k g KXKXKXKXKX",
"KXKXKXKXr k 8 k k e 0. X|.1.X.O.O.O.+.d.|.}.e.e 8 l 9 9 9 9 N $ ; 3 & o O O > & + O O & O 3 O @ i 9 9 w 9 j j V j. XH.s.+.O.O.+.+.g..X}._ 9 9 k 9 k f KXKXKXKXKX",
"KXKXKXKXs 8 k j 9 6 ^ /. Xg.$.O.O.O.O.,.J..XQ.) y j l 9 9 k l a X * < O + 3 - - < > 3 + % # . f k k 9 9 k 7 x 9.{.|.g.>.O.O.O.+.,.D..Xj.S 7 k 9 x w KXKXKXKXKXKX",
"KXKXKXKXKXq k k 9 8 V 0.|.H.1.O.*.O.O.O.5.H.|.j.F k j l 9 9 k k s N . * o o - ; & & o $   M m j l k k k 9 x ~ [.|.D.1.O.O.O.o.@.s.|.{._ b 7 9 e k t KXKXKXKXKXKX",
"KXKXKXKXKXd z w 9 9 6 / J.|.h.O.O.o.O.O.=.h.H.|.y.A l q k 9 9 8 9 k t p K   . . =   M s 9 k k q 9 q k 9 e G a.|.H.5.@.o.O.O.O.=.D.|.y.D j l 9 k 7 s KXKXKXKXKXKX",
"KXKXKXKXKXKXz 8 k x 6 A 0.|.D.5.O.O.O.O.o.=.g.{.L.y.C 0 e e 9 9 v k k k k k k k j k k k l 9 l k x l q k ^ c.|.J.h.*.O.O.*.O.*.6.L.L._ v j 9 k z 7 KXKXKXKXKXKXKX",
"KXKXKXKXKXKXu k 9 x z j G h.K.A.*.O.+.+.O.O.=.l.|.L.j.G 9 9 9 9 k k 9 k l k 9 9 9 q w 9 e x k x k 5 b / x.|.{.d.=.O.O.X.O.*.>.F.|.j.F 9 z x e k f KXKXKXKXKXKXKX",
"KXKXKXKXKXKXKXj 9 k z 7 b 9.K.K.5.=.O.+.+.X.X.-.d.J.S.x.9.V 7 0 l k k 8 9 l q 9 9 x x 9 9 k 7 0 9 D 0.J.L.F.4.O.@.X.O.O.O.=.h.H.J.^ x 7 l x 8 k KXKXKXKXKXKXKXKX",
"KXKXKXKXKXKXKXt k 9 9 k w F j.H.D.5.;.o.O.O.O.O.;.6.D.L.D.y./ V l 9 6 7 9 9 k k k 9 9 7 6 j x F r.y.F.K.A.7.O.O.O.O.+.O.;.6.K.F. .b 9 l 9 8 k s KXKXKXKXKXKXKXKX",
"KXKXKXKXKXKXKXKXz 9 9 k 9 e D x.F.A.,.;.O.*.O.O.O.=.5.V.Z.K.a.y.9.Z V c 9 9 j 7 7 9 9 V C ^  .y.J.Z.Z.d.:.@.O.o.O.O.O.=.7.A.J.y.V 0 q k w 9 z KXKXKXKXKXKXKXKXKX",
"KXKXKXKXKXKXKXKXd 9 7 l t 8 v _ A.Z.V.,.*.O.o.O.O.O.=.-.6.g.F.K.A.a.#.9./ ~ ~ ( ^ ^ /  .y.h.F.K.V.d.4.=.;.O.O.O.O.O.;.4.Z.F.y.G 6 w l k k l d KXKXKXKXKXKXKXKXKX",
"KXKXKXKXKXKXKXKXKXl j 9 k x 9 x  .n.Z.d.-.@.@.@.O.O.O.O.*.,.6.d.Z.S.K.F.Z.A.A.h.A.F.F.S.F.S.Z.d.4.<.2.@.O.O.*.O.X.=.4.d.F.a.! 9 9 9 k k 9 d KXKXKXKXKXKXKXKXKXKX",
"KXKXKXKXKXKXKXKXKXs v 9 9 k k 9 c  .h.Z.d.4.*.=.O.+.O.O.O.O.O.-.4.7.6.m.V.Z.F.Z.Z.V.V.V.6.5.>.8.@.O.O.O.O.X.O.O.;.5.V.Z.a./ 9 9 e 9 9 k d KXKXKXKXKXKXKXKXKXKXKX",
"KXKXKXKXKXKXKXKXKXKXj 9 9 k k t 7 c 9.A.Z.V.4.*.O.O.*.O.O.=.O.O.O.O.=.-.,.-.4.4.4.,.-.=.=.O.O.O.*.*.O.X.*.*.O.*.6.D.Z.h.~ 9 9 e 9 k l k t KXKXKXKXKXKXKXKXKXKXKX",
"KXKXKXKXKXKXKXKXKXKXKXd x e 9 z l j c / h.C.M.m.-.O.O.O.@.O.O.O.O.O.O.O.*.O.O.O.O.O.O.O.O.O.O.O.O.@.+.+.O.o.4.n.C.M.:.G q 9 c 7 l j z u KXKXKXKXKXKXKXKXKXKXKXKX",
"KXKXKXKXKXKXKXKXKXKXKXKXu z k q 9 8 k c G y.S.C.n.4.=.O.O.O.O.O.*.*.O.O.O.O.O.O.O.O.O.O.O.O.O.O.O.O.O.*.-.d.V.M.D.#.S 9 k z 9 9 9 l s KXKXKXKXKXKXKXKXKXKXKXKXKX",
"KXKXKXKXKXKXKXKXKXKXKXKXKXu j 9 9 9 9 9 e C 9.h.C.B.b.4.-.*.*.o.O.O.O.O.O.O.O.O.O.O.O.*.O.O.O.O.O.*.-.7.V.C.M.3.! V e 9 k k 9 q j f KXKXKXKXKXKXKXKXKXKXKXKXKXKX",
"KXKXKXKXKXKXKXKXKXKXKXKXKXKXt 9 z 9 9 9 7 k b ~ #.V.M.M.b.6.4.*.=.+.O.*.O.O.O.X.O.O.O.O.@.*.=.-.-.7.N.B.C.h...Z c 7 9 k 9 8 9 l s KXKXKXKXKXKXKXKXKXKXKXKXKXKXKX",
"KXKXKXKXKXKXKXKXKXKXKXKXKXKXKXu j 9 9 l z 9 9 9 C ! v.3.M.C.M.6.4.4.-.-.-.*.*.=.=.*.;.-.4.4.6.b.M.B.n.:.#.( b l l 9 k k 9 9 k d KXKXKXKXKXKXKXKXKXKXKXKXKXKXKXKX",
"KXKXKXKXKXKXKXKXKXKXKXKXKXKXKXKX9 l k 9 q k k k 6 e V ! ..3.7.M.M.N.N.N.N.N.b.b.b.b.b.N.N.N.N.b.n.:...( b l 7 9 k 9 k k v 9 w KXKXKXKXKXKXKXKXKXKXKXKXKXKXKXKXKX",
"KXKXKXKXKXKXKXKXKXKXKXKXKXKXKXKXKXt w l w 9 k j k 9 7 9 c Z ! #.2.3.7.n.M.V.N.n.N.N.N.7.7.8.2...~ V e 7 j k v 8 k 9 9 q t i KXKXKXKXKXKXKXKXKXKXKXKXKXKXKXKXKXKX",
"KXKXKXKXKXKXKXKXKXKXKXKXKXKXKXKXKXKXKXu z z 9 9 x x k 9 9 7 7 x V Z ( !  ...&.........! H Z c 9 7 8 9 k 9 9 8 8 9 k k s KXKXKXKXKXKXKXKXKXKXKXKXKXKXKXKXKXKXKXKX",
"KXKXKXKXKXKXKXKXKXKXKXKXKXKXKXKXKXKXKXKXM t z 9 w e k k k e 9 9 9 9 9 9 k k x x k 9 9 k 7 9 6 9 9 k z x l 9 l l j d KXKXKXKXKXKXKXKXKXKXKXKXKXKXKXKXKXKXKXKXKXKX",
"KXKXKXKXKXKXKXKXKXKXKXKXKXKXKXKXKXKXKXKXKXKXM l j 9 w v e k 9 k e k 9 j 9 9 9 9 9 9 j 9 9 9 9 k 9 9 k j j l q w p KXKXKXKXKXKXKXKXKXKXKXKXKXKXKXKXKXKXKXKXKXKXKX",
"KXKXKXKXKXKXKXKXKXKXKXKXKXKXKXKXKXKXKXKXKXKXKXKXf s 9 k z j k k k k e k k k 9 k k k k k 9 8 x 8 e 8 k k t i p KXKXKXKXKXKXKXKXKXKXKXKXKXKXKXKXKXKXKXKXKXKXKXKXKX",
"KXKXKXKXKXKXKXKXKXKXKXKXKXKXKXKXKXKXKXKXKXKXKXKXKXKXKXs r t 9 j k k k k 9 k 9 9 9 9 7 9 k k k k w t d h KXKXKXKXKXKXKXKXKXKXKXKXKXKXKXKXKXKXKXKXKXKXKXKXKXKXKXKX",
"KXKXKXKXKXKXKXKXKXKXKXKXKXKXKXKXKXKXKXKXKXKXKXKXKXKXKXKXi h s s d d t w 9 9 9 w 9 9 9 8 t d u s d s KXKXKXKXKXKXKXKXKXKXKXKXKXKXKXKXKXKXKXKXKXKXKXKXKXKXKXKXKXKX",
"KXKXKXKXKXKXKXKXKXKXKXKXKXKXKXKXKXKXKXKXKXKXKXKXKXKXKXKXKXKXKXKXKXp s t w t 9 t w 9 e r a M KXKXKXKXKXKXKXKXKXKXKXKXKXKXKXKXKXKXKXKXKXKXKXKXKXKXKXKXKXKXKXKXKXKX",
"KXKXKXKXKXKXKXKXKXKXKXKXKXKXKXKXKXKXKXKXKXKXKXKXKXKXKXKXKXKXKXKXKXKXKXKXKXKXKXKXKXKXKXKXKXKXKXKXKXKXKXKXKXKXKXKXKXKXKXKXKXKXKXKXKXKXKXKXKXKXKXKXKXKXKXKXKXKXKXKX",
"KXKXKXKXKXKXKXKXKXKXKXKXKXKXKXKXKXKXKXKXKXKXKXKXKXKXKXKXKXKXKXKXKXKXKXKXKXKXKXKXKXKXKXKXKXKXKXKXKXKXKXKXKXKXKXKXKXKXKXKXKXKXKXKXKXKXKXKXKXKXKXKXKXKXKXKXKXKXKXKX"
};
