/* XPM */
static char *result[] = {
/* columns rows colors chars-per-pixel */
"80 80 214 2 ",
"   c #E25F01",
".  c #DF630D",
"X  c #DF6107",
"o  c #DE6412",
"O  c #DC6A1C",
"+  c #E56101",
"@  c #EB6301",
"#  c #E76902",
"$  c #EA6D03",
"%  c #E1630A",
"&  c #EA6C0F",
"*  c #F26601",
"=  c #F66902",
"-  c #FA6C01",
";  c #F46B0B",
":  c #E97304",
">  c #EC7B05",
",  c #F37405",
"<  c #FE7201",
"1  c #F27D04",
"2  c #FE7B01",
"3  c #F4740D",
"4  c #F57C0C",
"5  c #F97A0A",
"6  c #F8770C",
"7  c #E46914",
"8  c #EB6A13",
"9  c #E36A1A",
"0  c #EF7215",
"q  c #EB7517",
"w  c #F37211",
"e  c #F47C13",
"r  c #DA6E26",
"t  c #DB722C",
"y  c #D6722F",
"u  c #D77739",
"i  c #DA793C",
"p  c #E06F23",
"a  c #E87629",
"s  c #E67528",
"d  c #E47A34",
"f  c #D57C44",
"g  c #E17F43",
"h  c #EE8305",
"j  c #FD8403",
"k  c #F48E02",
"l  c #FC8B02",
"z  c #F4860B",
"x  c #F9840D",
"c  c #FB8A0B",
"v  c #F58808",
"b  c #F49402",
"n  c #F39B03",
"m  c #F99D02",
"M  c #F6930D",
"N  c #F9940B",
"B  c #F59B0A",
"V  c #F89706",
"C  c #EE8210",
"Z  c #F38413",
"A  c #F78A14",
"S  c #F49315",
"D  c #F49C16",
"F  c #F49D1B",
"G  c #F79617",
"H  c #F4A403",
"J  c #FBA502",
"K  c #F5AB04",
"L  c #FEAB01",
"P  c #F5A30B",
"I  c #F9AC0C",
"U  c #F6B304",
"Y  c #FEB402",
"T  c #F5BB05",
"R  c #FEBB01",
"E  c #FBB20B",
"W  c #FDBC0A",
"Q  c #F5A316",
"!  c #F5A41B",
"~  c #F6AB1C",
"^  c #F8A31F",
"/  c #FAB81A",
"(  c #F49B21",
")  c #F6AC24",
"_  c #F7AF2B",
"`  c #F9A825",
"'  c #F7B323",
"]  c #F9B326",
"[  c #F7B32E",
"{  c #F9B52A",
"}  c #F8BB2E",
"|  c #F7BB32",
" . c #F9BB3B",
".. c #F8B832",
"X. c #F6C306",
"o. c #FEC401",
"O. c #FECC01",
"+. c #FEC40C",
"@. c #F7C909",
"#. c #FED402",
"$. c #FEDC01",
"%. c #FCD30C",
"&. c #FDDC08",
"*. c #FEC410",
"=. c #FECC15",
"-. c #FCCB1B",
";. c #FDD212",
":. c #FED31D",
">. c #FCDB18",
",. c #FEE202",
"<. c #FEEB02",
"1. c #FDED0A",
"2. c #FCE60B",
"3. c #FDED13",
"4. c #FCE619",
"5. c #FBC627",
"6. c #FDD62E",
"7. c #FCD825",
"8. c #F9C738",
"9. c #FCDC34",
"0. c #FCDC39",
"q. c #FAD43B",
"w. c #FBE527",
"e. c #FCE728",
"r. c #FDF027",
"t. c #FDE739",
"y. c #FCF237",
"u. c #CF8151",
"i. c #D28453",
"p. c #DC8246",
"a. c #E28344",
"s. c #F3AC41",
"d. c #F7B647",
"f. c #C98C68",
"g. c #D68D64",
"h. c #CF936E",
"j. c #D6936B",
"k. c #C98E70",
"l. c #CE9574",
"z. c #C4947A",
"x. c #CB9579",
"c. c #CF9C7F",
"v. c #ECA26C",
"b. c #F8C646",
"n. c #F9C847",
"m. c #FAD24D",
"M. c #F9D154",
"N. c #FAD957",
"B. c #FCE940",
"V. c #FDE449",
"C. c #FCE84C",
"Z. c #FCE341",
"A. c #FCF44B",
"S. c #FBF245",
"D. c #FAE157",
"F. c #FCEC54",
"G. c #FAE15E",
"H. c #FCF553",
"J. c #FBF55C",
"K. c #FAD76A",
"L. c #FAD663",
"P. c #FAE46A",
"I. c #FCF264",
"U. c #FCF56B",
"Y. c #FCF964",
"T. c #FAE571",
"R. c #FAEB7A",
"E. c #FBF572",
"W. c #FCF973",
"Q. c #FCF97B",
"!. c #FBF67B",
"~. c #BF9C8A",
"^. c #BDA095",
"/. c #B7A29C",
"(. c #AFA5A5",
"). c #B3A5A5",
"_. c #BCA7A3",
"`. c #B4A6A9",
"'. c #B6AAAB",
"]. c #BBACAD",
"[. c #BFABA7",
"{. c #BDB0AE",
"}. c #BDB2B2",
"|. c #C39681",
" X c #CB9B83",
".X c #C59B87",
"XX c #CAA28F",
"oX c #C9A494",
"OX c #C9AA9B",
"+X c #C4A79A",
"@X c #C3ABA4",
"#X c #C3B0AB",
"$X c #C1B1B1",
"%X c #F5D297",
"&X c #FAEF81",
"*X c #FBF286",
"=X c #FBFC83",
"-X c #FBFD8D",
";X c #FCF58D",
":X c #FBE59D",
">X c #FCF592",
",X c #FBFB94",
"<X c #FBFF9B",
"1X c #FBE4AB",
"2X c #FCFBA5",
"3X c #FCF0B8",
"4X c #FCFBC1",
"5X c #FDFBD8",
"6X c #F8E6C6",
"7X c #FEFBE5",
"8X c #FFFFEC",
"9X c #FEFEF5",
"0X c #FEFFFF",
"qX c None",
/* pixels */
"qXqXqXqXqXqXqXqXqXqXqXqXqXqXqXqXqXqXqXqXqXqXqXqXqXqXqXqXqXqXqXqXqXqXqXqXqXqXqXqXqXqXqXqXqXqXqXqXqXqXqXqXqXqXqXqXqXqXqXqXqXqXqXqXqXqXqXqXqXqXqXqXqXqXqXqXqXqXqXqX",
"qXqXqXqXqXqXqXqXqXqXqXqXqXqXqXqXqXqXqXqXqXqXqXqXqXqXqXqXqXqXqXqXqXqXqXqXqXqXqXqXqXqXqXqXqXqXqXqXqXqXqXqXqXqXqXqXqXqXqXqXqXqXqXqXqXqXqXqXqXqXqXqXqXqXqXqXqXqXqXqX",
"qXqXqXqXqXqXqXqXqXqXqXqXqXqXqXqXqXqXqXqXqXqXqXqXqXqXqXqXqXqXqXqXqXqXqXqXqXqXqXqXqXqXqXqXqXqXqXqXqXqXqXqXqXqXqXqXqXqXqXqXqXqXqXqXqXqXqXqXqXqXqXqXqXqXqXqXqXqXqXqX",
"qXqXqXqXqXqXqXqXqXqXqXqXqXqXqXqXqXqXqXqXqXqXqXqXqXqXqXqXqXqXqXqXqXqXqXqXqXqXqXqXqXqXqXqXqXqXqXqXqXqXqXqXqXqXqXqXqXqXqXqXqXqXqXqXqXqXqXqXqXqXqXqXqXqXqXqXqXqXqXqX",
"qXqXqXqXqXqXqXqXqXqXqXqXqXqXqXqXqXqXqXqXqXqXqXqXqXqXqXqXqXqXqXqXqXqXqXqXqXqXqXqXqXqXqXqXqXqXqXqXqXqXqXqXqXqXqXqXqXqXqXqXqXqXqXqXqXqXqXqXqXqXqXqXqXqXqXqXqXqXqXqX",
"qXqXqXqXqXqXqXqXqXqXqXqXqXqXqXqXqXqXqXqXqXqXqXqXqXqXqXqXqXqXqXqXqXqXqXqXqXqXqXqXqXqXqXqXqXqXqXqXqXqXqXqXqXqXqXqXqXqXqXqXqXqXqXqXqXqXqXqXqXqXqXqXqXqXqXqXqXqXqXqX",
"qXqXqXqXqXqXqXqXqXqXqXqXqXqXqXqXqXqXqXqXqXqXqXqXqXqXqXqXqXqXqXqXqXqXqXqXqXqXqXqXqXqXqXqXqXqXqXqXqXqXqXqXqXqXqXqXqXqXqXqXqXqXqXqXqXqXqXqXqXqXqXqXqXqXqXqXqXqXqXqX",
"qXqXqXqXqXqXqXqXqXqXqXqXqXqXqXqXqXqXqXqXqXqXqXqXqXqXqXqXqXqXqXqXqXqXqXqXqXqXqXqXqXqXqXqXqXqXqXqXqXqXqXqXqXqXqXqXqXqXqXqXqXqXqXqXqXqXqXqXqXqXqXqXqXqXqXqXqXqXqXqX",
"qXqXqXqXqXqXqXqXqXqXqXqXqXqXqXqXqXqXqXqXqXqXqXqXqXqXqXqXqXqXqXqXqXqXqXqXqXqXqXqXqXqXqXqXqXqXqXqXqXqXqXqXqXqXqXqXqXqXqXqXqXqXqXqXqXqXqXqXqXqXqXqXqXqXqXqXqXqXqXqX",
"qXqXqXqXqXqXqXqXqXqXqXqXqXqXqXqXqXqXqXqXqXqXqXqXqXqXqXqXqXqXqXqXqXqXqXqXqXqXqXqXqXqXqXqXqXqXqXqXqXqXqXqXqXqXqXqXqXqXqXqXqXqXqXqXqXqXqXqXqXqXqXqXqXqXqXqXqXqXqXqX",
"qXqXqXqXqXqXqXqXqXqXqXqXqXqXqXqXqXqXqXqXqXqXqXqXqXqXqXqXqXqXqXqXqXqXqXqXqXqXqXqXqXqXqXqXqXqXqXqXqXqXqXqXqXqXqXqXqXqXqXqXqXqXqXqXqXqXqXqXqXqXqXqXqXqXqXqXqXqXqXqX",
"qXqXqXqXqXqXqXqXqXqXqXqXqXqXqXqXqXqXqXqXqXqXqXqXqXqXqXqXqXqXqXqXqXqXqXqXqXqXqXqXqXqXqXqXqXqXqXqXqXqXqXqXqXqXqXqXqXqXqXqXqXqXqXqXqXqXqXqXqXqXqXqXqXqXqXqXqXqXqXqX",
"qXqXqXqXqXqXqXqXqXqXqXqXqXqXqXqXqXqXqXqXqXqXqXqXqXqXqXqXqX! Q ! ~ ] { { { ] ' ~ Q Q Q qXqXqXqXqXqXqXqXqXqXqXqXqXqXqXqXqXqXqXqXqXqXqXqXqXqXqXqXqXqXqXqXqXqXqXqXqX",
"qXqXqXqXqXqXqXqXqXqXqXqXqXqXqXqXqXqXqXqXqXqXqXqXqXqXqXQ ) | M.T.&X;X,X,X,X,X,X*XR.P.m.| ~ Q ! qXqXqXqXqXqXqXqXqXqXqXqXqXqXqXqXqXqXqXqXqXqXqXqXqXqXqXqXqXqXqXqXqX",
"qXqXqXqXqXqXqXqXqXqXqXqXqXqXqXqXqXqXqXqXqXqXqXqXqXF  .K.*X<X<X<X=XW.Y.J.H.H.J.Y.U.Q.-X-X&XN. .! Q qXqXqXqXqXqXqXqXqXqXqXqXqXqXqXqXqXqXqXqXqXqXqXqXqXqXqXqXqXqXqX",
"qXqXqXqXqXqXqXqXqXqXqXqXqXqXqXqXqXqXqXqXqXqXqXQ d.1X7X8X5X,XH.r.3.1.1.<.<.<.<.<.1.3.r.y.Y.Q.-XR.b.~ F qXqXqXqXqXqXqXqXqXqXqXqXqXqXqXqXqXqXqXqXqXqXqXqXqXqXqXqXqX",
"qXqXqXqXqXqXqXqXqXqXqXqXqXqXqXqXqXqXqXqXqXqX! L.5X0X0X0X0X2X1.<.<.<.<.<.1.<.<.<.<.<.<.<.<.3.y.J.=XR.n.! F qXqXqXqXqXqXqXqXqXqXqXqXqXqXqXqXqXqXqXqXqXqXqXqXqXqXqX",
"qXqXqXqXqXqXqXqXqXqXqXqXqXqXqXqXqXqXqXqXD _ T.2X9X0X0X0X0X3X1.<.<.,.$.O.@.X.X.X.@.#.,.,.<.<.<.<.4.A.Q.T...F qXqXqXqXqXqXqXqXqXqXqXqXqXqXqXqXqXqXqXqXqXqXqXqXqXqX",
"qXqXqXqXqXqXqXqXqXqXqXqXqXqXqXqXqXqXqXS [ R.-X,X4X9X0X0X7XI.,.@.T H k k k k k k b b n J T #.,.1.<.<.3.A.E.m.! ( qXqXqXqXqXqXqXqXqXqXqXqXqXqXqXqXqXqXqXqXqXqXqXqX",
"qXqXqXqXqXqXqXqXqXqXqXqXqXqXqXqXqXqXG _ R.-X=XA.w.I.>X=XC.@.H b k b m m J J J J J n b b b b J X.$.<.<.<.4.A.P.) G qXqXqXqXqXqXqXqXqXqXqXqXqXqXqXqXqXqXqXqXqXqXqX",
"qXqXqXqXqXqXqXqXqXqXqXqXqXqXqXqXqXqX! T.-X=XS.<.,.2.,.@.H k b m L Y Y Y Y Y R Y Y Y Y L L n b k n X.,.<.,.<.r.F.[ S qXqXqXqXqXqXqXqXqXqXqXqXqXqXqXqXqXqXqXqXqXqX",
"qXqXqXqXqXqXqXqXqXqXqXqXqXqXqXqXqXM N.=X=XS.<.e.>X;X-.n b J Y R Y Y Y Y Y Y Y Y Y R R Y Y Y Y J V b K @.<.,.,.3.B.} S qXqXqXqXqXqXqXqXqXqXqXqXqXqXqXqXqXqXqXqXqX",
"qXqXqXqXqXqXqXqXqXqXqXqXqXqXqXqXN [ =X=XJ.2.,.F.9X8X .m Y Y Y Y R Y R Y Y R Y R Y R Y R Y R R Y Y J b b T ,.,.,.2.w.' S qXqXqXqXqXqXqXqXqXqXqXqXqXqXqXqXqXqXqXqX",
"qXqXqXqXqXqXqXqXqXqXqXqXqXqXqXM B K.=XU.4.,.,.w.1X%X! Y Y R R Y Y R Y R R Y R Y R Y R Y Y R Y R Y R Y m b I &.,.,.,.4.I S qXqXqXqXqXqXqXqXqXqXqXqXqXqXqXqXqXqXqX",
"qXqXqXqXqXqXqXqXqXqXqXqXqXqXG l [ Q.Q.t.,.,.,.#.P P R R Y R Y R R R R Y R Y Y R Y R Y R Y R R Y R Y R R K b K #.,.,.,.&.H S qXqXqXqXqXqXqXqXqXqXqXqXqXqXqXqXqXqX",
"qXqXqXqXqXqXqXqXqXqXqXqXqXqXc k M.Q.I.4.,.$.,.K H Y R R R R R R R R R R R R R R R R R R R R R R R R R R R Y V H $.,.$.,.#.V qXqXqXqXqXqXqXqXqXqXqXqXqXqXqXqXqXqX",
"qXqXqXqXqXqXqXqXqXqXqXqXqXA j G P.W.t.,.,.,.O.H R R R R R R R R R R R R R R R R R R R R R R R R R R R R R R Y n K #.,.,.,.X.M qXqXqXqXqXqXqXqXqXqXqXqXqXqXqXqXqX",
"qXqXqXqXqXqXqXqXqXqXqXqXqXl j _ E.U.w.$.$.$.U L R R R R o.R R R R R R R R X.O.$.$.&.#.R R R R R R R R R R R o.Y n U &.$.$.$.I Z qXqXqXqXqXqXqXqXqXqXqXqXqXqXqXqX",
"qXqXqXqXqXqXqXqXqXqXqXqXx l j 8.W.H.&.$.$.O.K R o.R R R R o.R R #.&.o.o.$.,.,.,.$.$.$.o.R R R R R R R o.R R R R Y n X.$.$.$.%.M qXqXqXqXqXqXqXqXqXqXqXqXqXqXqXqX",
"qXqXqXqXqXqXqXqXqXqXqXqXj j l m.E.B.$.$.$.X.U o.R R R o.o.R o.@.,.&.$.$.,.#.O.X.o.o.X.o.o.R o.R o.R R R o.R o.R R U H O.$.$.2./ Z qXqXqXqXqXqXqXqXqXqXqXqXqXqXqX",
"qXqXqXqXqXqXqXqXqXqXqXZ j j j N.U.w.#.$.$.T R R o.R o.R R R K T @.X.#.$.o.o.o.o.o.o.o.o.R o.R o.o.R o.o.o.R o.R o.o.L U #.#.#.7.G qXqXqXqXqXqXqXqXqXqXqXqXqXqXqX",
"qXqXqXqXqXqXqXqXqXqXqXx j j c N.I.>.#.#.#.R o.o.o.o.R o.o.K k k K X.O.o.o.o.O.o.o.o.o.R o.O.O.o.o.o.o.R o.R o.o.R o.R K X.$.$.>.5.Z qXqXqXqXqXqXqXqXqXqXqXqXqXqX",
"qXqXqXqXqXqXqXqXqXqXqX5 2 j c D.F.>.#.#.#.R o.o.o.o.o.o.o.U n h H o.o.o.o.O.R K o.o.o.#.,.2.<.2.,.#.X.o.o.o.o.o.o.o.o.Y K #.#.$.0.S qXqXqXqXqXqXqXqXqXqXqXqXqXqX",
"qXqXqXqXqXqXqXqXqXqXqX2 2 2 c D.F.;.#.#.#.o.o.o.o.o.o.o.o.X.U b X.O.o.o.o.U b H o.O.$.,.#.#.O.O.$.,.$.o.o.o.o.o.o.o.o.o.U X.#.#.w._ e qXqXqXqXqXqXqXqXqXqXqXqXqX",
"qXqXqXqXqXqXqXqXqXqXe 2 2 2 c N.F.%.#.#.O.X.o.o.o.o.o.o.o.o.U H @.o.o.o.o.W U o.#.<.$.O.X.o.O.o.o.@.,.#.o.o.o.o.o.O.o.O.R Y #.O.>.q.4 qXqXqXqXqXqXqXqXqXqXqXqXqX",
"qXqXqXqXqXqXqXqXqXqX5 2 2 2 j m.C.%.O.#.O.O.O.o.O.o.o.o.O.O.H H O.o.O.o.O.O.O.$.,.#.o.o.o.o.o.o.o.o.O.&.O.o.O.o.o.o.o.o.X.U O.#.%.Z.S qXqXqXqXqXqXqXqXqXqXqXqXqX",
"qXqXqXqXqXqXqXqXqXqX5 2 2 < 2 n.C.;.O.O.O.o.O.o.o.O.o.O.O.o.b H o.o.o.o.O.,.2.,.O.o.o.o.o.o.o.o.o.o.o.O.#.O.o.O.O.o.O.o.O.T X.O.%.t.` 3 qXqXqXqXqXqXqXqXqXqXqXqX",
"qXqXqXqXqXqXqXqXqXqX6 < 2 < 2 | C.;.O.O.O.O.O.O.O.O.o.O.O.o.b n o.o.O.o.o.#.O.O.o.o.o.o.o.O.o.o.o.o.o.o.O.O.O.O.O.O.O.O.O.o.o.O.O.w.} ; qXqXqXqXqXqXqXqXqXqXqXqX",
"qXqXqXqXqXqXqXqXqXqX6 < < < < ` V.=.O.o.O.O.O.O.O.O.O.O.O.R b b R o.o.o.O.o.o.o.o.O.o.o.R K H T O.o.o.O.O.O.O.O.O.O.O.O.O.o.T O.o.7.q.5 qXqXqXqXqXqXqXqXqXqXqXqX",
"qXqXqXqXqXqXqXqXqXqX6 < < < < G V.:.o.O.O.O.O.O.#.O.O.O.#.X.n b H O.o.o.o.o.o.o.o.o.o.T H b n U o.o.o.o.O.O.O.#.O.O.#.O.O.O.X.O.O.:.q.e qXqXqXqXqXqXqXqXqXqXqXqX",
"qXqXqXqXqXqXqXqXqXqXw < < < < 5 q.7.o.o.o.o.O.O.#.O.O.O.O.#.K b b Y X.o.o.o.o.o.o.o.T W @.H H #.o.O.o.o.O.O.O.#.O.#.O.#.O.O.o.o.o.:.0.x qXqXqXqXqXqXqXqXqXqXqXqX",
"qXqXqXqXqXqXqXqXqXqX0 < - < < < [ 6.o.o.o.o.O.#.O.#.#.#.#.O.X.n b n K o.X.O.O.o.U T @.#.#.T %.@.o.o.o.O.#.#.#.O.#.O.O.#.#.#.O.o.o.=.9.c qXqXqXqXqXqXqXqXqXqXqXqX",
"qXqXqXqXqXqXqXqXqXqXd < < < - - G 6.o.o.o.o.o.#.#.O.#.#.#.O.#.R n b b n H K K K X.#.,.,.,.,.#.o.o.o.o.O.#.O.#.#.#.O.#.O.#.#.O.o.o.=.9.x qXqXqXqXqXqXqXqXqXqXqXqX",
"qXqXqXqXqXqXqXqXqXqXa.< - < < - 5 8.*.o.R o.R O.#.#.#.#.#.#.#.#.X.H n n n H T @.#.$.$.,.$.#.o.o.o.o.O.#.#.#.#.#.#.#.#.#.#.#.O.o.o.=.9.A qXqXqXqXqXqXqXqXqXqXqXqX",
"qXqXqXqXqXqXqXqXqXqXqXw - - < - = ^ -.R R R R o.#.#.#.#.#.#.#.#.#.#.O.X.@.#.#.@.T %.o.o.o.o.o.o.O.o.@.,.$.#.#.#.#.#.#.#.#.#.o.R R ;.6.x qXqXqXqXqXqXqXqXqXqXqXqX",
"qXqXqXqXqXqXqXqXqXqXqXa - - - - - 5 5.W R o.R R O.#.#.&.$.#.$.#.$.#.#.$.#.#.#.U @.@.o.o.o.o.o.O.R o.O.#.,.#.#.#.#.$.#.#.#.#.O.R R :.5.x qXqXqXqXqXqXqXqXqXqXqXqX",
"qXqXqXqXqXqXqXqXqXqXqXa.- - - - - = D +.R R R R R O.$.#.#.$.$.#.#.$.#.#.$.$.X.T $.X.o.o.O.o.R K n K o.O.#.#.$.#.$.#.$.#.#.#.R R W :.5.w qXqXqXqXqXqXqXqXqXqXqXqX",
"qXqXqXqXqXqXqXqXqXqXqXh.; - - = - - , E R R R R R o.#.$.$.#.#.#.$.#.$.#.#.#.K H U T o.o.R T T H b n X.#.$.#.$.$.#.$.#.$.$.O.R R W :./ w qXqXqXqXqXqXqXqXqXqXqXqX",
"qXqXqXqXqXqXqXqXqXqXqXOXd = - - = - = v Y R R Y R R o.$.$.$.#.$.$.#.$.$.$.X.n n n n n n H X.#.#.K T #.$.$.$.$.#.$.$.$.$.#.o.Y Y *.:.D a qXqXqXqXqXqXqXqXqXqXqXqX",
"qXqXqXqXqXqXqXqXqXqXqXqXj.= = = = = - = V Y Y R Y Y Y o.$.$.$.$.$.$.$.$.$.$.X.T K K U X.#.$.$.,.$.$.$.$.$.$.$.$.$.$.$.$.O.Y Y R =.=.x a.qXqXqXqXqXqXqXqXqXqXqXqX",
"qXqXqXqXqXqXqXqXqXqXqXqXoXa = = = = = = , J Y Y Y Y Y Y o.$.$.$.$.$.$.$.$.$.$.$.$.$.$.$.$.$.$.$.$.$.$.$.$.$.$.$.$.$.$.$.R Y Y T =./ q j.qXqXqXqXqXqXqXqXqXqXqXqX",
"qXqXqXqXqXqXqXqXqXqXqXqXqXj.= = = = * = * , L Y Y Y Y Y Y X.$.$.$.$.$.$.$.$.,.$.$.$.$.$.,.$.$.$.$.$.$.$.$.$.$.$.$.$.$.o.Y Y Y +.=.N d qXqXqXqXqXqXqXqXqXqXqXqXqX",
"qXqXqXqXqXqXqXqXqXqXqXqXqX@Xd * * = * * * * 1 J Y Y Y L Y Y o.#.$.,.$.$.,.$.$.$.$.$.,.$.,.$.$.$.,.$.$.,.$.$.,.$.$.$.O.Y Y Y W +.E 3 j.qXqXqXqXqXqXqXqXqXqXqXqXqX",
"qXqXqXqXqXqXqXqXqXqXqXqXqXqXz.; * * * * * * * z Y L Y L Y L L R O.$.,.,.$.$.,.$.,.$.$.$.$.$.,.$.,.$.$.,.$.,.$.$.$.o.Y L Y Y +.*.M s ^.qXqXqXqXqXqXqXqXqXqXqXqXqX",
"qXqXqXqXqXqXqXqXqXqXqXqXqXqX).i.@ = * * * * * @ z I Y L L Y L L Y R #.,.$.,.,.$.,.$.,.,.$.,.,.$.$.,.$.$.,.,.,.&.X.Y L Y Y W +.I 0 k.qXqXqXqXqXqXqXqXqXqXqXqXqXqX",
"qXqXqXqXqXqXqXqXqXqXqXqXqXqXqX^.d * * @ * * * * @ z E Y L L L Y L L U o.#.,.,.,.,.,.,.$.,.$.,.,.,.,.,.,.,.$.O.Y L L L I R +.E , f /.qXqXqXqXqXqXqXqXqXqXqXqXqXqX",
"qXqXqXqXqXqXqXqXqXqXqXqXqXqXqXqXoXp * @ * * * @ @ * > I W L L L L L L L L R O.#.,.,.,.,.,.,.,.,.,.,.$.$.O.Y L L L L b.:Xm.E h 9 |.qXqXqXqXqXqXqXqXqXqXqXqXqXqXqX",
"qXqXqXqXqXqXqXqXqXqXqXqXqXqXqXqX}.c.8 @ @ @ * @ * * @ , B W Y L L L L L L L L Y Y R X.#.#.#.#.O.O.o.R L L L L L L E 1X0X1Xe % g.'.qXqXqXqXqXqXqXqXqXqXqXqXqXqXqX",
"qXqXqXqXqXqXqXqXqXqXqXqXqXqXqXqXqX}.l.8 * @ * @ @ @ @ @ @ h I R Y L L L J L J L L L J L L L L L L J L L L J L L Y W K.6Xv.@ f @XqXqXqXqXqXqXqXqXqXqXqXqXqXqXqXqX",
"qXqXqXqXqXqXqXqXqXqXqXqXqXqXqXqXqXqX/.f.7 @ @ @ *   + @ @ @ $ b I R Y Y L L J J J J L J J L J J J L J J L L Y Y R W M q @ t .XqXqXqXqXqXqXqXqXqXqXqXqXqXqXqXqXqX",
"qXqXqXqXqXqXqXqXqXqXqXqXqXqXqXqXqXqXqX).k.7 + @ @ @ @ + @ @ @ + $ b I Y R Y L L L L J J L J J J L J L L Y Y R Y J h @ @ 9 |.`.qXqXqXqXqXqXqXqXqXqXqXqXqXqXqXqXqX",
"qXqXqXqXqXqXqXqXqXqXqXqXqXqXqXqXqXqXqXqX). Xp @ @ + + @ + @ + @ + @ $ z n Y W R Y Y Y Y Y L Y Y Y Y Y R R Y B h # + @ O z.`.qXqXqXqXqXqXqXqXqXqXqXqXqXqXqXqXqXqX",
"qXqXqXqXqXqXqXqXqXqXqXqXqXqXqXqXqXqXqXqXqX].oXi + @ @ @ + @ + @ + @ + + # $ > b P K Y Y Y Y Y E Y Y K V h : @   + @ O z.`.qXqXqXqXqXqXqXqXqXqXqXqXqXqXqXqXqXqXqX",
"qXqXqXqXqXqXqXqXqXqXqXqXqXqXqXqXqXqXqXqXqXqX].@Xg.9 + + + + # + + + + + + + + + # # $ : > > > > : $ # +   @ @ @   r  X`.qXqXqXqXqXqXqXqXqXqXqXqXqXqXqXqXqXqXqXqX",
"qXqXqXqXqXqXqXqXqXqXqXqXqXqXqXqXqXqXqXqXqXqXqX`.).|.i % + + + + @   @ @   @ + + +   @     +     @   + + % + +   t |.`.qXqXqXqXqXqXqXqXqXqXqXqXqXqXqXqXqXqXqXqXqX",
"qXqXqXqXqXqXqXqXqXqXqXqXqXqXqXqXqXqXqXqXqXqXqXqXqX)._.l.t X + + + +   + + + + + + + + @ + + @ + @ + + + +   7 u.^.).qXqXqXqXqXqXqXqXqXqXqXqXqXqXqXqXqXqXqXqXqXqX",
"qXqXqXqXqXqXqXqXqXqXqXqXqXqXqXqXqXqXqXqXqXqXqXqXqXqXqX}.@Xl.u % %       + + + + + + + + + + +   +   +   o u z.).).qXqXqXqXqXqXqXqXqXqXqXqXqXqXqXqXqXqXqXqXqXqXqX",
"qXqXqXqXqXqXqXqXqXqXqXqXqXqXqXqXqXqXqXqXqXqXqXqXqXqXqXqX$X}.#XXXu.r X             +     +         X O f  X_.).qXqXqXqXqXqXqXqXqXqXqXqXqXqXqXqXqXqXqXqXqXqXqXqXqX",
"qXqXqXqXqXqXqXqXqXqXqXqXqXqXqXqXqXqXqXqXqXqXqXqXqXqXqXqXqXqX}.}.)./.z.f.f t O o . X % X . o r y u.x.OX$X}.'.qXqXqXqXqXqXqXqXqXqXqXqXqXqXqXqXqXqXqXqXqXqXqXqXqXqX",
"qXqXqXqXqXqXqXqXqXqXqXqXqXqXqXqXqXqXqXqXqXqXqXqXqXqXqXqXqXqXqXqXqX'.].}.]._.^..Xz.z.x. X.XXX+X@X].'.].qXqXqXqXqXqXqXqXqXqXqXqXqXqXqXqXqXqXqXqXqXqXqXqXqXqXqXqXqX",
"qXqXqXqXqXqXqXqXqXqXqXqXqXqXqXqXqXqXqXqXqXqXqXqXqXqXqXqXqXqXqXqXqXqXqXqXqX`.).).(.`.'.}.}.}.}.{.qXqXqXqXqXqXqXqXqXqXqXqXqXqXqXqXqXqXqXqXqXqXqXqXqXqXqXqXqXqXqXqX",
"qXqXqXqXqXqXqXqXqXqXqXqXqXqXqXqXqXqXqXqXqXqXqXqXqXqXqXqXqXqXqXqXqXqXqXqXqXqXqXqXqXqXqXqXqXqXqXqXqXqXqXqXqXqXqXqXqXqXqXqXqXqXqXqXqXqXqXqXqXqXqXqXqXqXqXqXqXqXqXqX",
"qXqXqXqXqXqXqXqXqXqXqXqXqXqXqXqXqXqXqXqXqXqXqXqXqXqXqXqXqXqXqXqXqXqXqXqXqXqXqXqXqXqXqXqXqXqXqXqXqXqXqXqXqXqXqXqXqXqXqXqXqXqXqXqXqXqXqXqXqXqXqXqXqXqXqXqXqXqXqXqX",
"qXqXqXqXqXqXqXqXqXqXqXqXqXqXqXqXqXqXqXqXqXqXqXqXqXqXqXqXqXqXqXqXqXqXqXqXqXqXqXqXqXqXqXqXqXqXqXqXqXqXqXqXqXqXqXqXqXqXqXqXqXqXqXqXqXqXqXqXqXqXqXqXqXqXqXqXqXqXqXqX",
"qXqXqXqXqXqXqXqXqXqXqXqXqXqXqXqXqXqXqXqXqXqXqXqXqXqXqXqXqXqXqXqXqXqXqXqXqXqXqXqXqXqXqXqXqXqXqXqXqXqXqXqXqXqXqXqXqXqXqXqXqXqXqXqXqXqXqXqXqXqXqXqXqXqXqXqXqXqXqXqX",
"qXqXqXqXqXqXqXqXqXqXqXqXqXqXqXqXqXqXqXqXqXqXqXqXqXqXqXqXqXqXqXqXqXqXqXqXqXqXqXqXqXqXqXqXqXqXqXqXqXqXqXqXqXqXqXqXqXqXqXqXqXqXqXqXqXqXqXqXqXqXqXqXqXqXqXqXqXqXqXqX",
"qXqXqXqXqXqXqXqXqXqXqXqXqXqXqXqXqXqXqXqXqXqXqXqXqXqXqXqXqXqXqXqXqXqXqXqXqXqXqXqXqXqXqXqXqXqXqXqXqXqXqXqXqXqXqXqXqXqXqXqXqXqXqXqXqXqXqXqXqXqXqXqXqXqXqXqXqXqXqXqX",
"qXqXqXqXqXqXqXqXqXqXqXqXqXqXqXqXqXqXqXqXqXqXqXqXqXqXqXqXqXqXqXqXqXqXqXqXqXqXqXqXqXqXqXqXqXqXqXqXqXqXqXqXqXqXqXqXqXqXqXqXqXqXqXqXqXqXqXqXqXqXqXqXqXqXqXqXqXqXqXqX",
"qXqXqXqXqXqXqXqXqXqXqXqXqXqXqXqXqXqXqXqXqXqXqXqXqXqXqXqXqXqXqXqXqXqXqXqXqXqXqXqXqXqXqXqXqXqXqXqXqXqXqXqXqXqXqXqXqXqXqXqXqXqXqXqXqXqXqXqXqXqXqXqXqXqXqXqXqXqXqXqX",
"qXqXqXqXqXqXqXqXqXqXqXqXqXqXqXqXqXqXqXqXqXqXqXqXqXqXqXqXqXqXqXqXqXqXqXqXqXqXqXqXqXqXqXqXqXqXqXqXqXqXqXqXqXqXqXqXqXqXqXqXqXqXqXqXqXqXqXqXqXqXqXqXqXqXqXqXqXqXqXqX"
};
