/* XPM */
static char *result[] = {
/* columns rows colors chars-per-pixel */
"80 80 92 1 ",
"  c #050505",
". c #070708",
"X c #070808",
"o c #0B0B0C",
"O c #0E0F10",
"+ c #0F1011",
"@ c #121214",
"# c #161619",
"$ c #181618",
"% c #17181A",
"& c #1A1A1D",
"* c #1D1E21",
"= c #1F2023",
"- c #212226",
"; c #25262A",
": c #27282C",
"> c #292A2E",
", c #2C2D32",
"< c #2F3035",
"1 c #303237",
"2 c #34353A",
"3 c #37383E",
"4 c #38393F",
"5 c #3B3C42",
"6 c #3E4047",
"7 c #3F4148",
"8 c #43444B",
"9 c #46484F",
"0 c #474950",
"q c #4A4C54",
"w c #4E5057",
"e c #4F5159",
"r c #52545C",
"t c #56585F",
"y c #565961",
"u c #5A5C65",
"i c #5C5F68",
"p c #5E6067",
"a c #5E616A",
"s c #62646D",
"d c #646770",
"f c #666972",
"g c #696C75",
"h c #6C6F78",
"j c #6E7077",
"k c #6E717A",
"l c #72747E",
"z c #76787F",
"x c #747781",
"c c #767982",
"v c #797C85",
"b c #7B7E89",
"n c #7E818A",
"m c #82848D",
"M c #838690",
"N c #868992",
"B c #8A8C95",
"V c #8C8F99",
"C c #8D9097",
"Z c #8E919A",
"A c #92959D",
"S c #9497A0",
"D c #9699A1",
"F c #9A9CA5",
"G c #9D9FA8",
"H c #9EA0A7",
"J c #9EA1A9",
"K c #A3A5AD",
"L c #A6A8AF",
"P c #A7A9B1",
"I c #ABADB4",
"U c #AEB0B7",
"Y c #AFB1B8",
"T c #B2B4BB",
"R c #B6B8BF",
"E c #B8B9BF",
"W c #B7B9C0",
"Q c #BABCC2",
"! c #BFC1C6",
"~ c #C0C1C7",
"^ c #C3C5CA",
"/ c #C7C9CE",
"( c #CBCDD1",
") c #CFD0D5",
"_ c #D1D3D7",
"` c #D5D6DA",
"' c #D9DADD",
"] c #DDDEE1",
"[ c #E4E4E7",
"{ c #E7E7EA",
"} c #ECEDEF",
"| c None",
/* pixels */
"||||||||||||||||||||||||||||||||||||||||||||||||||||||||||||||||||||||||||||||||",
"||||||||||||||||||||||||||||||||||||||||||||||||||||||||||||||||||||||||||||||||",
"||||||||||||||||||||||||||||||||||||||||||||||||||||||||||||||||||||||||||||||||",
"||||||||||||||||||||||||||||||||||lFABKUTTLDAJNr||||||||||||||||||||||||||||||||",
"||||||||||||||||||||||||||||||||||sABbVGFJSBNDz9||||||||||||||||||||||||||||||||",
"||||||||||||||||||||||||||||||||||tywgbKPPBlswi8||||||||||||||||||||||||||||||||",
"|||||||||||||||||||||||||||||rfcj7ea59smIZlq9ea5ucla||||||||||||||||||||||||||||",
"|||||||||||||||||||||||||||sjfvDZyrhqq3tBj58qas0bHZhgg||||||||||||||||||||||||||",
"||||||||||||||||||||||||||cDFhfTWltltq39sr38rgfyJ^JgCJmg||||||||||||||||||||||||",
"|||||||||||||||||||||||elZKQ(DlPQcrbiuq5gq5uyzfyUEHn!/IDms||||||||||||||||||||||",
"||||||||||||||||||||||fnLTQ'}^lsnrqBstq4e88ytmf6vkuZ{[/TTFcy||||||||||||||||||||",
"|||||||||||||||||qq|ybAKE`]`EBt:<-8BsyahlhsuuNd-,>:dP)''~IHNs|8q||||||||||||||||",
"||||||||||||||||yABqyAKY()Lbt3:@#%29459yaiq8588*#@%>9jD^_^IHl8hKz|||||||||||||||",
"|||||||||||||||cQ/BfqjY!Kny5-$&--*&#@@@###@@@@&&=-=&&<wkATQBruvT_A||||||||||||||",
"||||||||||||||zE/Sdvheznp6;#&;;*#@oo||||||||||@@@&=:=#=2ehbtuvfbT^A|||||||||||||",
"|||||||||||||jKTEDafns,::%@&--&@o|||||||||||||||@@%&-=#@-<;qvcynLTIm||||||||||||",
"||||||||||||cFBDKDsixm3 o@**$O@|||||||||||||||||||#@#&&&oo&jnfyNPHBAB|||||||||||",
"||||||||||||vNspetfifh2.@#@OO|||||||||||||||||||||||$$@$%o&ajuduwyslCs||||||||||",
"||||||||||||6rit0qrgl3@@Oo$28||||||||||||||||||||||||i1o+@@;dlye8riy82||||||||||",
"||||||||||||w6wljsrj8@@@o$8au||||||||||||||||||||||||ms>oo@o>gaysls6qu||||||||||",
"|||||||||||cAmsrgbr1#@o.&<1ss||||||||||||||||||||||||Bq4<%o++;8lmytcACi|||||||||",
"|||||||||||BP~~s,8:@@oo;8>*ps||||||||||||||||||||||||B6:re-X+@&848K/UFg|||||||||",
"||||||||||gAL/_l:$@Oo@9y6&>ss||||||||||||||||||||||||N0;6uu:o+@+#qT'IFM|||||||||",
"||||||||||mFP_Ty;$@o@es8>*2fs||||||||||||||||||||||||me>:7uh>X+@#8C`TKAb||||||||",
"|||||||||sAK/`N5#@O >h9=*,qxs||||||||||||||||||||||||na3>:2keoo+@>d^`IFB||||||||",
"|||||||||fBT[Qs;O@oo9d1<55yxi||||||||||||||||||||||||vhe8q3ax;.+@#9D[/Dnu|||||||",
"||||||||qdnKIN5$@@.*ia0ee0adu||||||||||||||||||||||||hkreetsZ7Xo#O>fLIFcy|||||||",
"||||||||qsGTcq*O#Oo1ay91=7uui||||||||||||||||||||||||ssa2,7dZy%o@@@5sF/Ar|||||||",
"||||||||ybKDi,Oooo#8s0--:1qiu||||||||||||||||||||||||st85q4rAd:oooo*9mTFf|||||||",
"||||||lmMSFmq<-$o -0f5*:757du||||||||||||||||||||||||hr5ii8qZh1+.@*>6lDFZcc|||||",
"|||||fFIQ_/Kly9,#o;8a1%;eq2ay||||||||||||||||||||||||g90cf55Mf2&o-5esCQ(/ULb||||",
"|||||qfvmFAlyq2&Oo;19,#*57eg|||||||||||||||||||||||||ssrgt35fw1#o#:8rfmACvlr||||",
"||||||5rtgjgi95+o@1,:-#&1ef||||||||||||||||||||||||tyqafs843q6q<@O,8rglzse4|||||",
"||||||0fcKTTDhe%.@>,@&%*,tu|||||||||||||||||||||||qlDbqfr54231u3o#rgNLEPBs8|||||",
"||||||qitzKDhq5* .>5@&%-;u||||||||||||||||||||||||sFTDpst86243v3 @tysmINs92|||||",
"||||||qa2wnl827* .;3@%&13r|||||||||||||||||||||||tbQUmais89142g2 @ye1smd255|||||",
"||||||es59fu858*  -,@#,3,5|||||||||||||||||||||||sBPKKBwq7q331s1 @yy6efr585|||||",
"||||||9iq4fp3rw*  ->+*,-1||||||||||||||||||||||||fkBYJDyq8q82>u> @eu58h94r5|||||",
"||||||0qewyt0qq<o.&-O:,*4||||||||||||||||||||||||afnb0yquu9t2>9-.&389rdptrq5||||",
"|||||pbBPE^UBfe5;@--#1;&2||||||||||||||||||||||||qhu3*-1ua5p41q<#1qanK//TFNf||||",
"|||||tfcAPIAly5>-O&**:*-,||||||||||||||||||||||||0ce:36auy585,,=@:1qfBKIJmhu||||",
"|||||||38qe81;#Oo.*>1-*23||||||||||||||||||||||||rywyagfrg85e7:@ O@*,5qe035|||||",
"|||||||>qfhr5*o.. *<5-*55||||||||||||||||||||||||850ksr78kq3u0:#o..#<9dhy2||||||",
"|||||||8xDIZf3O...&<8&#23|||||||||||||||||||||||||78w1>;7d0,ie:%#.o;ynIIBr||||||",
"|||||||8xJQKh4@o..&,8&;,>|||||||||||||||||||||||||e08-=;8rq1yy;%#oo;uV^WBe||||||",
"|||||||8kK/If3@o..&29-,-:|||||||||||||||||||||||||qr5;;,0597iy;&#oo:yA(^Me||||||",
"|||||||8jSTPf2#oo.&29-&$:,|||||||||||||||||||||||||re3:,e1<7au=&&oO:eBQYne||||||",
"|||||||5kZKDa1$oo.&19-#-;<|||||||||||||||||||||||||8ee28q655au=**O@;qMIKMe||||||",
"|||||||5fAAby1#OOX%19;%*O,2|||||||||||||||||||||||||556r1-23au;*=+@;9hVSb0||||||",
"|||||||5fBZby2#OOo%,5***O%59|||||||||||||||||||||||||qfq-;2,ur===@+>whNZb0||||||",
"|||||||5fZFMy5%+Oo#>5#*21--q2||||||||||||||||||||||||su4et8;re=*=@+>wxSFbq||||||",
"|||||||5fSLBu2%Oo.O>5#O-:,-::||||||||||||||||||||||||52qq8,=ee*&*O+>qxPKb0||||||",
"|||||||1aVUVi2#O. o-3*  X*55:||||||||||||||||||||||||5yt;%@;re%%*XO;qxIIc5||||||",
"||||||||uBUZy2+Xoo*::*:,@*<5>||||||||||||||||||||||||7u5;,08q6&#%OO;qvYYx5||||||",
"||||||||uVYZy,+O%,82@*17,&%,:||||||||||||||||||||||||4315ad935r5>+O=0xYYx5||||||",
"||||||||yNUVr,O.X#52oO#**%&--||||||||||||||||||||||||223581>:5f5=OX=7xUIh5||||||",
"||||||||enPne:OX O50O#:>-&&,,||||||||||||||||||||||||5418585,wN3@..&6gLLf1||||||",
"||||||||qbFx9=oX O35O%%#&--52||||||||||||||||||||||||q9575<5,0c1+..$2sDFa5||||||",
"||||||||7xSg5*XX O33o%%#o@:8,||||||||||||||||||||||||qr,=;<3<5f1+o.@,tAAu,||||||",
"|||||||8anSx5*OO.O1,o%OO.&58:||||||||||||||||||||||||8i8*@=,<5s<@oo#1uAAhq||||||",
"|||||||rBT!Fu,%+.O:,o&O@&,85-||||||||||||||||||||||||5sy8;>125r,#+@-8MW!Jf||||||",
"|||||||1wcSv9=oOO*51#3q934q5>||||||||||||||||||||||||5sgtagf78f6;@o#3sAZa52|||||",
"||||||uq7quq2,:=&%,,*133qq55,||||||||||||||||||||||||8tlnluu8<2;&-:>,6yy88ye||||",
"|||||fZABbcccxba5-%@-20e5,,,;||||||||||||||||||||||||4qeujcfr,&->wlccbvvMADv||||",
"|||||lHKSVSSBbhu9>@#1q51,,1,-||||||||||||||||||||||||3wqeeyjh3#*,yfxMZFSAGKn||||",
"|||||sncbnnhyyyq5>#%2,1<:=-*|||||||||||||||||||||||||>7589rqu7%&,8eyydbnnxnx||||",
"|||||uMnBUGbaey85-O%,,,;%@%||||||||||||||||||||||||||:2<,39qe5@&>5yyuhBKFbBh||||",
"|||||ynbMJFbiq95>%O#:;%@#||||||||||||||||||||||||||||||111,49,@@*170rxVFZbnf||||",
"|||||ebxvnbge75,*#O@&@@||||||||||||||||||||||||||||||||||22,1;@o%>250axbbxbs||||",
"|||||0dhhkfi951:#OoO@||||||||||||||||||||||||||||||||||||||11=oXO*,55yaghhgr||||",
"|||||5qyyyyq5>=%OXOO|||||||||||||||||||||||||||||||||||||||||&ooX@*;17ryyur8||||",
"|||||378755<;*&%%%O||||||||||||||||||||||||||||||||||||||||||||#****=>555885||||",
"||||||0eq985213,:|||||||||||||||||||||||||||||||||||||||||||||||=,121588qqq7||||",
"||||||||||||||||||||||||||||||||||||||||||||||||||||||||||||||||||||||||||||||||",
"||||||||||||||||||||||||||||||||||||||||||||||||||||||||||||||||||||||||||||||||",
"||||||||||||||||||||||||||||||||||||||||||||||||||||||||||||||||||||||||||||||||",
"||||||||||||||||||||||||||||||||||||||||||||||||||||||||||||||||||||||||||||||||",
"||||||||||||||||||||||||||||||||||||||||||||||||||||||||||||||||||||||||||||||||",
"||||||||||||||||||||||||||||||||||||||||||||||||||||||||||||||||||||||||||||||||",
"||||||||||||||||||||||||||||||||||||||||||||||||||||||||||||||||||||||||||||||||"
};
