/* XPM */
static char *result[] = {
/* columns rows colors chars-per-pixel */
"80 80 190 2 ",
"   c #030304",
".  c #0A0B0C",
"X  c #070708",
"o  c #0C0F11",
"O  c #0E1115",
"+  c #111315",
"@  c #121519",
"#  c #15191D",
"$  c #1A1B1E",
"%  c #1C1815",
"&  c #351C0F",
"*  c #2B1D14",
"=  c #211E1D",
"-  c #331E12",
";  c #2B2119",
":  c #3B2315",
">  c #33241A",
",  c #3C2A1C",
"<  c #36251A",
"1  c #3D3112",
"2  c #161C22",
"3  c #181E24",
"4  c #201F21",
"5  c #1B2126",
"6  c #1C242B",
"7  c #1F2831",
"8  c #1F2730",
"9  c #242323",
"0  c #2A2624",
"q  c #21272C",
"w  c #23292D",
"e  c #2B2928",
"r  c #2B2827",
"t  c #352B23",
"y  c #3A2D24",
"u  c #3B342D",
"i  c #38382C",
"p  c #232C35",
"a  c #252F38",
"s  c #282F38",
"d  c #26313B",
"f  c #2A343D",
"g  c #2A3236",
"h  c #353434",
"j  c #383736",
"k  c #38393A",
"l  c #432514",
"z  c #442C19",
"x  c #4C2B19",
"c  c #4A2916",
"v  c #522D19",
"b  c #522D17",
"n  c #48341B",
"m  c #54331C",
"M  c #5A331B",
"N  c #5F381F",
"B  c #60381F",
"V  c #453324",
"C  c #4C3622",
"Z  c #4A3727",
"A  c #563C26",
"S  c #5B3922",
"D  c #593F29",
"F  c #563924",
"G  c #413B36",
"H  c #403732",
"J  c #623A21",
"K  c #683F24",
"L  c #5A4719",
"P  c #6F5514",
"I  c #5D4229",
"U  c #564920",
"Y  c #564934",
"T  c #674125",
"R  c #6C4125",
"E  c #62452B",
"W  c #69462B",
"Q  c #654A2D",
"!  c #704729",
"~  c #73492A",
"^  c #784D2E",
"/  c #6B4B31",
"(  c #724F32",
")  c #7B5535",
"_  c #7D5837",
"`  c #785638",
"'  c #7A5F23",
"]  c #2B3641",
"[  c #2E3A45",
"{  c #2F3C48",
"}  c #353C44",
"|  c #313E4B",
" . c #3C3D40",
".. c #34414D",
"X. c #3F4348",
"o. c #364553",
"O. c #394653",
"+. c #394857",
"@. c #3C4D5C",
"#. c #374958",
"$. c #3F505F",
"%. c #3E4F60",
"&. c #3F5161",
"*. c #414447",
"=. c #4C4E51",
"-. c #414F5C",
";. c #41505E",
":. c #54565A",
">. c #56585C",
",. c #585A5E",
"<. c #415364",
"1. c #435769",
"2. c #465A6C",
"3. c #485C6E",
"4. c #5A5C60",
"5. c #495E71",
"6. c #5E6164",
"7. c #4C6175",
"8. c #4F657A",
"9. c #51677B",
"0. c #52697E",
"q. c #6B6E73",
"w. c #6D7075",
"e. c #767A7E",
"r. c #717479",
"t. c #9B790E",
"y. c #8E701D",
"u. c #84572D",
"i. c #865A37",
"p. c #825C3A",
"a. c #895D39",
"s. c #885833",
"d. c #8D613C",
"f. c #92643E",
"g. c #9A673F",
"h. c #906E37",
"j. c #8F702E",
"k. c #8C6C4E",
"l. c #846345",
"z. c #9C6E45",
"x. c #966741",
"c. c #9F7147",
"v. c #8F6E50",
"b. c #947253",
"n. c #9E7959",
"m. c #A07147",
"M. c #A47349",
"N. c #AA774C",
"B. c #AC794D",
"V. c #B27C4F",
"C. c #B37C50",
"Z. c #A67651",
"A. c #BC941F",
"S. c #A88633",
"D. c #C49A18",
"F. c #E5B118",
"G. c #FCC219",
"H. c #BE8254",
"J. c #A9815F",
"K. c #C08455",
"L. c #DDBE61",
"P. c #C8AA56",
"I. c #FEDE7F",
"U. c #556C83",
"Y. c #586F86",
"T. c #577089",
"R. c #5B748C",
"E. c #587187",
"W. c #5D7790",
"Q. c #5E7992",
"!. c #7A7D81",
"~. c #617B95",
"^. c #7D8185",
"/. c #82868B",
"(. c #86898E",
"). c #8A8D92",
"_. c #8D9095",
"`. c #8F9298",
"'. c #92959A",
"]. c #96999E",
"[. c #999CA1",
"{. c #9EA1A6",
"}. c #A5A7AC",
"|. c #ACAEB3",
" X c #AFB1B6",
".X c #B6B8BC",
"XX c #BDBFC3",
"oX c #BFC2C6",
"OX c #C1C3C7",
"+X c None",
/* pixels */
"+X+X+X+X+X+X+X+X+X+X+X+X+X+X+X+X+X+X+X+X+X+X+X+X+X+X+X+X+X+X+X+X+X+X+X+X+X+X+X+X+X+X+X+X+X+X+X+X+X+X+X+X+X+X+X+X+X+X+X+X+X+X+X+X+X+X+X+X+X+X+X+X+X+X+X+X+X+X+X+X",
"+X+X+X+X+X+X+X+X+X+X+X+X+X+X+X+X+X+X+X+X+X+X+X+X+X+X+X+X+X+X+X+X+X+X+X+X+X+X+X+X+X+X+X+X+X+X+X+X+X+X+X+X+X+X+X+X+X+X+X+X+X+X+X+X+X+X+X+X+X+X+X+X+X+X+X+X+X+X+X+X",
"+X+X+X+X+X+X+X+X+X+X+X+X+X+X+X+X+X+X+X+X+X+X+X+X+X+X+X+X+X+X+X+X+X+X+X+X+X+X+X+X+X+X+X+X+X+X+X+X+X+X+X+X+X+X+X+X+X+X+X+X+X+X+X+X+X+X+X+X+X+X+X+X+X+X+X+X+X+X+X+X",
"+X+X+X+X+X+X+X+X+X+X+X+X+X+X+X+X+X+X+X+X+X+X+X+X+X+X+X+X+X+X+X+X+X+X+X+X+X+X+X+X+X+X+X+X+X+X+X+X+X+X+X+X+X+X+X+X+X+X+X+X+X+X+X+X+X+X+X+X+X+X+X+X+X+X+X+X+X+X+X+X",
"+X+X+X+X+X+X+X+X+X+X+X+X+X+X+X+X+X+X+X+X+X+X+X+X+X+X+X+X+X+X+X+X+X@ p 6 p w 6 6 p a p p d 3   +X+X+X+X+X+X+X+X+X+X+X+X+X+X+X+X+X+X+X+X+X+X+X+X+X+X+X+X+X+X+X+X+X",
"+X+X+X+X+X+X+X+X+X+X+X+X+X+X+X+X+X+X+X+X+X+X+X+X+X+X+X+X+X  O ] q ..7.2.3.3.2.5.2.o.U.2.| ] a 6 w +   +X+X+X+X+X+X+X+X+X+X+X+X+X+X+X+X+X+X+X+X+X+X+X+X+X+X+X+X+X",
"+X+X+X+X+X+X+X+X+X+X+X+X+X+X+X+X+X+X+X+X+X+X+X+X+X+X+ + [ o.o.<.<.s #.5.3.5.5.5.<.2 p 3 8 #.2...5.<.O.[ + + +X+X+X+X+X+X+X+X+X+X+X+X+X+X+X+X+X+X+X+X+X+X+X+X+X+X",
"+X+X+X+X+X+X+X+X+X+X+X+X+X+X+X+X+X+X+X+X+X+X+X+XX # <.5.R.~.Y.O.$.O d 2.5.5.3.5.5.#.w #.2.2.7 a W.~.W.5.d 6     +X+X+X+X+X+X+X+X+X+X+X+X+X+X+X+X+X+X+X+X+X+X+X+X",
"+X+X+X+X+X+X+X+X+X+X+X+X+X+X+X+X+X+X+X+X+X+X3 3 o { R.~.~.9.s +.E.&.3 &.5.5.7.5.5.5.1.<.2.[ . 5.W.7.] a 9.o.# 2 9 +X+X+X+X+X+X+X+X+X+X+X+X+X+X+X+X+X+X+X+X+X+X+X",
"+X+X+X+X+X+X+X+X+X+X+X+X+X+X+X+X+X+X+X+X+X+ o.2.[ 6 U.R.~.3.] @.U.R.] { 5.o.{ 2.7.5.2.] @.[ d U.R.| p 5.Q.R.R.Y.5 w +X+X+X+X+X+X+X+X+X+X+X+X+X+X+X+X+X+X+X+X+X+X",
"+X+X+X+X+X+X+X+X+X+X+X+X+X+X+X+X+X+X+X+Xp | 3.3.3.| <.~.R.R.U.| 8.Q.&.@ 7 @ 2 7 d $.o.#.f ] W.R.W.W.W.W.W.Q.8.{ { 1.[ X +X+X+X+X+X+X+X+X+X+X+X+X+X+X+X+X+X+X+X+X",
"+X+X+X+X+X+X+X+X+X+X+X+X+X+X+X+X+X+X+Xq <.5.5.5.5.<.3 1.~.R.R.R.E.R.Q.O.X ] %.{ p 5 ..1.6 <.~.Q.Q.R.<.7.Q.Y.7 6 1.5.2.p X +X+X+X+X+X+X+X+X+X+X+X+X+X+X+X+X+X+X+X",
"+X+X+X+X+X+X+X+X+X+X+X+X+X+X+X+X+X+X2 #.5.5.5.2.5.3.] 3 8.;.a a a #.W.R.f ..7.5.<.#.3.| @.Q.Q.U.8.{ o.T.T.[ 3 @.{ 2.5...  # +X+X+X+X+X+X+X+X+X+X+X+X+X+X+X+X+X+X",
"+X+X+X+X+X+X+X+X+X+X+X+X+X+X+X+X+X@ o.5.2.5.5.5.5.5.1.p 4 O.8.5.7.9.T.R.o.2 &.2.1.2.3.[ 2.E.9.p 6 &.U.W.<.# @.5.1.5.5.o.2 | w +X+X+X+X+X+X+X+X+X+X+X+X+X+X+X+X+X",
"+X+X+X+X+X+X+X+X+X+X+X+X+X+X+X+X  p 5.5.5.5.5.5.5.5.-.h r 4 9 e e e e 0 $ % = ; 9 9 = % 0 r r 9 4 ; 9 X.X.] 5.2.#.2.5.3.2.3.f X +X+X+X+X+X+X+X+X+X+X+X+X+X+X+X+X",
"+X+X+X+X+X+X+X+X+X+X+X+X+X+X+XO 8 2 %.2.5.5.5.2.%.:.V F K c c K R ~ T J : J T ~ T T c v T T ~ T N & v T C t ..&.p <.3.5.3.3.f . +X+X+X+X+X+X+X+X+X+X+X+X+X+X+X+X",
"+X+X+X+X+X+X+X+X+X+X+X+X+X+X+XO 2.<.a ] 2.5.5.@.9 S s.! K M M a.f.g.a.) b u.d.g.d.i.T R i.d.g.d.) b ~ a.f.g.D h p 1.5.5.3.;.w f + +X+X+X+X+X+X+X+X+X+X+X+X+X+X+X",
"+X+X+X+X+X+X+X+X+X+X+X+X+X+X. [ o.Y.1.# | 5.| r J ^ s.~ ^ J K m.M.V.m.f.b f.m.V.M.c.~ ^ m.c.V.N.f.B i.m.N.K.M.Q q <.5.2.p 3 f | [ +X+X+X+X+X+X+X+X+X+X+X+X+X+X+X",
"+X+X+X+X+X+X+X+X+X+X+X+X+X. 6 E.3.O.Y.;.# O.9 : u.K s.d.x.K K m.N.V.m.f.M f.M.V.M.m.~ ^ m.m.V.N.f.B i.m.B.K.M.i.: } 3.] # p | 7.E.d +X+X+X+X+X+X+X+X+X+X+X+X+X+X",
"+X+X+X+X+X+X+X+X+X+X+X+X+X$ O.R.R.2.9.W.o.X.: x K ~ M.Z.z.K K M.N.V.m.f.M f.m.V.M.m.~ ^ m.m.V.M.f.B a.m.B.K.M.i.M Y f # 2.9.2.W.R.p +X+X+X+X+X+X+X+X+X+X+X+X+X+X",
"+X+X+X+X+X+X+X+X+X+X+X+X+X# U.Q.W.R.W.W.U.j v v K s.K.B.m.K K m.M.V.m.f.M d.m.V.N.m.~ ^ m.m.H.N.f.B i.m.N.K.M.i.B p.= #.W.~.R.W.W.;.6 +X+X+X+X+X+X+X+X+X+X+X+X+X",
"+X+X+X+X+X+X+X+X+X+X+X+X+X{ R.Q.9.] 5.Y.d x B b ^ z.K.B.z.K K m.N.V.m.f.M f.m.V.M.m.~ ^ m.m.B.M.f.B i.m.N.K.M.i.M x.Z 2.~.U.U.Y.W.Y.$ +X+X+X+X+X+X+X+X+X+X+X+X+X",
"+X+X+X+X+X+X+X+X+X+X+X+X+X<.Q.Q.R.8.] [ e K M b a.M.K.B.z.K K m.N.C.m.f.M f.m.V.M.m.~ ^ m.m.V.N.f.N i.m.N.K.M.i.M z.l. .3.d w ] E.Y.3 +X+X+X+X+X+X+X+X+X+X+X+X+X",
"+X+X+X+X+X+X+X+X+X+X+X+X+X[ 2.1.1.1.<.[ z ~ S v g.M.K.B.M.K K m.M.C.m.f.M f.m.V.M.c.~ ^ m.m.V.M.f.N i.m.N.K.M.i.M z.z.* o o.@.@.1.1.] +X+X+X+X+X+X+X+X+X+X+X+X+X",
"+X+X+X+X+X+X+X+X+X+X+X+X.     X       X F ~ S S z.M.K.N.z.K K M.N.V.M.f.M f.m.V.M.m.~ ^ m.m.V.N.f.B i.m.N.K.M.i.M z.z.*       X       X +X+X+X+X+X+X+X+X+X+X+X+X",
"+X+X+X+X+X+X+X+X+X+X+X+X5 ..7     X d s S ~ M S z.M.K.N.m.K K M.M.V.m.f.M d.m.V.M.m.~ ^ m.m.V.M.f.B i.m.N.K.M.i.M z.z.y { | { { o.{ o.5 +X+X+X+X+X+X+X+X+X+X+X+X",
"+X+X+X+X+X+X+X+X+X+X+X+XO 5 5 [ 3.1.O.O.S ~ M S m.M.K.N.z.K K m.N.C.M.f.M f.M.V.M.m.~ ^ M.m.V.M.f.B i.m.N.K.M.i.M z.x.G 8.] p p p a 8.[ +X+X+X+X+X+X+X+X+X+X+X+X",
"+X+X+X+X+X+X+X+X+X+X+X+XO 6 2.T.W.W.7.w S ~ M J m.M.K.N.m.K K m.M.V.M.f.M f.m.V.M.c.~ ^ m.m.V.N.f.J i.m.N.K.M.i.M z.z.G | a 5.8.7.d O . +X+X+X+X+X+X+X+X+X+X+X+X",
"+X+X+X+X+X+X+X+X+X+X+X+X} R.W.W.W.W.Q.@.S ~ N S z.M.K.N.z.K K m.N.C.m.f.b f.m.V.M.m.~ ^ M.c.V.M.f.B i.m.N.K.M.i.M z.z.G T.W.W.Q.W.U.a O +X+X+X+X+X+X+X+X+X+X+X+X",
"+X+X+X+X+X+X+X+X+X+X+X+X| Q.W.R.W.W.Q.;.F ~ M S m.M.K.N.m.K K m.M.C.m.f.M f.m.V.M.m.~ ^ c.c.V.M.f.J i.m.N.K.N.i.M z.x.G T.Q.W.W.W.W.W.[ +X+X+X+X+X+X+X+X+X+X+X+X",
"+X+X+X+X+X+X+X+X+X+X+X+X[ R.R.R.R.W.R.;.F ~ M J z.M.K.N.z.K K m.N.V.m.f.M f.m.V.M.m.~ ^ M.c.H.M.f.J i.m.N.K.M.i.M z.z.j U.W.R.R.R.R.R.[ +X+X+X+X+X+X+X+X+X+X+X+X",
"+X+X+X+X+X+X+X+X+X+X+X+XO 5 5 5 5 3 3 # S ~ M S z.M.K.N.m.K K M.M.V.m.f.M f.m.V.M.c.~ ^ m.c.B.N.f.J i.m.N.K.M.i.M z.z.0 2 5 3 3 5 5 5 O +X+X+X+X+X+X+X+X+X+X+X+X",
"+X+X+X+X+X+X+X+X+X+X+X+X. O O O   X O o F ~ M S z.M.H.Z.m.K K z.M.V.m.f.v f.c.V.m.c.~ ^ c.c.V.M.f.J i.c.N.H.M.i.M x.z.; o O @ . O O O . +X+X+X+X+X+X+X+X+X+X+X+X",
"+X+X+X+X+X+X+X+X+X+X+X+Xp 1.3.;.p d | | * - * * V V F Z V - * V V F V V * z V Z V V > < V V Z Z , * , V Z Z Z , * V V 9 &.&.{ 2 ..1.1.p +X+X+X+X+X+X+X+X+X+X+X+X",
"+X+X+X+X+X+X+X+X+X+X+X+Xa 5.<.6 <.%.{ +.4.w.w.!.!.q.w.w.w.r.!.q.q.w.q.w.!.e.q.q.w.w.e.e.w.w.w.w.w.e.e.w.w.w.w.w.!.e.q.g { d a 6 2 $.5.s +X+X+X+X+X+X+X+X+X+X+X+X",
"+X+X+X+X+X+X+X+X+X+X+X+Xa <.2 6 1.5.5.| w.`.^.}. X_.).).).).XX[.).`.`.`. X|.).`._._.].|.'._._.).(.{.|.)._._.).(..X{.(.} o.o.5.2.8 { 5.p +X+X+X+X+X+X+X+X+X+X+X+X",
"+X+X+X+X+X+X+X+X+X+X+X+Xa 3.] 3 <.5.5.| q.)./.!.).).).).).^.(.).).).).(.^./.).).).(.^.^.(.).(.)./.e.).).).).)././.).(.} 2.5.5.5.o.3 <.d +X+X+X+X+X+X+X+X+X+X+X+X",
"+X+X+X+X+X+X+X+X+X+X+X+Xp 5.2.<.2.5.5.| e j h h h k j h j h h j j j j h h h j j j j h h j j j j h h h j j j j h h j h q &.7.7...<.&.2.d +X+X+X+X+X+X+X+X+X+X+X+X",
"+X+X+X+X+X+X+X+X+X+X+X+Xa 5.5.5.5.5.5.| z S c c ) p.x.p.i.v v s.p.a._ ~ l ( _ a.p._ N S _ _ d._ ( c W _ a.x.p.W c ) ) e 2.7.5.5.5.5.7.p +X+X+X+X+X+X+X+X+X+X+X+X",
"+X+X+X+X+X+X+X+X+X+X+X+X# p p p p a d 3 F ~ M S m.N.K.B.m.K K m.N.C.M.f.M x.M.C.N.m.~ ^ M.m.H.N.f.J a.m.N.K.M.i.M x.c.r 7 7 a 7 p p p # +X+X+X+X+X+X+X+X+X+X+X+X",
"+X+X+X+X+X+X+X+X+X+X+X+Xp %.@.+.%.@.;.] S ~ M S m.M.K.N.z.K K m.M.C.m.f.M f.m.V.N.m.~ ^ m.m.V.M.f.J i.m.B.K.M.i.M z.c.y #.@.@.&.%.@.&.8 +X+X+X+X+X+X+X+X+X+X+X+X",
"+X+X+X+X+X+X+X+X+X+X+X+X] U.<.1.~.~.~.;.S ~ M S z.M.K.N.m.K K m.N.C.m.f.b f.m.V.M.m.! ^ m.m.V.N.f.J a.m.B.K._ V , ( c.k R.Q.W.U.8.0.Q.{ +X+X+X+X+X+X+X+X+X+X+X+X",
"+X+X+X+X+X+X+X+X+X+X+X+X3 s | Y.~.~.~.;.S ~ M J z.M.K.N.m.K K m.N.C.M.f.M f.m.V.M.m.~ ^ M.m.V.M.f.N i.m.B.J.y.D.P.h.h.G T.W.R...7 d <.p +X+X+X+X+X+X+X+X+X+X+X+X",
"+X+X+X+X+X+X+X+X+X+X+X+X[ R.R.~.W.W.W.;.F ~ M S m.M.K.N.z.K K M.M.C.m.f.M f.M.V.M.m.~ ^ m.m.V.M.f.J i.M.z._ y.G.I.L.Q h T.W.W.T.E.U...2 +X+X+X+X+X+X+X+X+X+X+X+X",
"+X+X+X+X+X+X+X+X+X+X+X+X[ W.W.~.~.R.~.;.S ~ S S z.M.K.N.m.K K m.N.C.m.x.M f.m.V.M.m.~ ^ m.m.V.N.d.J i.m.) 1 L F.G.A.L i T.W.W.W.W.W.W.[ +X+X+X+X+X+X+X+X+X+X+X+X",
"+X+X+X+X+X+X+X+X+X+X+X+X{ W.~.~.~.~.~.<.S ~ M J z.M.K.N.m.K K m.M.C.m.f.M f.m.V.M.m.! ^ m.m.V.M.f.J i.M.) P L j.y.h.S.Y T.W.Q.Q.Q.Q.Q.{ +X+X+X+X+X+X+X+X+X+X+X+X",
"+X+X+X+X+X+X+X+X+X+X+X+Xa 5.5.5.3.5.5.| F ~ M S m.M.K.N.z.K K m.M.C.c.d.v f.m.V.N.m.~ ^ m.m.V.N.f.J i.M.g.j.P n > U ' q 2.7.7.7.7.5.7.d +X+X+X+X+X+X+X+X+X+X+X+X",
"+X+X+X+X+X+X+X+X+X+X+X+X+ 8 3 8 8 3 6 2 F ~ M J z.M.K.B.m.K K m.N.C.m.x.M f.m.V.m.m.~ ^ m.m.V.N.f.B i.m.B.B.P t.t.L I ; 5 6 6 6 6 6 6 @ +X+X+X+X+X+X+X+X+X+X+X+X",
"+X+X+X+X+X+X+X+X+X+X+X+Xp 2.2.2.2.2.5.| F ~ M J z.M.K.B.z.K K m.N.V.m.f.M f.M.C.M.c.~ ^ c.c.C.M.f.N i.c.N.K._ z - ( z.u &.2.2.2.2.2.2.p +X+X+X+X+X+X+X+X+X+X+X+X",
"+X+X+X+X+X+X+X+X+X+X+X+Xa 5.7.5.5.5.5.| F ~ M B z.M.K.N.m.K K m.M.V.m.f.M f.M.V.M.c.! ^ M.c.C.N.f.N i.m.N.K.M.i.M z.z.u 1.7.5.5.5.2.7.p +X+X+X+X+X+X+X+X+X+X+X+X",
"+X+X+X+X+X+X+X+X+X+X+X+X@ o.&.2.5.<.5.| N ~ M S m.M.K.N.m.K K m.M.V.m.f.b f.m.V.N.m.~ ^ c.c.C.M.f.B i.m.N.K.M.i.M z.z.u 1.7.5.5.5.7.<.w +X+X+X+X+X+X+X+X+X+X+X+X",
"+X+X+X+X+X+X+X+X+X+X+X+Xp d 5 ..o.6 ;...F ~ N S z.M.K.N.m.K K m.M.V.m.f.M f.M.C.M.m.~ ^ c.M.C.M.f.B i.m.B.K.M.i.M z.z.u 1.0.1.#.@.2.p O +X+X+X+X+X+X+X+X+X+X+X+X",
"+X+X+X+X+X+X+X+X+X+X+X+X..1.1.} ] &.5.| S ~ M J z.M.K.N.m.K K m.M.V.m.f.M d.m.C.M.m.~ ^ c.c.C.N.f.N i.m.N.K.M.i.M z.z.u 1.7.#.p 7 @.1.p +X+X+X+X+X+X+X+X+X+X+X+X",
"+X+X+X+X+X+X+X+X+X+X+X+X..2.7.2.5.5.5.| S ~ M S m.M.K.Z.m.K K m.N.V.m.f.M f.m.V.N.m.! ^ M.c.C.M.f.B i.m.N.K.M.i.M x.z.i 1.7.7.8.5.5.7.p +X+X+X+X+X+X+X+X+X+X+X+X",
"+X+X+X+X+X+X+X+X+X+X+X+Xf 2.1.2.1.1.2.} F ~ M S z.M.K.B.m.K K M.N.V.m.g.M f.m.V.N.m.~ ^ c.c.C.M.f.J i.m.N.K.M.i.M z.z.i &.1.1.1.2.2.2.p +X+X+X+X+X+X+X+X+X+X+X+X",
"+X+X+X+X+X+X+X+X+X+X+X+X@ 5 6 6 6 6 6 2 S ~ N J m.N.K.B.m.K K M.N.V.M.f.M f.M.V.N.m.~ ^ M.c.H.N.f.J a.m.B.K.N.a.N z.z.t 5 6 6 6 6 6 5 + +X+X+X+X+X+X+X+X+X+X+X+X",
"+X+X+X+X+X+X+X+X+X+X+X+X..8.8.8.0.9.9...- , & - A D Q I A : : A S E A C & C I I D A : z I A I I C - n D D W D V * F A = @.9.8.8.8.8.8.f +X+X+X+X+X+X+X+X+X+X+X+X",
"+X+X+X+X+X+X+X+X+X+X+X+X;.Q.Q.Q.~.~.~.;.*.>.>.,.>.:.:.:.:.>.,.>.:.>.:.>.,.>.:.>.:.:.>.,.:.:.:.:.>.>.4.>.>.:.>.>.,.>.>.k <.Q.W.5.R.Q.W.{ +X+X+X+X+X+X+X+X+X+X+X+X",
"+X+X+X+X+X+X+X+X+X+X+X+Xg f ;.2.U.W.Q.<.q.`./. X.X`._._.).'.oX].)._._.'.oX.X_._._._.'.OX[._._._.).}. X).)._._.`.OX}.).6.<.Q.R.2.E.Q.W.{ +X+X+X+X+X+X+X+X+X+X+X+X",
"+X+X+X+X+X+X+X+X+X+X+X+Xk @.@.;.E.W.Q.<.w.`.).(._._._._._./._.)._._._.).(.]._._._._./.'.`._._._.).!.'._._._.).(.).).`.6.;.W.W.Y.f [ 1.2 +X+X+X+X+X+X+X+X+X+X+X+X",
"+X+X+X+X+X+X+X+X+X+X+X+X+.~.R.E.W.W.Q.&. .=.=.=.=.=.=.=.=.=.=.=.=.=.=.=.=.=.=.=.=.=.=.=.=.=.=.=.=.=.=.=.=.=.=.=.=.=.=.g %.Q.W.R...O.U.d +X+X+X+X+X+X+X+X+X+X+X+X",
"+X+X+X+X+X+X+X+X+X+X+X+X@.W.Q.Q.Q.~.~.%.< x - - I I ( Q E l : E W / E D & A E / W I z z I E / W A : C I / ( Q m - I I 0 8.Q.~.Q.R.W.Q.{ +X+X+X+X+X+X+X+X+X+X+X+X",
"+X+X+X+X+X+X+X+X+X+X+X+Xg +.+.+.O.#.@.d F ~ N J m.M.K.C.m.R T M.N.V.M.f.M f.M.C.N.m.~ ^ M.M.C.B.f.B i.M.B.K.N.i.M z.z.y o.#.#.+.#.+.#.8 +X+X+X+X+X+X+X+X+X+X+X+X",
"+X+X+X+X+X+X+X+X+X+X+X+Xw d d d d d d 9 F ~ M S m.M.K.N.z.R T m.M.V.m.f.M f.m.C.N.m.~ ^ m.m.V.N.f.B i.M.B.K.M.i.M z.z.t a d d a d d d # +X+X+X+X+X+X+X+X+X+X+X+X",
"+X+X+X+X+X+X+X+X+X+X+X+X} 5.5.2.2.7.7.| S ~ N J z.M.K.N.z.! K m.M.C.M.f.M f.m.C.N.m.~ ^ M.m.C.M.f.S i.m.N.K.M.i.M z.x.j 2.3.7.2.5.7.5.p +X+X+X+X+X+X+X+X+X+X+X+X",
"+X+X+X+X+X+X+X+X+X+X+X+X} 5.5.f f 7.2.| F ~ M S m.M.K.N.z.K K m.M.C.m.f.M f.M.V.M.m.! ^ m.m.C.N.f.B i.m.B.K.M.i.M z.z.u 1.7.<.[ &.2.7.p +X+X+X+X+X+X+X+X+X+X+X+X",
"+X+X+X+X+X+X+X+X+X+X+X+X[ 5.<.d <.@.&.O.F ~ N S z.M.K.N.m.K K m.M.C.m.f.M f.m.V.M.m.~ ^ m.m.C.M.f.B i.m.N.K.M.i.M z.c.u 2.<.+.O.p <.7.d +X+X+X+X+X+X+X+X+X+X+X+X",
"+X+X+X+X+X+X+X+X+X+X+X+Xp 5.@.+.5.3.7.O.F ~ M J z.M.K.B.m.K K z.M.C.m.f.b f.M.V.N.m.! ^ m.m.C.M.f.B i.m.B.K.M.i.M z.z.t @.o.2.<.f @.7.7 +X+X+X+X+X+X+X+X+X+X+X+X",
"+X+X+X+X+X+X+X+X+X+X+X+Xp 2.2.3.2.2.2...F ~ M S z.N.K.B.m.K K M.M.C.m.f.v x.m.C.M.m.~ ^ M.m.C.N.f.B i.m.N.K.M.i.M x.z.t #.2.2.5.5.7.2.s +X+X+X+X+X+X+X+X+X+X+X+X",
"+X+X+X+X+X+X+X+X+X+X+X+X@ 6 6 6 6 6 6 $ m W m A v.b.n.b.k.J D v.b.n.v.l.m l.v.n.b.k.W / v.k.n.b._ F ` v.b.J.b.` F k.k.; 5 6 6 7 6 6 6 @ +X+X+X+X+X+X+X+X+X+X+X+X",
"+X+X+X+X+X+X+X+X+X+X+X+X+X+X+X+X+X+X+X+X+X+X+X+X+X+X+X+X+X+X+X+X+X+X+X+X+X+X+X+X+X+X+X+X+X+X+X+X+X+X+X+X+X+X+X+X+X+X+X+X+X+X+X+X+X+X+X+X+X+X+X+X+X+X+X+X+X+X+X+X",
"+X+X+X+X+X+X+X+X+X+X+X+X+X+X+X+X+X+X+X+X+X+X+X+X+X+X+X+X+X+X+X+X+X+X+X+X+X+X+X+X+X+X+X+X+X+X+X+X+X+X+X+X+X+X+X+X+X+X+X+X+X+X+X+X+X+X+X+X+X+X+X+X+X+X+X+X+X+X+X+X",
"+X+X+X+X+X+X+X+X+X+X+X+X+X+X+X+X+X+X+X+X+X+X+X+X+X+X+X+X+X+X+X+X+X+X+X+X+X+X+X+X+X+X+X+X+X+X+X+X+X+X+X+X+X+X+X+X+X+X+X+X+X+X+X+X+X+X+X+X+X+X+X+X+X+X+X+X+X+X+X+X",
"+X+X+X+X+X+X+X+X+X+X+X+X+X+X+X+X+X+X+X+X+X+X+X+X+X+X+X+X+X+X+X+X+X+X+X+X+X+X+X+X+X+X+X+X+X+X+X+X+X+X+X+X+X+X+X+X+X+X+X+X+X+X+X+X+X+X+X+X+X+X+X+X+X+X+X+X+X+X+X+X",
"+X+X+X+X+X+X+X+X+X+X+X+X+X+X+X+X+X+X+X+X+X+X+X+X+X+X+X+X+X+X+X+X+X+X+X+X+X+X+X+X+X+X+X+X+X+X+X+X+X+X+X+X+X+X+X+X+X+X+X+X+X+X+X+X+X+X+X+X+X+X+X+X+X+X+X+X+X+X+X+X",
"+X+X+X+X+X+X+X+X+X+X+X+X+X+X+X+X+X+X+X+X+X+X+X+X+X+X+X+X+X+X+X+X+X+X+X+X+X+X+X+X+X+X+X+X+X+X+X+X+X+X+X+X+X+X+X+X+X+X+X+X+X+X+X+X+X+X+X+X+X+X+X+X+X+X+X+X+X+X+X+X",
"+X+X+X+X+X+X+X+X+X+X+X+X+X+X+X+X+X+X+X+X+X+X+X+X+X+X+X+X+X+X+X+X+X+X+X+X+X+X+X+X+X+X+X+X+X+X+X+X+X+X+X+X+X+X+X+X+X+X+X+X+X+X+X+X+X+X+X+X+X+X+X+X+X+X+X+X+X+X+X+X",
"+X+X+X+X+X+X+X+X+X+X+X+X+X+X+X+X+X+X+X+X+X+X+X+X+X+X+X+X+X+X+X+X+X+X+X+X+X+X+X+X+X+X+X+X+X+X+X+X+X+X+X+X+X+X+X+X+X+X+X+X+X+X+X+X+X+X+X+X+X+X+X+X+X+X+X+X+X+X+X+X",
"+X+X+X+X+X+X+X+X+X+X+X+X+X+X+X+X+X+X+X+X+X+X+X+X+X+X+X+X+X+X+X+X+X+X+X+X+X+X+X+X+X+X+X+X+X+X+X+X+X+X+X+X+X+X+X+X+X+X+X+X+X+X+X+X+X+X+X+X+X+X+X+X+X+X+X+X+X+X+X+X",
"+X+X+X+X+X+X+X+X+X+X+X+X+X+X+X+X+X+X+X+X+X+X+X+X+X+X+X+X+X+X+X+X+X+X+X+X+X+X+X+X+X+X+X+X+X+X+X+X+X+X+X+X+X+X+X+X+X+X+X+X+X+X+X+X+X+X+X+X+X+X+X+X+X+X+X+X+X+X+X+X"
};
