/* XPM */
static char *Daco_4270381694643220[] = {
/* columns rows colors chars-per-pixel */
"10 10 99 2 ",
"   c #3F352B",
".  c #42382F",
"X  c #4D4636",
"o  c #45423B",
"O  c #4D473B",
"+  c #4A463D",
"@  c #514B3F",
"#  c #524C3E",
"$  c #514E49",
"%  c #585244",
"&  c #555148",
"*  c #5B5652",
"=  c #63594D",
"-  c #665B55",
";  c #615C56",
":  c #686350",
">  c #6C6552",
",  c #6D6653",
"<  c #696057",
"1  c #6C6256",
"2  c #6B605A",
"3  c #6E675D",
"4  c #6E685C",
"5  c #71675E",
"6  c #756E5B",
"7  c #726C5C",
"8  c #756E5C",
"9  c #76715E",
"0  c #78715F",
"q  c #777060",
"w  c #7C7563",
"e  c #7A7064",
"r  c #7F7969",
"t  c #7F796B",
"y  c #7F7A74",
"u  c #807969",
"i  c #827B6B",
"p  c #847D6A",
"a  c #867F6D",
"s  c #807571",
"d  c #817E77",
"f  c #868072",
"g  c #8A8074",
"h  c #8B807C",
"j  c #8D897E",
"k  c #968D7E",
"l  c #99907F",
"z  c #9A8D85",
"x  c #9B8E86",
"c  c #988F8A",
"v  c #9E9586",
"b  c #9E9188",
"n  c #9D908A",
"m  c #9F928A",
"M  c #A2988F",
"N  c #A79E8D",
"B  c #A89F8E",
"V  c #A19390",
"C  c #A29B93",
"Z  c #A69B97",
"A  c #AB9E95",
"S  c #A89F96",
"D  c #AC9F99",
"F  c #A6A297",
"G  c #ADA495",
"H  c #B3A69E",
"J  c #B5A99D",
"K  c #B3ABA0",
"L  c #B8ADA7",
"P  c #BAB2A7",
"I  c #BCB5AB",
"U  c #C1B4AB",
"Y  c #C5BAB8",
"T  c #C6C2B7",
"R  c #CAC2B7",
"E  c #CCC8BD",
"W  c #D1C6C4",
"Q  c #D7D1D1",
"!  c #DCDBD6",
"~  c #E3DBD0",
"^  c #E4DDD3",
"/  c #E1DDD4",
"(  c #E4DDD7",
")  c #E5DAD8",
"_  c #EEE3E1",
"`  c #F3EFE6",
"'  c #F7EEE5",
"]  c #F7F2EF",
"[  c #FBF4EA",
"{  c #FEF6EB",
"}  c #FFFEF3",
"|  c #FCF9F4",
" . c #FFFDF4",
".. c #FFF9F9",
"X. c #FFFBFB",
"o. c #FFFFF8",
"O. c #FFFFFB",
"+. c #FFFBFD",
"@. c #FFFDFD",
/* pixels */
"..W V m x m x x Y ..",
"_ h D H U J A C y ) ",
"Z 2 . e b G a . - n ",
"L 5 1 k B B l = - F ",
"' R u 0 > > w u J { ",
"} ~ q a 6 p 6 X P } ",
"[ 4 u 6 : 9 u d 3 ^ ",
"/ F j O % # # I C ( ",
"| O.d + T E & y ] @.",
"O.! $ o ` } ; * Q +."
};
