/* XPM */
static char *_1c921e4adc64e578cc49b29ab29e875_removebg_preview__1_1671823040[] = {
/* columns rows colors chars-per-pixel */
"80 80 202 2 ",
"   c None",
".  c #0C0707",
"X  c #0F0A0A",
"o  c #130B0E",
"O  c #1C0E0D",
"+  c #1C0D14",
"@  c #1F0E18",
"#  c #151214",
"$  c #1D1115",
"%  c #1F141A",
"&  c #1E1918",
"*  c #220C0E",
"=  c #2D0F0E",
"-  c #24110E",
";  c #2A120F",
":  c #33130E",
">  c #3B120E",
",  c #230D13",
"<  c #220E19",
"1  c #290C14",
"2  c #241115",
"3  c #2B1315",
"4  c #25131B",
"5  c #2B141D",
"6  c #25181F",
"7  c #2D191B",
"8  c #2E1916",
"9  c #321614",
"0  c #391615",
"q  c #341A15",
"w  c #3C1B15",
"e  c #32161C",
"r  c #39161C",
"t  c #34191C",
"y  c #3B1A1B",
"u  c #35251C",
"i  c #3C211E",
"p  c #2D1522",
"a  c #251D23",
"s  c #2D1922",
"d  c #2F1F29",
"f  c #331624",
"g  c #381724",
"h  c #331A25",
"j  c #3B1C23",
"k  c #371628",
"l  c #361D29",
"z  c #391E2A",
"x  c #2B2127",
"c  c #27232C",
"v  c #372126",
"b  c #3C2224",
"n  c #332827",
"m  c #36222A",
"M  c #3C242B",
"N  c #3F292E",
"B  c #2E2130",
"V  c #2E2E36",
"C  c #352630",
"Z  c #3F2630",
"A  c #3D2B32",
"S  c #372938",
"D  c #3D2E3D",
"F  c #362931",
"G  c #3B353D",
"H  c #491A0F",
"J  c #441C15",
"K  c #4A1E14",
"L  c #421D1B",
"P  c #4B1E1B",
"I  c #521E11",
"U  c #521E1B",
"Y  c #452217",
"T  c #4C2216",
"R  c #45231C",
"E  c #4C221A",
"W  c #46291F",
"Q  c #4D281C",
"!  c #4F2915",
"~  c #542416",
"^  c #592616",
"/  c #532915",
"(  c #5C2916",
")  c #53241B",
"_  c #5B251A",
"`  c #552B1C",
"'  c #5B2A1A",
"]  c #5E3117",
"[  c #5C331C",
"{  c #622A16",
"}  c #6B2E17",
"|  c #62241A",
" . c #68271C",
".. c #642B1A",
"X. c #6B2D1A",
"o. c #712F16",
"O. c #722F19",
"+. c #643017",
"@. c #64311B",
"#. c #6B311A",
"$. c #6B3B1C",
"%. c #6C3117",
"&. c #733116",
"*. c #783517",
"=. c #7E3B17",
"-. c #743219",
";. c #7B341B",
":. c #753A1A",
">. c #7C3B1A",
",. c #421C22",
"<. c #432423",
"1. c #4B2522",
"2. c #432826",
"3. c #4B2B24",
"4. c #41262A",
"5. c #412B2E",
"6. c #4B2E2B",
"7. c #502420",
"8. c #532D24",
"9. c #4D322C",
"0. c #553224",
"q. c #5C3423",
"w. c #5E3A26",
"e. c #53342B",
"r. c #5C3529",
"t. c #5B392A",
"y. c #412431",
"u. c #432D31",
"i. c #4A2F32",
"p. c #442F39",
"a. c #482E3B",
"s. c #453134",
"d. c #4C3334",
"f. c #46343B",
"g. c #49343B",
"h. c #4B393D",
"j. c #41383C",
"k. c #543732",
"l. c #553B35",
"z. c #513A39",
"x. c #6C2C21",
"c. c #643725",
"v. c #633A24",
"b. c #6C3C24",
"n. c #633D2A",
"m. c #6A3F29",
"M. c #6E3123",
"N. c #7F3724",
"B. c #57483D",
"V. c #6E4226",
"C. c #6B432C",
"Z. c #734526",
"A. c #7B4622",
"S. c #7B4A28",
"D. c #674437",
"F. c #7C5233",
"G. c #3D3642",
"H. c #453743",
"J. c #423C45",
"K. c #4B3B44",
"L. c #4C3D49",
"P. c #433E49",
"I. c #553F47",
"U. c #3F424D",
"Y. c #4B4047",
"T. c #4D424C",
"R. c #40424B",
"E. c #504844",
"W. c #52454E",
"Q. c #4F4450",
"!. c #4C4B55",
"~. c #514751",
"^. c #524B56",
"/. c #534D5A",
"(. c #55535F",
"). c #555663",
"_. c #81361D",
"`. c #88361F",
"'. c #823C1B",
"]. c #823621",
"[. c #853822",
"{. c #8B3A26",
"}. c #883724",
"|. c #84431C",
" X c #89441D",
".X c #8D4B1E",
"XX c #814D1D",
"oX c #914D1E",
"OX c #96521F",
"+X c #98551E",
"@X c #814820",
"#X c #8F4C20",
"$X c #824520",
"%X c #8C5222",
"&X c #805128",
"*X c #955220",
"=X c #995622",
"-X c #9C5A22",
";X c #A25D23",
":X c #A56124",
">X c #AB6624",
",X c #AC6824",
/* pixels */
"                                                                                                                                                                ",
"                                                                                                                                                                ",
"                                                                                                                                                                ",
"                                                                                                                                                                ",
"                                                                                                                                                                ",
"                                                                                                                                                                ",
"                                                                                                                                                                ",
"                                                                                                                                                                ",
"                                                                                                                                                                ",
"                                                                o                                                                                               ",
"                                                              a a                 V G.n x Y.R.F u                                                               ",
"                                                            V f.s #             J.).Q.k.u.Y.z.F.C.u &                                                           ",
"                                                            !.p.5 +         B k.W.W.g.9.d.f.D.S.6.B.B.B.              o o                                       ",
"                                                          U.~.M 5 4 <     6 L.D.d.g.s.e.d.s.C.0.u.k.u.j.j.            5 a                                       ",
"                                                          ^.p.f p f p p 3 <.I.C.u.s.5.n.g.s.v.b 5.5.5.2.s.            p M x                                     ",
"                                                        R.~.M f p k f < ~ _ d.m.M 5.6.Z.5.k.0.s N 5.9.w.C.9.O 4     4 p m S                                     ",
"                                                        ).L.z p p y 3 $ `  .1.m.b 4.m.n.6.C.b M 2.6.e.u.9.w.Y 7 & @ f p p A                                     ",
"                                                      U./.K.Z l E @.9 $ b Q ~ v.W j c.2.n.w.5.t.e.e.u.5.s.e.v.i 2 p k f 5 y.S                                   ",
"                                                      !.T.g.a.l R Y q i 2.N <.` ` e y b 0.4.5.9.6.u.s.5.2.2.l.e.t 5 f f p u.A                                   ",
"                                                a # c ^.K.s.K.l a C a t.0.N 5.1._ K 1 3 t j 5.u.u.u.4.3.w.$.z.9.b 4 f f p s.A                                   ",
"                                                G.D G.^.f.u.p.m c K.m i q.M u.b ^ I = 1 3 b 2.5.u.5.1.e.e.e.l.d.b t 5 p 4 M A &                                 ",
"                                                D P.^.L.f.H.A D ~.K.n 4 r L l b K H > * @ b 9.e.6.e.k.d.u.5.9.d.b L r r 4 M Z s 4                               ",
"                                              % S /./.f.f.W.L.L.Y.s.M 4 5 L e f U L J = @ t 2.t.e.d.i.4.M m 2.s.b E E ~ 7 5.A m p                               ",
"                                              @ m T.Y.f.f.^.~.g.s.s.N t r L j f 7.y P K 2 <.2.a.u.u.4.i.g.M S M j ) | P h u.s.S s                               ",
"                  s s                         o a J.h.f.K.T.Y.f.s.u.u.u L ,.7.g E j 8...h 6.3.u.u.<.3.g.f.f.A m L X...r l 5.5.Z m                               ",
"                  p s p s                     O 2 J.Y.K.L.K.g.s.s.u.s.7 J ,.7.L U j 7...b 9.0.M <.8.i.g.u.s.d ,.) ..J f h M s.u.F                               ",
"                  f f f l l s               J { E J.Y.T.Y.K.s.s.u.u.u.x L _ _  . .,.<.E v u.n.$.q.i.g.u.Z s 5 _ E ) e h M M 5.u.F                               ",
"                  p M z l M h p p           ..-.T A K.K.K.h.s.s.s.2.5.7 r ..X.X...) ,.) 5 2.t.XX6.5.u.N 4 3 ) ` ,.P p z u.Z N A m                               ",
"                  p l Z l h p 4 4 p       ( -.>.E N H.K.g.s.u.9.u.5.N 7 2 ..o.^ 9 ) ~ K * 8 9.v.5.<.m e , 5 _ R j K f M u.u.u.u.m                               ",
"                  p l M Z m p @ + @ p   ~ -. XoXY F K.K.g.s.u.u.N N N v + K X.y l R ' y 2 3 W <.i i 3 0 M y.R g ,.^ e m u.u.u.u.s             p       s p       ",
"                  p f Z N Z m p @ < < 9 X. X;X*XL A L.L.h.s.5.u.u.N N 5.M 9 { e M M w t 5 9 q w 3 Y ' ,.u.u.M f ` X.0 m u.u.u.p.4 .         p d l s h f l p     ",
"                  p p m N A M h < 4 0 ( '.=X>X*XJ M K.T.K.s.5.5.5.n 5.u.u.e ( 9 N 5.7 7 h w 0 R <.8.#.6.a.N 5.y ~ T E l u.u.u.p.7 3     s h k f p k p l z s     ",
"                  7 h m Z Z z h f r ..;. X:X>X*XY l g.L.K.u.N M b N 5.u.M q ~ t 5.5.h 4 m E <.0.6.[ ` g.f.v <.E w 3 E t u.s.u.A q ^ 8 s h f p < f f d k m p     ",
"                  f m M N u.M h h f L X.oX:X,X*X~ p f.H.f.u.m l v 5.s.M 7 w ~ 7 5.s.M 6 j 0.[ [ 8.' 8.5.m M E ~ 3 7 T y u.u.s.N w } K p p 4 @ 4 f l l Z z f     ",
"                p z u.M M u.M h h p p w >.:X,X=X' 5 m A M l s p h N v p 2 ^ y p M u.N 7 7 <.[ [ Q 0.k.4.s 2.I J 4 l ) ~ v u.u.v E ;.{ 3 p @ @ p l M Z l h p     ",
"                s N N N M u.M l f l h p E -X>X=X:.9 p p 7 5 p 5 5 4 2 ; T ( e z m N N v 2 7 L y 7 j M t e J K 3 h Z T #.T b u.t ( |.-.0 + @ p k m Z M h h s     ",
"                m 5.5.N N 5.A h l h h k p [ :X-XOX+.K y r t 3 ; * : K { { K h u.N M 5.v 4 9 ^ T t 4 , 1 > H 0 7 M u.` ;.-.~ <.P :.oX*._ , p h z 4.u.m h f h     ",
"                N 5.5.5.N 5.5.b p h l h l e b.:X;X.X;.;.;.} { { { } o. .^ 9 s M u.N N N v 5 ! ] w + + = H 9 2 h M <. .[.;.-.} } '.#X*. .e k z M N Z z h f s     ",
"                M 5.5.5.5.u.u.M h f p l l p y %X:X;X X`.'.'.|.'.&.O. .U 0 < f f M 5.2.M M v 3 , * + + = H 5 h n u.R ;.}.;.;.&.&.$X X .L p z M u.Z N v h h p     ",
"                h N 5.5.5.N u.5.z k f f l l 7 E -X;X.X X+X>X>X=X*.O.U 3 5 f f f h b 5.N M N m 7 4 < < 0 J 7 M v f ` [.[.;.*.&.o.:.-.P f h M M u.M M m M h 5     ",
"                p m u.u.N 5.5.u.M h f f h z l e %X:X+X;X,X,X:XOX*.X.e 5 z 4.z f g g f m N N 5.N m s 5 K w 6 s s e x.}.N.*.-.&.&.o.~ p h M Z 4.M M M z M l p     ",
"              6 p z 5.M M M u.5.M k k h l h h f A.:X>X>X>X>X;X X;.U f k u.s.u.M < < 5 f h m N 5.5.M 3 T e s s p r -.;.;.*..XoX*.( e h M M Z M M z z Z M d       ",
"              p p h 5.5.M M 5.5.l f f f k h h f v.+X>X,X,X:XOX_. .r f 4.5.5.u.M , ; 0 9 2 5 h N 5.l e K 3 l 7 h g -.;.-.|.>X;X*.L f l M M M M M M M M l f p     ",
"              h p h M 5.A m m u.m f k h h h h p Q OX,X,X:X+X'._.L p k z s.5.y.7 9 L P K J 9 2 m 5.m 9 J 5 , 4 l y N.].;.*X,X;XX.f f z M M M Z m z 4.l l p p     ",
"              f h t b 5.5.M m N M f f h h k p h y %X>X:XoX'.[. ., 7 M m i.5.h 2 K e M 4.i T Y 8 h 4 K T 8 0 7 p Q {._.&.*X,X*X) f h M Z M y.M M M z k h k p     ",
"              h g 3.b m M m h v M f k k l h l f r $X.X'._.}.M.    , l M 4.u.7 9 E J h M m E >.( J 0 ( } R t 5 4   {.;.&..X>X|.y p k M Z u.4.z M z Z M M f p     ",
"              s h f i j h s h d l f k f h l l f f ( -.[.{.x.        + h g 4.5 J J K r 5 t A.-X+X.X>.*.*.R 3 +     N._.&.>.=X@.f l p M 5.M M z M z M Z m l p     ",
"              p l l 7 h h M Z l p h k k l l l k p ~ ;.}.X.            o g k 2 ( { { { ~ {  X-X,X>X>X-X-X( q       M.[.-.&.>.Y l l j m M M M M M z l M h p       ",
"              p l M m l l N N l p d l f k h l f e ^  .)                 2 3 w o.o.&.&.&.*.oX>X>X,X,X,X;X>.( t 4     ].N.&.{ g m M M v s l l z l k h l f p       ",
"              p l M N Z M 5.5.m k p p f k k k r y { T 3                 ! I } o.&.o.&.o.&. X:X>X:X-X-X*X;.X.) h     ' {.&.~ f z M v v m s p l f s f f p 7       ",
"              p l M M N N Z Z M f p p p h k f <.y K e 2           4 3   ~ { o.o.&.o.o.&.&.&.|.oX|.>.>.=.-.7.L f     t X.N.` e f h h M M M l p p e g g y f       ",
"              s l Z M Z N 5.Z m l f f p j j 8.R f 0 f 5           4 t 2 3 3 ~ &.o.&.&.&.&.&.&.;.|..X.X>.-.L g ,.v   5 9 0 J ~ e s M Z 5.Z m l p f Q 1.g h       ",
"              p h M m Z N M u.m k s l p i 8.W g h r k 5         % 5 5 5 5 p w %.o.&.&.&.O.O.*.oX;X>X;X|. .h k 8.M   p p p r T j m M 5.M N N M l l r h h p       ",
"              p h m l M 5.N u.M l k f l g g f l t t k <         4 7 7 h v s t w ~ &.&.&.O.&.*. XOX=X.X>.) k z c.M a p h l r y l M M M 5.N 5.Z Z Z M l f p       ",
"              s h z l m M N 4.Z h h l h h h m l t j f 5       $ h s n u.5.M r 3 9 ..&.&.O.&.O.;.*.*.-.X.y z ,.c.<.d 6 p s g g h h h m N 5.u.N 5.N l h f         ",
"            p h g z l h M N N Z l l p f f h j 5 b M h         5 m h u.u.u.N v t 5 w } &.O.;.;.O.;.;.-.J f ,.4.c.<.s 4 p p y t s f h h M 5.N u.4.m h f f         ",
"              <.V.b l l v M N N z h h h h k h e j z p         s h M u.i.u.5.b b h e ^  .O.;._._.}.].U r k 1.7.M.j f 5 p 3 R r s h f l M 5.N 5.M h g g s         ",
"              W b.w.j l l v M M l z h k l h z f 5 f p         5 f z u.s.u.s.b <.m h J P | |  .x.x.U ,.f k _ ,.7.r p   4 r y e h h f h Z u.M m l i m.0.p         ",
"              t b 0.0.g j l l l z h f f l M M h 3 4           4 f z y.u.s.u.5.9.b g y e U U U L r g k k g ` ,.` e p   4 7 v t r p h l M u.m j 1.r.8.<.p         ",
"            % 4 M M <.<.t h p l l l k f p z M k 5             $ f k ,.p.5.u.6.V.1.L g 5 1   E P k k g k ,.4.8._ 7 p   4 5 h h h r t s l m <.8.0.b g b           ",
"            p 6 b M b l b 3.Q t t h f m h h z k <             q p k k 4.u.u.9.t.7.1.y 6     ( ..,.k k k ,.M 3.P p p   % p l M M g W W i 1.0.4.4.l h t           ",
"            p p M M M v m b V.S.W g l M h ,.j p             b.' e f f h l M 6.c.y g t @   @.} O.U ,.g ,.h h ) J f p   $ p s z M M l Z.S.<.z M M h p 5           ",
"              p h N N N N M 3.0.2.<.2.M j 8.y @             @.} P e h f r e ` _ f f w     ( o.O.-. ._ _ E ) %.' w e     p h f l M M ` 8.M 5.u.m f p s           ",
"              6 7 M N N N l b N j m Z m f f f               T  . .L L T w L ' X.E L       ` X.O.} X.O.-.%.' Q b g       l M h h m N j h M 5.M l h f p           ",
"                4 m N N b l b u.j M M l f k 4               !  ._  .{ 0 b u.<.` ' 1.      ' X.|  . .| X.E f l j h       l N M l l M b p l 5.M l h f p           ",
"                4 l M N l b 5.M l M l f h f @               ' } M.X.~ e h M v 7           ` O. .| X. .| L e f p 5       4 M y.h h j u.h h M l h f h p           ",
"                  s m M h M M M m m h k p 5 o               ^ -.>.'.-.^ 0 f y Y             } ;.&.-.>.X._ 9 @         4 q r l z h h Z M t l h f f p             ",
"                  5 g j j n 5.M m k h p t ,                   #.-.>.|.-.{ ( o.+.            #.'.>.=.:.Y ) (           2 7 Y J 7 f f f z b g h k p s             ",
"                  7 b <.z M u.M j f 7 ` ` 2 o                 X.-.;.#.L L @.>.#.            X.>.|.>.) e r ..8.        q h i ' ) y p f f j 1.j f 5               ",
"                    i R h M M h k e ` :.t 6 O                 ( &.o.J f M b ' ..3           q.( >.:.r f f L `       # t h M b Q ) r p f h j f p                 ",
"                    2 h h z z f 5 E 8.t 7 7 Y                   #._ g k z 4.<.P 7           7 3 ' @.e g g g y       $ b t N 5.5.M j p h s k p                   ",
"                    o h h f p 5 e <.4.f h r Q                   ..K f f f f L J 7 e         2 5 y ) e f h h 5       $ n h n 5.5.u.N p p h p                     ",
"                    O 7 5 6 5 m N u.M f j W Q                   ` y e e J L ^ ~ e '         q y e L L e e r e       $ 3 4 7 M N M n p 5 t 3                     ",
"                      w w t h N u.N 5 7 r @.T                     e K ( *.'.|.$.w ..        / :.L y #.^ +.$.~ !     q w 2 < s h v 7 5 w ) -                     ",
"                        ; 3 7 t v s 2 o w ' J                     J *.A.%X.X%XA.H ^         ' XXT w A.$X>.:.' E       q O + y Q t 2 3 T w                       ",
"                            3 i 8 +                               J ! / [ +.' ^ : 8           Y       T w                   9 Y ; .                             ",
"                                                                                                                                                                ",
"                                                                                                                                                                ",
"                                                                                                                                                                ",
"                                                                                                                                                                "
};
