/* XPM */
static char *result[] = {
/* columns rows colors chars-per-pixel */
"80 80 250 2 ",
"   c #1D1910",
".  c #271C18",
"X  c #30180B",
"o  c #2A2A08",
"O  c #3D240B",
"+  c #362807",
"@  c #2B370A",
"#  c #36370C",
"$  c #282B15",
"%  c #382817",
"&  c #2C3412",
"*  c #2C3A16",
"=  c #343D14",
"-  c #383715",
";  c #2B2A27",
":  c #362B28",
">  c #393725",
",  c #393636",
"<  c #303030",
"1  c #1F2B18",
"2  c #561A05",
"3  c #471B13",
"4  c #481C0E",
"5  c #462806",
"6  c #572C07",
"7  c #45360B",
"8  c #56360C",
"9  c #492B16",
"0  c #4B341C",
"q  c #473717",
"w  c #55361A",
"e  c #582814",
"r  c #692A0C",
"t  c #772907",
"y  c #68350A",
"u  c #79360B",
"i  c #682C13",
"p  c #673618",
"a  c #7C3A14",
"s  c #7B3C1B",
"d  c #753716",
"f  c #792C13",
"g  c #482A27",
"h  c #4A3628",
"j  c #553928",
"k  c #483A36",
"l  c #55322E",
"z  c #653625",
"x  c #663C35",
"c  c #713A2C",
"v  c #2B450B",
"b  c #33450C",
"n  c #2C4414",
"m  c #2C4A15",
"M  c #2A4917",
"N  c #334315",
"B  c #324A15",
"V  c #33451D",
"C  c #344B19",
"Z  c #3A491A",
"A  c #3A4318",
"S  c #36510E",
"D  c #3D4236",
"F  c #48431A",
"G  c #5D4216",
"H  c #664417",
"J  c #79431C",
"K  c #704610",
"L  c #464629",
"P  c #55452C",
"I  c #5A462B",
"U  c #5A4728",
"Y  c #4B4538",
"T  c #5B4332",
"R  c #5C4A33",
"E  c #574838",
"W  c #5B5238",
"Q  c #5A522C",
"!  c #664729",
"~  c #784628",
"^  c #674B37",
"/  c #744C37",
"(  c #6D543A",
")  c #675539",
"_  c #7B543B",
"`  c #78573A",
"'  c #6D552F",
"]  c #79633B",
"[  c #726634",
"{  c #493B44",
"}  c #623B44",
"|  c #484747",
" . c #564647",
".. c #5A5247",
"X. c #5A575A",
"o. c #504E53",
"O. c #684B48",
"+. c #6C5C44",
"@. c #675847",
"#. c #765648",
"$. c #665859",
"%. c #715451",
"&. c #6B6549",
"*. c #786648",
"=. c #6A6655",
"-. c #776754",
";. c #6E7049",
":. c #585862",
">. c #6B5D62",
",. c #666468",
"<. c #776464",
"1. c #6C6A74",
"2. c #6D7276",
"3. c #73777A",
"4. c #6F706C",
"5. c #5F6463",
"6. c #843B0D",
"7. c #883B14",
"8. c #92390E",
"9. c #823E21",
"0. c #99460E",
"q. c #884618",
"w. c #9B4B1C",
"e. c #964516",
"r. c #97541B",
"t. c #8C4F14",
"y. c #BF560F",
"u. c #A74B17",
"i. c #A5551D",
"p. c #AB551D",
"a. c #A65216",
"s. c #BD5414",
"d. c #BA551B",
"f. c #B85719",
"g. c #B14A12",
"h. c #8F6318",
"j. c #BB7819",
"k. c #AB6D17",
"l. c #854725",
"z. c #87562E",
"x. c #975629",
"c. c #884D33",
"v. c #845838",
"b. c #995A35",
"n. c #924C27",
"m. c #AA5524",
"M. c #A85727",
"N. c #B65825",
"B. c #A84C27",
"V. c #9E672D",
"C. c #89623D",
"Z. c #996437",
"A. c #A7652A",
"S. c #B76929",
"D. c #B97725",
"F. c #A56538",
"G. c #BB773C",
"H. c #AE6D3A",
"J. c #C5550C",
"K. c #C9550D",
"L. c #C45612",
"P. c #C45815",
"I. c #C55717",
"U. c #C97D1A",
"Y. c #D17316",
"T. c #C77A2B",
"R. c #C25B21",
"E. c #865A47",
"W. c #955B44",
"Q. c #834D44",
"!. c #89684B",
"~. c #966746",
"^. c #8A7653",
"/. c #957856",
"(. c #906F52",
"). c #A86A44",
"_. c #AB7548",
"`. c #B67849",
"'. c #A87958",
"]. c #B47756",
"[. c #AE6C4D",
"{. c #8D7064",
"}. c #997C62",
"|. c #817E7E",
" X c #AA7B62",
".X c #C67C50",
"XX c #CB8119",
"oX c #C88132",
"OX c #928257",
"+X c #B9814A",
"@X c #B98759",
"#X c #AD8A51",
"$X c #AB8665",
"%X c #BA8865",
"&X c #B9996B",
"*X c #B79775",
"=X c #AC946A",
"-X c #AE9A7C",
";X c #C7864A",
":X c #C58857",
">X c #D38D56",
",X c #CB945E",
"<X c #D7975A",
"1X c #D38E4E",
"2X c #E39C5D",
"3X c #D4A55C",
"4X c #E5A25D",
"5X c #C78765",
"6X c #C99668",
"7X c #DA9D64",
"8X c #D79A69",
"9X c #D89E74",
"0X c #C89576",
"qX c #E39F64",
"wX c #E79D67",
"eX c #E99E73",
"rX c #DEA263",
"tX c #DCA46B",
"yX c #D9A868",
"uX c #DBA472",
"iX c #D7A678",
"pX c #CCA770",
"aX c #E3A264",
"sX c #EAA263",
"dX c #E4A46A",
"fX c #E7A76B",
"gX c #E4A573",
"hX c #E3AA72",
"jX c #EAA977",
"kX c #E5B37B",
"lX c #787984",
"zX c #6D7281",
"xX c #7F848E",
"cX c #848893",
"vX c #909095",
"bX c #8D98A5",
"nX c #B2AFA9",
"mX c #AFA18F",
"MX c #CFB18C",
"NX c #E4B489",
"BX c #C3B5A6",
"VX c #CCBCB5",
"CX c #DC9B82",
"ZX c #CBC5B4",
"AX c #CCC4B9",
"SX c #CCC7B6",
"DX c #D2CAB8",
"FX c #EED0AB",
"GX c #CECAC7",
"HX c None",
/* pixels */
"HXHXHXHXHXHXHXHXHXHXHXHXHXHXHXHXHXHXHXHXHXHXHXHXHXHXHXHXHXHXHXHXHXHXHXHXHXHXHXHXHXHXHXHXHXHXHXHXHXHXHXHXHXHXHXHXHXHXHXHXHXHXHXHXHXHXHXHXHXHXHXHXHXHXHXHXHXHXHXHX",
"HXHXHXHXHXHXHXHXHXHXHXHXHXHXHXHXHXHXHXHXHXHXHXHXHXHXHXHXHXHXHXHXHXHXHXHXHXHXHXHXHXHXHXHXHXHXHXHXHXHXHXHXHXHXHXHXHXHXHXHXHXHXHXHXHXHXHXHXHXHXHXHXHXHXHXHXHXHXHXHX",
"HXHXHXHXHXHXHXHXHXHXHXHXHXHXHXHXHXHXHXHXHXHXHXHXHXHXHXHXHXHXHXHXHXHXHXHXHXHXHXHXHXHXHXHXHXHXHXHXHXHXHXHXHXHXHXHXHXHXHXHXHXHXHXHXHXHXHXHXHXHXHXHXHXHXHXHXHXHXHXHX",
"HXHXHXHXHXHXHXHXHXHXHXHXHXHXHXHXHXHXHXHXHXHXHXHXHXHXHXHXHXHXHXHXHXHXHXHXHXHXHXHXHXHXHXHXHXHXHXHXHXHXHXHXHXHXHXHXHXHXHXHXHXHXHXHXHXHXHXHXHXHXHXHXHXHXHXHXHXHXHXHX",
"HXHXHXHXHXHXHXHXHXHXHXHXHXHXHXHXHXHXHXHXHXHXHXHXHXHXHXHXHXHXHXHXHXHXHXHXHXHXHXHXHXHXHXHXHXHXHXHXHXHXHXHXHXHXHXHXHXHXHXHXHXHXHXHXHXHXHXHXHXHXHXHXHXHXHXHXHXHXHXHX",
"HXHXHXHXHXHXHXHXHXHXHXHXHXHXHXHXHXHXHXHXHXHXHXHXHXHXHXHXHXHXHXHXHXHXHXHXHXHXHXHXHXHXHXHXHXHXHXHXHXHXHXHXHXHXHXHXHXHXHXHXHXHXHXHXHXHXHXHXHXHXHXHXHXHXHXHXHXHXHXHX",
"HXHXHXHXHXHXHXHXHXHXHXHXHXHXHXHXHXHXHXHXHXHXHXHXHXHXHXHXHXHXHXHXHXHXHXHXHXHXHXHXHXHXHXHXHXHXHXHXHXHXHXHXHXHXHXHXHXHXHXHXHXHXHXHXHXHXHXHXHXHXHXHXHXHXHXHXHXHXHXHX",
"HXHXHXHXHXHXHXHXHXHXHXHXHXHXHXHXHXHXHXHXHXHXHXHXHXHXHXHXHXHXHXHXHXHXHXHXHXHXHXHXHXHXHXHXHXHXHXHXHXHXHXHXHXHXHXHXHXHXHXHXHXHXHXHXHXHXHXHXHXHXHXHXHXHXHXHXHXHXHXHX",
"HXHXHXHXHXHXHXHXHXHXHXHXHXHXHXHXHXHXHXHXHXHXHXHXHXHXHXHXHXHXHXHXHXHXHXHXHXHXHXHXHXHXHXHXHXHXHXHXHXHXHXHXHXHXHXHXHXHXHXHXHXHXHXHXHXHXHXHXHXHXHXHXHXHXHXHXHXHXHXHX",
"HXHXHXHXHXHXHXHXHXHXHXHXHXHXHXHXHXHXHXHXHXHXHXHXHXHXHXHXHXHXHXHXHXHXHXHXHXHXHXHXHXHXHXHXHXHXHXHXHXHXHXHXHXHXHXHXHXHXHXHXHXHXHXHXHXHXHXHXHXHXHXHXHXHXHXHXHXHXHXHX",
"HXHXHXHXHXHXHXHXHXHXHXHXHXHXHXHXHXHXHXHXHXHXHXHXHXHXHXHXHXHXHXHXHXHXHXHXHXHXHXHXHXHXHXHXHXHXHXHXHXHXHXHXHXHXHXHXHXHXHXHXHXHXHXHXHXHXHXHXHXHXHXHXHXHXHXHXHXHXHXHX",
"HXHXHXHXHXHXHXHXHXHXHXHXHXHXHXHXHXHXHXHXHXHXHXHXHXHXHXHXHXHXHXHXHXHXHXHXHXHXHXHXHXHXHXHXHXHXHXHXHXHXHXHXHXHXHXHXHXHXHXHXHXHXHXHXHXHXHXHXHXHXHXHXHXHXHXHXHXHXHXHX",
"HXHXHXHXHXHXHXHXHXHXHXHXHXHXHXHXHXHXHXHXHXHXHXHXHXHXHXHXHXHXHXHXHXHXHXHXHXHXHXHXHXHXHXHXHXHXHXHXHXHXHXHXHXHXHXHXHXHXHXHXHXHXHXHXHXHXHXHXHXHXHXHXHXHXHXHXHXHXHXHX",
"HXHXHXHXHXHXHXHXHXHXHXHXHXHXHXHXHXHXHXHXHXHXHXHXHXHXHXHXHXHXHXHXHXHXHXHXHXHXHXHXHXHXHXHXHXHXHXHXHXHXHXHXHXHXHXHXHXHXHXHXHXHXHXHXHXHXHXHXHXHXHXHXHXHXHXHXHXHXHXHX",
"HXHXHXHXHXHXHXHXHXHXHXHXHXHXHXHXHXHXHXHXHXHXHXHXHXHXHXHXHXHXHXHXHXHXHXHXHXHXHXHXHXHXHXHXHXHXHXHXHXHXHXHXHXHXHXHXHXHXHXHXHXHXHXHXHXHXHXHXHXHXHXHXHXHXHXHXHXHXHXHX",
"HXHXHXHXHXHXHXHXHXHXHXHXHXHXHXHXHXHXHXHXHXHXHXHXHXHXHXHXHXHXHXHXHXHXHXHXHX{.{.{.HXHXHXHXHXHXHXHXHXHXHXHXHXHXHXHXHXHXHXHXHXHXHXHXHXHXHXHXHXHXHXHXHXHXHXHXHXHXHXHX",
"HXHXHXHXHXHXHXHXHXHXHXHXHXHXHXHXHXHXHXHXHXHXHXHXHXHXHXHXHXHXHXHXHXE.E._ ~. X$X X'.Q.#.l HXHXHXHXHXHXHXHXHXHXHXHXHXHXHXHXHXHXHXHXHXHXHXHXHXHXHXHXHXHXHXHXHXHXHXHX",
"HXHXHXHXHXHXHXHXHXHXHXHXHXHXHXHXHXHXHXHXHXHXHXHXHXHXHXHXHXHXHX! {.&XuXdXdXfXhXjXeX9XiX X( HXHXHXHXHXHXHXHXHXHXHXHXHXHXHXHXHXHXHXHXHXHXHXHXHXHXHXHXHXHXHXHXHXHXHX",
"HXHXHXHXHXHXHXHXHXHXHXHXHXHXHXHXHXHXHXHXHXHXHXHXHXHXHXHXHXHX^ *XiXhXaXrXrXaX7XaX<X4XfXjX9XQ.HXHXHXHXHXHXHXHXHXHXHXHXHXHXHXHXHXHXHXHXHXHXHXHXHXHXHXHXHXHXHXHXHXHX",
"HXHXHXHXHXHXHXHXHXHXHXHXHXHXHXHXHXHXHXHXHXHXHXHXHXHXHXHXHX' *XiXdXaXqXaXqXaXqXqX2X4XwXsXsX6X! HXHXHXHXHXHXHXHXHXHXHXHXHXHXHXHXHXHXHXHXHXHXHXHXHXHXHXHXHXHXHXHXHX",
"HXHXHXHXHXHXHXHXHXHXHXHXHXHXHXHXHXHXHXHXHXHXHXHXHXHXHXHX~ #XkXdXaXsXwXaXwXqXqXqXqXqXqXdXsXrX#XHXHXHXHXHXHXHXHXHXHXHXHXHXHXHXHXHXHXHXHXHXHXHXHXHXHXHXHXHXHXHXHXHX",
"HXHXHXHXHXHXHXHXHXHXHXHXHXHXHXHXHXHXHXHXHXHXHXHXHXHXHXHXz.tXdXdXfXdXaXaXaXqXqXqXdXqXaXtXsXhX#XHXHXHXHXHXHXHXHXHXHXHXHXHXHXHXHXHXHXHXHXHXHXHXHXHXHXHXHXHXHXHXHXHX",
"HXHXHXHXHXHXHXHXHXHXHXHXHXHXHXHXHXHXHXHXHXHXHXHXHXHXHXHX_.,X`..X1XqXdXdXwXqXwXfXaX2X>X;X>X5X5X/ HXHXHXHXHXHXHXHXHXHXHXHXHXHXHXHXHXHXHXHXHXHXHXHXHXHXHXHXHXHXHXHX",
"HXHXHXHXHXHXHXHXHXHXHXHXHXHXHXHXHXHXHXHXHXHXHXHXHXHXHXW ].n.6.r.u.m.H.;X7XwXdX<XT.S.N.m.B.8.[.W.HXHXHXHXHXHXHXHXHXHXHXHXHXHXHXHXHXHXHXHXHXHXHXHXHXHXHXHXHXHXHXHX",
"HXHXHXHXHXHXHXHXHXHXHXHXHXHXHXHXHXHXHXHXHXHXHXHXHXHXHX}.@Xs 7.M.p.B.M.q._.gX:Xw.a.m.N.M.B.t b.[.HXHXHXHXHXHXHXHXHXHXHXHXHXHXHXHXHXHXHXHXHXHXHXHXHXHXHXHXHXHXHXHX",
"HXHXHXHXHXHXHXHXHXHXHXHXHXHXHXHXHXHXHXHXHXHXHXHXHXHX/ 6X8Xb.d f a s s r s :Xb.r d u u u 6.l.[.0X#.HXHXHXHXHXHXHXHXHXHXHXHXHXHXHXHXHXHXHXHXHXHXHXHXHXHXHXHXHXHXHX",
"HXHXHXHXHXHXHXHXHXHXHXHXHXHXHXHXHXHXHXHXHXHXHXHXHX/ ! %XuX;Xx.r 2 2 2 r s b.l.r 2 2 2 J F.5XCX].` j HXHXHXHXHXHXHXHXHXHXHXHXHXHXHXHXHXHXHXHXHXHXHXHXHXHXHXHXHXHX",
"HXHXHXHXHXHXHXHXHXHXHXHXHXHXHXHXHXHXHXHXHXHXHXHXI $X$XE.5X8X`.n.s l.Z.[._.]._._._.b.s q.F.5XCXW.'.}.h HXHXHXHXHXHXHXHXHXHXHXHXHXHXHXHXHXHXHXHXHXHXHXHXHXHXHXHXHX",
"HXHXHXHXHXHXHXHXHXHXHXHXHXHXHXHXHXHXHXHXHXHXHX  P &X&Xy V.,X[.).).F.6XtXiXNXkXhXuX:XV.F._.6X).z %XMX`   HXHXHXHXHXHXHXHXHXHXHXHXHXHXHXHXHXHXHXHXHXHXHXHXHXHXHXHX",
"HXHXHXHXHXHXHXHXHXHXHXHXHXHXHXHXHXHXHXHXHX; ; D o ! /.d K x.8X].~ b.+X:XtXtXtX8X:X[.l.b.[.b.i p /.}.q @ 1 < HXHXHXHXHXHXHXHXHXHXHXHXHXHXHXHXHXHXHXHXHXHXHXHXHXHX",
"HXHXHXHXHXHXHXHXHXHXHXHXHXHXHXHXHXHXHX> $ * L Z A # 9 u N.7.9.i f 8.t.6.x.S.A.q.d q.f i p 7.M.J p 7 # S V $ 1 D HXHXHXHXHXHXHXHXHXHXHXHXHXHXHXHXHXHXHXHXHXHXHXHX",
"HXHXHXHXHXHXHXHXHXHXHXHXHXHXHXHXHXHXh $ N C Z Z Z F 5 e.N.B.f 8.N.N.m.i.i.0.0.0.B.M.M.l.7.7.m.M.2 7 F v m n > > ; k HXHXHXHXHXHXHXHXHXHXHXHXHXHXHXHXHXHXHXHXHXHX",
"HXHXHXHXHXHXHXHXHXHXHXHXHXHXHXHXj /.&X! # A C C Z = 6 u.u.8.g.R.N.N.i.i.t.r q.a.m.N.N.I.d.8.8.N.f O A b m V L h % : [ HXHXHXHXHXHXHXHXHXHXHXHXHXHXHXHXHXHXHXHXHX",
"HXHXHXHXHXHXHXHXHXHXHXHXHXHX: !.0XiXiX6Xj - C B Z = y m.8.u.I.g.B.7.u y t 6.u y i 7.w.g.R.N.6.m.q.O b b M V A - / *X&X[ h HXHXHXHXHXHXHXHXHXHXHXHXHXHXHXHXHXHXHX",
"HXHXHXHXHXHXHXHXHXHXHXHXHXj $XpXdXgXeXeX:Xw # N Z @ p x.7.B.0.6.t t t q.r.i.0.t.t t t u w.F.n.7.0.4 @ m m Z o [ 0XiXyXpX!.k HXHXHXHXHXHXHXHXHXHXHXHXHXHXHXHXHXHX",
"HXHXHXHXHXHXHXHXHXHXHXHXh =XiXaX4XsXeXgX9X#X# = A + H q.d a t 7.8.B.f.y.f.f.f.P.s.u.e.a r 7.7.a w.5 @ B C @ L pXiXyX3X3XpX!.h HXHXHXHXHXHXHXHXHXHXHXHXHXHXHXHXHX",
"HXHXHXHXHXHXHXHXHXHXHXHX~.hXfXaXwXaXwXaXdXuXv.O F + d 7.r i e.M.f.f.L.L.P.P.P.P.I.f.N.N.8.t 2 r J O & C A F #XyXyX4XyX3XtX0X#.HXHXHXHXHXHXHXHXHXHXHXHXHXHXHXHXHX",
"HXHXHXHXHXHXHXHXHXHXHX3 ].jXsX4XaXaXaXaXaXgX%Xq = o d e.f w.N.f.L.K.K.L.K.P.P.P.P.I.I.P.I.p.8.7.q.O & B + [ 3XrXfX4X4XyXrXuX!.j HXHXHXHXHXHXHXHXHXHXHXHXHXHXHXHX",
"HXHXHXHXHXHXHXHXHXHXHX3 ].hXaX2XaXaXaXdXaXjX6X0 * o 6 w.u.d.I.J.K.K.K.K.P.K.P.K.P.I.P.I.I.I.d.m.u O * N % #X4XsX4XaXsX4XwX9X XO.HXHXHXHXHXHXHXHXHXHXHXHXHXHXHXHX",
"HXHXHXHXHXHXHXHXHXHXHX3 ].fX4X2XaXwXaXaXdXgX%X- * @ 5 e.f.I.s.J.J.J.L.K.K.K.P.K.K.K.K.K.K.K.f.B.i + * # w 6XaXsXfX4XsX4XwXwX Xl HXHXHXHXHXHXHXHXHXHXHXHXHXHXHXHX",
"HXHXHXHXHXHXHXHXHXHXHXz ).<XaXrXrXqXaXdXaXuX~.O N @ + y g.y.s.s.s.s.J.J.J.K.K.K.K.K.K.K.K.K.i.d 3 $ & # z 8X2XsXfX4X4XsXsXwX[.x HXHXHXHXHXHXHXHXHXHXHXHXHXHXHXHX",
"HXHXHXHXHXHXHXHXHXHXHXHXl..XrXrXrXaXaXrXfX,XU & B v @ 7 q.0.d.s.L.y.J.J.J.J.J.K.K.K.K.K.y.g.K 6 + & v b w 6XsXaXfX4XsXsXsX.XW.O.HXHXHXHXHXHXHXHXHXHXHXHXHXHXHXHX",
"HXHXHXHXHXHXHXHXHXHXHXHX3 x.<XdXaXqX7XqX<XZ.7 N m M @ @ 5 u u.f.s.y.y.J.J.J.K.K.K.I.P.N.a.t.5 + # = m m 7 Z.<X7XrXaXsX4X>X[.c HXHXHXHXHXHXHXHXHXHXHXHXHXHXHXHXHX",
"HXHXHXHXHXHXHXHXHXHXHXj ~ H.;X7XaXdXaX>XH.y 7 A M M M n # 5 u 0.g.y.y.y.y.L.s.K.K.I.d.w.q.6 + @ # B S B - ~ ;X<XrX4XaX2X.XF.9.x HXHXHXHXHXHXHXHXHXHXHXHXHXHXHXHX",
"HXHXHXHXHXHXHXHXHXHXHXz [.`.,XrXrXaXrX<X;XV.o Z m m M V n @ 5 6 6.8.0.u.a.p.p.p.g.0.e.y 5 X @ @ m S m m - C.>X7X7XaXaX4X1XT.[.z HXHXHXHXHXHXHXHXHXHXHXHXHXHXHXHX",
"HXHXHXHXHXHXHXHXHXHXHXc.;X:XrXrXaXaXaXfXfX@X7 N C M m C n v @ + 5 r i d J J J J r 6 5 + + o v M m m m v % 5XfXaXfXdXaXsX2XT._.v.W HXHXHXHXHXHXHXHXHXHXHXHXHXHXHX",
"HXHXHXHXHXHXHXHXHXHXx c.G.,XdXaXaXaXaXfXfX,XP & V M B M B M n = + X O O 5 O 5 O + o o @ @ n v M m m m # q pXfXdXdXaXaXsX4X;XA.#Xh HXHXHXHXHXHXHXHXHXHXHXHXHXHXHX",
"HXHXHXHXHXHXHXHXHXHX` Z.M.+XdX7XdXrXaXfXfX6Xj o - A V V V N B B = - - $ $ o & - = = b = m m M M M B # 5 ~ 8X8X8XtX7X4XyXfX1Xt.H.p HXHXHXHXHXHXHXHXHXHXHXHXHXHXHX",
"HXHXHXHXHXHXHXHXHXHX` _.r.`.uXyXrXrX7X<X<X@XP X 9 % & - = A = - > V # # F L 7 # A b A = @ b v v V - % O s :XpXtXpXuXuXdXtX,Xq.H.~ HXHXHXHXHXHXHXHXHXHXHXHXHXHXHX",
"HXHXHXHXHXHXHXHXHXHXv.).t.#XiX&X(.C.C.] ` ' ^ ^ 7 5 5 5 q 8 w q 9 O ` &XMXpX=X^.F 7 H K G G 8 G 8 9 4 } O./ _ #.!.~.~.$XiX@XJ H.v.HXHXHXHXHXHXHXHXHXHXHXHXHXHXHX",
"HXHXHXHXHXHXHXHXHXHXQ.Z.z.v.` ` ..E W ..E k k h ~ V.k.k.D.D.D.G.A.c.$X^.*XFX0X/.[ h.XXXXU.U.j.j.T.`.l.!.} g } %.O.O.O.O.` W.K ).c.HXHXHXHXHXHXHXHXHXHXHXHXHXHXHX",
"HXHXHXHXHXHXHXHXHXHXx E.W.9 -.=..., | Y D , Y g e x.T.T.XXXXXXoXS.x.~   q -Xj X K r.Y.XXY.XXXXXXS.b.~ g { { { k o.{  .<.%.w d [.z HXHXHXHXHXHXHXHXHXHXHXHXHXHXHX",
"HXHXHXHXHXHXHXHXHXHXHX%.} <.$.{ $.3.3.4.4.4.<.O.O ! s N.D.D.j.D.S.d !.` ) ^.( ^ H t.S.Y.Y.j.k.t.7.~.#.k <.>.1.1.zXlX:.{ <.%.e  Xj HXHXHXHXHXHXHXHXHXHXHXHXHXHXHX",
"HXHXHXHXHXHXHXHXHXHXHXg O.<. .,.vXbXvX3.4...T j X ^.(.p Z.V.V.A.q.z.NXMX$X$X*X=X(.J F.F.V.k.h.H 5X0Xx g $.,.1.2.lXbXbXzXo.>.} } <.HXHXHXHXHXHXHXHXHXHXHXHXHXHXHX",
"HXHXHXHXHXHXHXHXHXHXHX. O. .{ cXvXvXcX=.L h ~.'./.O.{.I 8 w 8 8 5 8 +.*XNXFXMX#.^ l w p y 8 9 ! 0X#.c v.^ l  .,.lXbXbXvX:.{ >.g HXHXHXHXHXHXHXHXHXHXHXHXHXHXHXHX",
"HXHXHXHXHXHXHXHXHXHXHX. { , o.xXcXlX=.h ^ &XgXjXNX$Xx h P P P P I P 0 ' #.^.*.P j E ^ ^ R Q W ^ z.).uXNX9X'.x ..,.zXcXcX1.< < g HXHXHXHXHXHXHXHXHXHXHXHXHXHXHXHX",
"HXHXHXHXHXHXHXHXHXHXHXHX: | 5.2.zX1. .w $XiXdXjXgX%X0 P *.-.-.+.&.-.&.+.@.&.) @.-.-.%.%.=.=.&.R e :XgXdXwXgX].g { 1.zX3.2., < < HXHXHXHXHXHXHXHXHXHXHXHXHXHXHXHX",
"HXHXHXHXHXHXHXHXHXHXHXHX, | ,.2.2.X.h ] pX,X`.:X].~ j ;.*.-.-.&.+.+.-.+.@.@.@.@.E j l W &.=.=.+.w W.@X:XG.:XuX` g $.1.zX3.o.; HXHXHXHXHXHXHXHXHXHXHXHXHXHXHXHXHX",
"HXHXHXHXHXHXHXHXHXHXHXHXHX; o.5.$.| q &XyX7X`.c.~ 0 &.;.*.-.-.) Y k k : . . > @.Y % Y &.=.=.=.-.@.e z ~ b.<XdX:Xp T X.,.,., < HXHXHXHXHXHXHXHXHXHXHXHXHXHXHXHXHX",
"HXHXHXHXHXHXHXHXHXHXHXHXHXHX, X.$.h ` pXyXyXdX:X/ 0 ;.[ ) &.+.O. .k : HXHXHXHXHXHXHX> ..=.W W ;.&.q v.5X9XdXfXtXv.9 ..X.o.1 HXHXHXHXHXHXHXHXHXHXHXHXHXHXHXHXHXHX",
"HXHXHXHXHXHXHXHXHXHXHXHXHXHX, | :.g [.3X+X:X,X_.p q ) Q U P P Y h : HXHXHXHXHXHXHXHXHX: Y Y Y Y U 7 z..X:X:XG.7X_.w ..X.< HXHXHXHXHXHXHXHXHXHXHXHXHXHXHXHXHXHXHX",
"HXHXHXHXHXHXHXHXHXHXHXHXHXHXHX< { l '.<X+Xn.J H 4 h q q w q - % k HXHXHXHXHXHXHXHXHXHXHX> , Y h h % e c.x.r.G.yX@Xj o., HXHXHXHXHXHXHXHXHXHXHXHXHXHXHXHXHXHXHXHX",
"HXHXHXHXHXHXHXHXHXHXHXHXHXHXHXHX% g / :X<XG.J 8 / ) ) ' ) &.j % HXHXHXHXHXHXHXHXHXHXHXHX< ; E R W ) Q.d x.+X<X,X~.w , ; HXHXHXHXHXHXHXHXHXHXHXHXHXHXHXHXHXHXHXHX",
"HXHXHXHXHXHXHXHXHXHXHXHXHXHXHXHXHXg j z _ v.H ! /././.^.^.-.E > HXHXHXHXHXHXHXHXHXHXHXHX, , &.*.^.^.^._ ! C.~.] U P HXHXHXHXHXHXHXHXHXHXHXHXHXHXHXHXHXHXHXHXHXHX",
"HXHXHXHXHXHXHXHXHXHXHXHXHXHXHXHXHXHXHXHX@.: 9 w j U ( ( ! P h E HXHXHXHXHXHXHXHXHXHXHXHXHX: 0 F F U Q ! q X R -.HXHXHXHXHXHXHXHXHXHXHXHXHXHXHXHXHXHXHXHXHXHXHXHX",
"HXHXHXHXHXHXHXHXHXHXHXHXHXHXHXHXHXHXHXHXHXHX^ g h j ( ( ) R P HXHXHXHXHXHXHXHXHXHXHXHXHXHXY h ) Q I ! Q w P HXHXHXHXHXHXHXHXHXHXHXHXHXHXHXHXHXHXHXHXHXHXHXHXHXHX",
"HXHXHXHXHXHXHXHXHXHXHXHXHXHXHXHXHXHXHXHXHXk *.^././.^.^.^.R P HXHXHXHXHXHXHXHXHXHXHXHXHXHXL Q ^.^.OXOXOX/.^.@.HXHXHXHXHXHXHXHXHXHXHXHXHXHXHXHXHXHXHXHXHXHXHXHXHX",
"HXHXHXHXHXHXHXHXHXHXHXHXHXHXHXHXHXHXHXHX, W *.*.!.] *.] ^ - +.ZXSXSXSXSXSXZXZXZXZXZXZXAXZXW L [ *.] *.*.*.*.@.: HXHXHXHXHXHXHXHXHXHXHXHXHXHXHXHXHXHXHXHXHXHXHXHX",
"HXHXHXHXHXHXHXHXHXHXHXHXHXHXHXHXHXHXGXnX=. .E ^ R T I R ) -.mXAXAXDXDXSXDXZXZXZXSXSXSXDXDX=XR W ) ) +.+.@.@.O...vXZXnXHXHXHXHXHXHXHXHXHXHXHXHXHXHXHXHXHXHXHXHXHX",
"HXHXHXHXHXHXHXHXHXHXHXHXHXHXHXHXHXHXHXHXHXnXHXHXHXHXHXHXBXVXAXAXAXAXZXZXZXZXZXZXZXZXZXDXZXZXBXBXBXBXBXBXHXHXHXHXHXHXHXHXHXHXHXHXHXHXHXHXHXHXHXHXHXHXHXHXHXHXHXHX",
"HXHXHXHXHXHXHXHXHXHXHXHXHXHXHXHXHXHXHXHXHXHXHXHXHXHXHXHXHXHXHXHXHXHXHXHXHXHXHXHXHXHXDXGXHXHXHXHXHXHXHXHXHXHXHXHXHXHXHXHXHXHXHXHXHXHXHXHXHXHXHXHXHXHXHXHXHXHXHXHX",
"HXHXHXHXHXHXHXHXHXHXHXHXHXHXHXHXHXHXHXHXHXHXHXHXHXHXHXHXHXHXHXHXHXHXHXHXHXHXHXHXHXHXHXHXHXHXHXHXHXHXHXHXHXHXHXHXHXHXHXHXHXHXHXHXHXHXHXHXHXHXHXHXHXHXHXHXHXHXHXHX",
"HXHXHXHXHXHXHXHXHXHXHXHXHXHXHXHXHXHXHXHXHXHXHXHXHXHXHXHXHXHXHXHXHXHXHXHXHXHXHXHXHXHXHXHXHXHXHXHXHXHXHXHXHXHXHXHXHXHXHXHXHXHXHXHXHXHXHXHXHXHXHXHXHXHXHXHXHXHXHXHX",
"HXHXHXHXHXHXHXHXHXHXHXHXHXHXHXHXHXHXHXHXHXHXHXHXHXHXHXHXHXHXHXHXHXHXHXHXHXHXHXHXHXHXHXHXHXHXHXHXHXHXHXHXHXHXHXHXHXHXHXHXHXHXHXHXHXHXHXHXHXHXHXHXHXHXHXHXHXHXHXHX",
"HXHXHXHXHXHXHXHXHXHXHXHXHXHXHXHXHXHXHXHXHXHXHXHXHXHXHXHXHXHXHXHXHXHXHXHXHXHXHXHXHXHXHXHXHXHXHXHXHXHXHXHXHXHXHXHXHXHXHXHXHXHXHXHXHXHXHXHXHXHXHXHXHXHXHXHXHXHXHXHX",
"HXHXHXHXHXHXHXHXHXHXHXHXHXHXHXHXHXHXHXHXHXHXHXHXHXHXHXHXHXHXHXHXHXHXHXHXHXHXHXHXHXHXHXHXHXHXHXHXHXHXHXHXHXHXHXHXHXHXHXHXHXHXHXHXHXHXHXHXHXHXHXHXHXHXHXHXHXHXHXHX",
"HXHXHXHXHXHXHXHXHXHXHXHXHXHXHXHXHXHXHXHXHXHXHXHXHXHXHXHXHXHXHXHXHXHXHXHXHXHXHXHXHXHXHXHXHXHXHXHXHXHXHXHXHXHXHXHXHXHXHXHXHXHXHXHXHXHXHXHXHXHXHXHXHXHXHXHXHXHXHXHX",
"HXHXHXHXHXHXHXHXHXHXHXHXHXHXHXHXHXHXHXHXHXHXHXHXHXHXHXHXHXHXHXHXHXHXHXHXHXHXHXHXHXHXHXHXHXHXHXHXHXHXHXHXHXHXHXHXHXHXHXHXHXHXHXHXHXHXHXHXHXHXHXHXHXHXHXHXHXHXHXHX",
"HXHXHXHXHXHXHXHXHXHXHXHXHXHXHXHXHXHXHXHXHXHXHXHXHXHXHXHXHXHXHXHXHXHXHXHXHXHXHXHXHXHXHXHXHXHXHXHXHXHXHXHXHXHXHXHXHXHXHXHXHXHXHXHXHXHXHXHXHXHXHXHXHXHXHXHXHXHXHXHX",
"HXHXHXHXHXHXHXHXHXHXHXHXHXHXHXHXHXHXHXHXHXHXHXHXHXHXHXHXHXHXHXHXHXHXHXHXHXHXHXHXHXHXHXHXHXHXHXHXHXHXHXHXHXHXHXHXHXHXHXHXHXHXHXHXHXHXHXHXHXHXHXHXHXHXHXHXHXHXHXHX"
};
