/* XPM */
static char *Cartoon_colored_stone_Wall_texture__seamless_background1694643220[] = {
/* columns rows colors chars-per-pixel */
"10 10 100 2 ",
"   c #62473E",
".  c #5A4B46",
"X  c #5F4F50",
"o  c #5E5254",
"O  c #624740",
"+  c #614945",
"@  c #674A46",
"#  c #6F4F40",
"$  c #6F4D43",
"%  c #6B4F44",
"&  c #6D4C47",
"*  c #644C48",
"=  c #674F4B",
"-  c #6A4E4B",
";  c #6C4D48",
":  c #6F4D4E",
">  c #704F48",
",  c #764C4D",
"<  c #6F5242",
"1  c #645049",
"2  c #67534A",
"3  c #63514F",
"4  c #65524C",
"5  c #6C504C",
"6  c #6C504F",
"7  c #6E524F",
"8  c #6F534F",
"9  c #725047",
"0  c #735148",
"q  c #77554B",
"w  c #71564F",
"e  c #74574F",
"r  c #7F544D",
"t  c #7D574E",
"y  c #794F51",
"u  c #635354",
"i  c #6B5152",
"p  c #6D5650",
"a  c #6B5854",
"s  c #6D5A54",
"d  c #715450",
"f  c #735754",
"g  c #755850",
"h  c #765D56",
"j  c #7A5952",
"k  c #7C5953",
"l  c #745A59",
"z  c #7C5A59",
"x  c #76615E",
"c  c #7E665C",
"v  c #746663",
"b  c #7A6763",
"n  c #80564A",
"m  c #805B4B",
"M  c #805A4D",
"N  c #805F4E",
"B  c #815C53",
"V  c #805E52",
"C  c #815F53",
"Z  c #855F56",
"A  c #805D59",
"S  c #826056",
"D  c #8B6057",
"F  c #83625B",
"G  c #83645F",
"H  c #82675E",
"J  c #85675F",
"K  c #8B6759",
"L  c #89605E",
"P  c #8E635C",
"I  c #886A5F",
"U  c #8E6D5C",
"Y  c #936F5F",
"T  c #866762",
"R  c #8C6462",
"E  c #826962",
"W  c #866860",
"Q  c #8D6D62",
"!  c #8F6A64",
"~  c #8A6D67",
"^  c #8D6A68",
"/  c #976B62",
"(  c #956F62",
")  c #916967",
"_  c #926D64",
"`  c #966F6A",
"'  c #86736F",
"]  c #8D706C",
"[  c #967264",
"{  c #9C7065",
"}  c #91726D",
"|  c #96756C",
" . c #9B706A",
".. c #937670",
"X. c #9C7A71",
"o. c #997E75",
"O. c #9E7F7A",
"+. c #A67B72",
"@. c #AD847E",
"#. c #AE857F",
/* pixels */
"< C #.R i a v ' 0 y ",
"  C  . .w 4 . b z , ",
"N [ n #.O.p s = ^ L ",
"Y m / P j   2 E z ) ",
"Y m { Z $ % c H j ) ",
"K { n +._ I o.  & & ",
"Z q t Z C Q g w 8 5 ",
"W & > 9 X.| e h = x ",
"i g @ } F G ~ + 3 X ",
"i l - ..T W ] * u o "
};
