/* XPM */
static char *_41a2340e4944670c71978a810cb6b1awGojfWqH8hSd3Y7g[] = {
/* columns rows colors chars-per-pixel */
"80 80 171 2 ",
"   c #232534",
".  c #292735",
"X  c #252B36",
"o  c #2B2B36",
"O  c #252C3A",
"+  c #2C2D3A",
"@  c #312E3A",
"#  c #2D3037",
"$  c #26313F",
"%  c #2C323D",
"&  c #32333D",
"*  c #38353C",
"=  c #35383F",
"-  c #272F40",
";  c #273342",
":  c #2D3543",
">  c #2E3945",
",  c #2E3648",
"<  c #2E3B4A",
"1  c #323543",
"2  c #393744",
"3  c #333A45",
"4  c #3A3A45",
"5  c #323649",
"6  c #343C4B",
"7  c #3A3D4A",
"8  c #363F51",
"9  c #3A3E52",
"0  c #403D46",
"q  c #403E4C",
"w  c #2F434E",
"e  c #374047",
"r  c #35424D",
"t  c #3B424D",
"y  c #35484F",
"u  c #354352",
"i  c #3C4453",
"p  c #364953",
"a  c #3D4A55",
"s  c #3D4659",
"d  c #374858",
"f  c #3E4B5B",
"g  c #3E515A",
"h  c #3E4D61",
"j  c #3F5063",
"k  c #41434D",
"l  c #41484E",
"z  c #424553",
"x  c #484654",
"c  c #434A55",
"v  c #494B56",
"b  c #414659",
"n  c #434C5C",
"m  c #494E5C",
"M  c #504F5D",
"N  c #45515D",
"B  c #4A525D",
"V  c #45585F",
"C  c #51525D",
"Z  c #54595D",
"A  c #444E61",
"S  c #494E61",
"D  c #465565",
"F  c #455263",
"G  c #495060",
"H  c #485160",
"J  c #495261",
"K  c #485162",
"L  c #4B5262",
"P  c #4A5362",
"I  c #4F5261",
"U  c #495563",
"Y  c #4B5463",
"T  c #495762",
"R  c #485663",
"E  c #4D5562",
"W  c #4D5763",
"Q  c #485365",
"!  c #4B5264",
"~  c #4A5364",
"^  c #485464",
"/  c #485565",
"(  c #4B5465",
")  c #495764",
"_  c #4A5664",
"`  c #4B5765",
"'  c #485566",
"]  c #495666",
"[  c #4A5666",
"{  c #4A5767",
"}  c #4B5767",
"|  c #4D5464",
" . c #4C5564",
".. c #4E5766",
"X. c #4A5464",
"o. c #465964",
"O. c #4B5861",
"+. c #485867",
"@. c #4F5867",
"#. c #4E5C65",
"$. c #4C5966",
"%. c #455469",
"&. c #4E5768",
"*. c #4B5669",
"=. c #465A6B",
"-. c #495968",
";. c #495969",
":. c #4B5868",
">. c #4B5869",
",. c #49586B",
"<. c #4B5B6B",
"1. c #4C5868",
"2. c #4C5969",
"3. c #4D5969",
"4. c #4F5869",
"5. c #4D5B68",
"6. c #4E5A68",
"7. c #4F5B69",
"8. c #4D596A",
"9. c #4E5B6B",
"0. c #495A6C",
"q. c #4D5A6D",
"w. c #4E5B6C",
"e. c #4C5B6B",
"r. c #515664",
"t. c #525A67",
"y. c #525A66",
"u. c #505769",
"i. c #505669",
"p. c #505968",
"a. c #535B68",
"s. c #525B6A",
"d. c #555B69",
"f. c #505C6A",
"g. c #505E6B",
"h. c #565C6A",
"j. c #505B6F",
"k. c #505D6D",
"l. c #545D6E",
"z. c #525C6C",
"x. c #595D6B",
"c. c #465771",
"v. c #4D5D71",
"b. c #525E71",
"n. c #585F72",
"m. c #4D616D",
"M. c #536069",
"N. c #53616A",
"B. c #55616F",
"V. c #54626F",
"C. c #53616D",
"Z. c #5B616F",
"A. c #5A626F",
"S. c #59626F",
"D. c #476170",
"F. c #4E6171",
"G. c #576071",
"H. c #566373",
"J. c #536272",
"K. c #586075",
"L. c #5B6376",
"P. c #5C6477",
"I. c #596573",
"U. c #5C6974",
"Y. c #546378",
"T. c #586578",
"R. c #5C6578",
"E. c #5D687A",
"W. c #5D687C",
"Q. c #5B6A7A",
"!. c #626D7C",
/* pixels */
"> a F F F { { F { F A h A A h f d n n K $.i > { k.{ F F F >.D u d 2.{ n 2.D n q.F { n B L 7 1 c n B N N O.N.N.#.c t 3 3 t v C B s.k.2.{ t.S.S.h.d.c : ; 6 i s i ",
"> a R R n n D 2.F A h h h h h f n K n K s.i , n { F { F F D D d < A &.{ 2.F n { F { N B B 7 + 4 i a c N N B N a r r e 3 1 3 7 t n { V.V.s.W n c 5 6 i ! G.R.L.s.",
"6 u f N n f n D F F F F F A A f K ..K R $.p < n n F { { F D D d : a $.2.{ F F D F { K B n 3 o % t t a n n a r r e p a 6 : o % : < d F { n 6 3 3 3 c i.n.I.E.W.T.",
"f r 6 f D F f f F F F F F F F n ! ..R K n i u { F F D { F +.D d 3 t n K N { 2.{ F F R K c 3 : 3 t r p a a r r r f O.2.N i 6 6 t < < > < > : 3 t c W l.2.{ >.q.>.",
"g.a 6 p n n n F A F F D D F F A K { K f 6 < d 2.{ F F D { 2.R r : 3 t c N 2.g.R F R $.F t 3 t c a p u u u u f N >.V.H.g.! K K ..n 6 $ O ; r n W t n { >.>.>.<.D ",
"V.F a p u 6 f 2.F D >.2.2.{ D F A n s 6 : : u n F n F { { w.F 6 : 3 t v y.I.g.+.+.+.5.N 6 6 n R $.F f u d F >.w.>.5.2.{ { ..&...2.n < $ > c t.S.N N { 5.F.F.F.<.",
"g.5.{ F d u d n n F 2.2.2.{ { { K i 6 6 u f f 8 i c F { $.2.N 6 t c l c a.N.$.+.F N F f < p #.g.V.w.f u d >.J.w.F D F A A F F A F { n : : i t.S.U.g.>.w.w.=.=.F.",
"C.V.H.H.k.F d u d n F { F A n n ..i , u K l.! 5 6 i R 2.$.$.n 3 c Z z t B B a B N a f u 6 N I.V.C.w.f < u D w.F D >.>.D F F F A f 2.R 6 $ r W V.g.F D F.J.=.+.D.",
"w.2.k.J.k.:.F F n r i i i n i n 6 8 i A b.n.s.! 6 6 K s.N N n 6 c v l e 6 t p r u u r < u N.U.+.C.>.f u u A >.2.w.F h F %.F h F n F K i : ; i g.$.o.+.<.m.m.<.D.",
"2.2.2.2.2.2.$.{ n i i i i i : 5 ; 8 S u.&.! K ! d 5 p N c i i 6 % 3 e 6 e r r < r r u < r { I.V.C.+.f u u n { >.F A A A A h A F f n ..K p : 6 n R F >.m.J.m.=.=.",
"w.w.2.F { 2.$.N i 6 i c n i % ; 8 A s.b...A A K n 5 3 i t 3 3 3 % 6 i z n F N f f f f f r f V.U.I.g.n u u f F { ! D D F h f h F D F $.$.a ; ; t R N { w.F.w.<.<.",
">.w.2.{ 2.J.2.n 6 6 n W W n 3 5 l.q.*.! ! ! A A m i 3 3 3 5 3 3 t c B O.5.J.J.w.<.>.w.>.d u R I.V.5.n u r i K &.! ! :.F h h h F 2.F N F i : > a g.W { >.<.<.<.v.",
"D 5.k.2.k.H.{ p i i t.x.d.m 3 3 R.b.! A A ! S n n m i 3 1 7 t i n N { 2.k.w.w.<.Y.F.H.H.n r a B n p r 3 6 i K l.n A A A F F %.F A f f N c 5 6 c h.$...2.q.q.q.v.",
"J.H.J.2.{ F p : c i W d.d.B 3 3 &.q.s.4.! ! K ! n r.n 3 3 z m B K { w.J.J.v.=.D Y.w.H.H.n 6 6 i 6 3 6 3 3 3 i n | ! ! F F +.%.j n n { $.n 6 : 3 c c n ..l.n.H.H.",
"Q.H.+.f u 6 < : c 6 t n r.B 3 : i h :.q...! ! ..n K t : 7 x m t.5.v.J.Y.Y.Y.v.v.v.w.H.H.F i t t i a v v t 1 5 5 S ! &.F F F F F { 2.2.R i 6 3 3 6 6 9 n ! &.n.T.",
"H.{ d 6 , > r n n 3 3 t B m %   ; , 8 f A K m m n z % X 3 t c d.H.w.<.<.v.v.Y.Y.Y.Y.Q.Q.D i i p n B h.V.W i 5 5 5 i n n f n ! >...s.K i 3 6 n K z 7 5 5 8 i A &.",
"9 5 5 8 b | l.i.i.L b 6 6 6 i i : % O O % 3 7 t 4 1 + 1 1 z t l.q.w.v.v.Y.Y.Y.Y.Y.Y.Y.Q.w.a r a F D +.>.2.{ f 6 ; O 6 r.r.q 4 v M z 3 : : n n.H.I.H.2.A f i 6 6 ",
"5 5 i n S i.i.S &.l.K i i K ....c i 7 3 1 & & & @ @ 2 k 1 z z l.k.w.v.v.b.Y.Y.Y.Y.v.J.H.5.a e r D +.+.D D >.D A 6 O + t x 2 @ & 2 & 1 7 i ! k.w.w.<.>.>.>.F i 6 ",
", 6 A s.i.....K { H.F u n k.k.k.s...B z 7 1 & + o @ x C 1 7 t L k.w.w.v.b.Y.H.Y.b.<.q.J.5.f r r F +.>.D D D >.>.n : X 1 2 @ o & @ . 1 c L 2.w.>.>.+.>.w.H.k.A i ",
"6 d ..k.{ F &.2.{ 2.d r F 5.{ 2.2.r...m c k k k & & m r.1 7 i m s.w.k.k.s.b.k.b.q.2.2.g.$.N p t N R +.+.{ { { F F i 6 6 1 o 2 v 4 @ 6 K s.2.>.>.<.>.:.>.b.b.s.&.",
"p a R g.+.F $.5.k.f < d w.>.F D F K K m v m B C 4 & k m & t z n ..$.$.2.&.{ ! F &.2.s.$.N a t t #.$.$.$.2.2.{ n K A n c 7 1 q M x 7 z r.k.2.<.<.v.<.=.>.:.2.k.H.",
"a t N 5.$.O.$.+.w.u < F w.D j F A n n n n m m C k & = 4 o 7 3 3 t p a n n m S m S K K n t e 6 6 y.y.t.$.$.k.2.{ A n n m m z 7 7 7 7 n l.k.>.<.+.=.<.<.<.:.{ 2.k.",
"c e t B #.$.$.+.F < u <.:.h F f A A n n n n c c t & % & % t % : : : 3 6 t i n n z z i 6 6 t t 6 z B W $.$.s.2.{ F n n m m z 6 + 5 7 S k.q.>.<.+.=.=.v.<.<.:.! ! ",
"B 6 3 z B t.h.$.n < A H.A f F d A A A A K m c z 4 = % 3 t y.z c 6 3 : : : 1 5 1 7 7 3 1 3 i i t % t m y.$...{ F { F A n b i 7 1 1 7 ! s.{ >.v.<.=.=.=.+.:.:.! A ",
"v v 7 1 z z 6 6 6 7 n | K b s A A h n A n c z t 1 % % l B B B v n z t 6 7 4 1 &   7 1 X 6 r.h.a.t 1 3 c ....F { F F n i i b i 3 1 6 K l.2.D >.=.v.v.<.+.:.{ K n ",
"k t 1 + 1 1 1 : 1 1 i S S n b A n f n n n c t 7 1 % 3 z B B N n n c i t k k 7 4 o 7 7 1 z W ....c 6 1 i n K F n { F n i i c i 3 5 6 m l.s.2.F.F.D +.>.{ ! ! S n ",
"k 1 + + & 4 7 % + + 5 b S S m n A A A A n c t 3 : 1 7 n B B n n n c z z z k 7 2 @ 4 7 t m r.L L c t 5 3 i A F n { F f i i c i 3 % 3 m l.k.2.w.w.D >.:.F n n n z ",
"q & & 4 k m m 7 1 : 5 i m L S S F D D { R B z 7 % 3 t n B n c n c c c z z t 4 1 + @ 2 n r.s.....n c t 5 6 s n n n n i i c n z 3 % 3 B S.l.2.2.D >.:.F A n n n z ",
"& 1 z m m r.x.m c 7 6 t n B L K F +.>.2.s.$.n t % 6 c n n i i f n n n n c z q 4 @ O 1 m i.&.! ! K K n d 6 6 d f f f c n m m t & & 3 c t.t.2.g.w.2.{ { { ..B c t ",
"O 7 W t.m m r.r.W n i t i n N N n D { +.$.t.n t % 6 c n n i d f f n n n m c x x 4 + 1 n ! K F A n F ! n u 6 s ! n n n n v l 4 % % + 3 t t n $.k.k.2.s.h.r.c 2 + ",
"3 n W W K B B $.t.B a e e r a a f j F F $.$.v 6 3 t n n n s f n d a c c c c x x x @ 1 i n A F f s n K F d 8 f 2.{ N n z t 4 2 = = # % 1 % 3 p n R R L B z 1 o . ",
"n { n n g.g.R R $.B c e > > e t a N N N R W c > 5 i n m n n n n n n n n z c c v v 1 1 9 i n ! n ! A K K i 5 i K ..B z 7 3 1 3 7 k 4 6 6 % % : : t t 7 7 % . + 4 ",
"N F R +.$.$.{ R n p d N n > > t B B #.t.$.n r < 5 n ..K n i c z z b n n n n n n n 6 ; 5 b K L B s.S n W m 6 3 t z 7 3 1 5 i K n n n n f d r 6 3 O % & % o o 3 t ",
"N F R { +.{ R R F n n R n i 5 r z v v z p t r 6 , f s...c t i c z b b n n n A A b 8 5 5 9 z z t i s L r.c & o = 3 & 3 6 i f F A A n n n f a i t 1 & @ @ = 3 t c ",
"F F F F F F F F K K R ..R n r 6 6 t e 3 6 i N R 6 f K N c i z c i s s b n n A A b s 9 : 5 7 z z n n n z 3 o # = & o 6 n N A F A A A F F F n n c 7 1 . o 4 c n n ",
"F N N F F F F F F R R R K n i 6 3 3 3 3 p R g.g.n f i i c n c z i b b n n n A A n A i : : z M m ..n i 3 3 7 l l 4 & t r.s.F A A A F F F N n c z v 4 o o 4 v B n ",
"F F F F F F { { F F K A F K n i 6 3 3 t N $.R n { f 6 6 i n n n b n n n n n A A A ! b 1 1 z v x 9 i i i n B C m c 4 t r.r.n n A A A A F N n n c C x 1 + 2 c B N ",
"F F F F D F F F F F A n F ! { K t 3 3 c g.g.N a F n i r 6 6 z B n n n n n A A A n ! n 5 1 4 q 2 6 i n n n m m B c 3 7 m L m m A n n n F N N N m C v 4 @ & t n N ",
"F F { { { F F n F n n A F K ..s.t % : v h.$.N n n n n a 6 5 6 i i a n n F F A A A | S 7 1 1 4 7 n n n n n c v B z 1 1 z m B m n n A N F N N B B v x 4 o O 3 c N ",
"{ { >.{ { F n n n n n F F n { l.c 1 % c W n f n n f f n i 6 : : p p n N F F F F ! &.S 9 1 1 x r.S i i n ..W B n t : 1 z m r.m i S S K N N N N n v v q @ + 7 n R ",
"{ { { :.:.D A n F A A n n A ! &.B t % 3 R $.n f n n n n n n 6 % 6 i y.t.R R n { i.&.z 1 1 v r.M K b i n B n v B t 6 3 3 z W r.L 9 n F n N n c B m m q + + 6 n N ",
"{ { { { { D F n n n n n A A ! ! r.z 3 6 K ..n f n n n n n n i 6 : 3 N B B R n A F n 6 + + z v v z n n B N n i t : 3 : 1 3 t t 7 6 b n n N n c n z 7 1 o % i N N ",
"{ { D D D F A n A A A A A A A n B i : 3 n K n n n A A n n A n i 3 % t t c n t i 6 6 : O + 1 1 1 7 n m z t 6 : X : 6 i t 6 6 6 5 6 9 i i a t t i k 7 & + 6 n F N ",
"{ F F F F A n f A A A A n n s i c t : : i F A F n A A n n n n z 7 & 6 6 t t : : : : : 5 6 : X   3 7 7 1 o o % % i n R K n n n i i i 6 6 6 : : 7 7 4 1 1 t B +.F ",
":.%.F F F A A f A n n b s s s s B c 3 3 i F A F A A A n n n n z k 3 3 6 6 t 5 t i i i n n t 5 % + o o o X % t B n R $.&.{ | K n S n i i t ; O 3 + & 1 1 t n { >.",
"q.:.F F F A A A A n n n n A A ! t.B 6 : d n n f A A n n n n n z t = 4 t x m n ..A n n F B n c z & o o & & 3 v S.K { { F F ! F n S m m B c %   % 1 4 q t i i n D ",
":.:.F A h A A f A A A A A ! ( ..r.n 3 : d F A n A A n b n n n z 7 & 7 x B y.W l.F F n n n B B n 0 4 * & = 4 c ..F { { F F F F A n n m R v % X 3 v m M m z i d f ",
"..K n f f f f f A A A A A n n n B c : : n s.l.s.n n s i n n n i t & 7 c r.d.K t.F F F n n F n c k k 2 o o 7 c N n F { F A F %.F K m N R n > > n L r.r.L n i a f ",
"7 z n z i n n f A n f n n n n m v l 6 3 t W ..n b K A f n c a c 6 t i n N K F { q.:.A A F F F F n c i i : : m n n n n A F %.%.F F N F +.f < u :.s.! A F W F d > ",
"4 7 7 7 i n n f d d s n n n S B y.v 6 % % 6 6 : 6 n n n R B c c 6 r f F R { { >.k.2.{ F %.:.:.+.F f a a 3 : m B n n n n A F %.F F V o.+.f u f q.q.D A F R N a r ",
"@ & 1 c W ..n i b n n n n n z i v l 6 % % 3 5 : : 6 5 : 6 r e t n { k.H.k.2.>.>.k.q.<.:.+.+.+.+.F N f n 5 : n B m n n n A F F F F +.<.o.f f F 2.:.F A F F N n a ",
"+ + 3 m d.W m A A ! | n z t 6 1 % 3 t t i c n i i b i 6 p p e p 2.I.!.E.H.w.q.w.q.q.<.<.+.%.+.D F F f f 6 : z m B n n n A F %.D o.#.>.N f N { >.F F F F F N N n ",
"= & % 1 7 t n s.n K L n i 7 1 % % 6 c m B B m n A ..2.g.S.W p 6 { J.U.H.w.>.w.J.<.w.w.q.<.+.+.+.F { f f i : t n L B n n A F :.:.+.M.$.g f F $.+.F F R R R N n c ",
"o + % + o + 6 z c m m i 6 5 1 % 6 t c m n n n n n K K s.V.R r > D w.H.w.D +.w.w.v.v.w.w.v.<.<.:.! { a n c 3 6 i L K n n A ! ! { #.#.F a a R g.5.F F R R N n i t ",
"o 1 7 7 1 % % % t z z 3 % % 1 1 6 i c c c c n n K K N { g.F r r D w.J.>.+.+.q.q.v.q.<.<.w.w.q.2.{ $.a n N 6 3 i L K n n n A S A O.B c p a O.g.g.R R N N c i 6 : ",
"7 v m z 7 3 3 1 o 1 1 o o 1 7 t 6 t z n c i a n n n F 2.H.R 6 ; f D <.D +.<.Y.b.v.<.+.:.q.k.q.{ $.2.a n ..6 3 t ..L n n n n n n N c p r a R g.V.$.B c a i e : % ",
"m m m m c c t 7 1 & X o 7 k x m m n s i n n n a n N 2.V.k.F r ; d f +.w.w.w.2.>.{ 2.{ F q.2.{ { l.n n N n 6 : 6 n n c n W n i i r < : > t N #.N.B N a t 3 : 6 p ",
"m m m m m c z t 3 1 % 3 z v n L A n n n A F n n R $.$.$.F n u 6 d d f >.J.J.k.J.F { F n K K A R t.n n n n 6 5 6 i i i i z 7 % % ; r f n a p c V N p 3 : 3 6 i n ",
"F F S K K m n z 3 3 1 7 B L m K A A A A K K R R $.R N a a a f n f a a F >.{ D R F B n c n n n W t.B a p 6 5 5 6 : : % : 1 + O % 6 n $.$.N a p a t : % > t n m K ",
"A n A A A n n z 6 3 1 t L ..n S A A ( ! K N F N a p r e u f F 2.+.F a p f N n i N n i z m m m B n c r > > 6 d i 6 5 % + & & 1 t ..+.{ { { R n t : % : p n K K m ",
"h h A A A n n z 7 3 : 6 m ..A S A ! ! ! A n n a 6 > > e a F +.2.+.R f 6 u N B i n z 7 t m c t t % : 3 6 p N 2.2...K z 7 7 4 2 k d.2.F N { $.B i : 3 i n &.| A n ",
"%.%.F A A A n b i 6 ; 5 n { K ! ! ! ( ! A n d p 6 6 r a F +.+.{ F R n 6 3 i i 7 z t 1 3 k 4 & & % 3 t n { g.k.2.....B m v 7 & 1 n { &.{ R { R n 6 t i n S A A S ",
"c.%.%.F A A n n i 6 - : n { F :.( ! ! ! F n d r 3 t N R +.R D F R N c t 3 % % % 4 3 % = 2 & o = c v B $.2.2.F F n m n m m k & & i F 2.{ K R R N t t i n n n A S ",
"c.%.%.F A n n z z 6 O : n { ! ! ( ! A K F N a r < a +.5.{ F F { F n n N t X X 1 & & % & 1 % & t h.$.R { { F n F F K m m M x & & n F :.! W t.W n 6 6 i z n n A A ",
"%.%.+.F n n i t z 3 X % z r...n N n K &.R d r u u F &.! A F F F { n n N c 3 o X X 3 3 7 c 6 ; i k.>.F n n F F { F F F n S m 7 X 6 n s.h.y.W m z 7 6 7 i n A F ( ",
"%.v.<.{ F n n z 7 1 % 1 k B r.r.t.W ..s...f u u d F { F A F D F f f D 5.B e % % t m c c L i < d { { F F F F D D { D ! ! i.| b 5 : i m m n n c l 3 7 z n A n A %.",
"v.v.v.:.n c i t c 3 X o 1 i m r.B n n N n i r r F { { F A F D F f F 2.$.n 3 % % c r.m n L n 8 u K F F n n F F D >.{ { s.s.K i 6 O < r 6 3 6 4 3 1 3 i n A A F ( ",
">.F.J.2.N c t 7 m 7 % t m n i 6 6 5 6 t t 6 6 d g.w.>.F F F D F F >.$.f t i i 7 c B n i N K d 6 ..K n f f f F D 2.{ { 2...s 5 : $ > 6 5 3 3 3 1 3 : ; 6 n K :.:.",
"2.H.I.l...n z t c 5 O : 6 5 ; ; : 1 3 6 6 6 i R N.N.$.F F o.o.D F w.{ r t t.l.B n K m c K s.n 8 K K B N n f f g +.o.+.5.R i : ; r d n c c z z z i 6 : : 6 i A :.",
"g.S.G.t.n i 6 3 : ; ; , ; - ; 6 : % : 3 6 t B I.g.#.$.+.+.<.<.<.D w.N 6 p t.g.n B K B n K t.n 6 i n K ..F N f f F o.+.+.F a u u n N R ..W ....r.K m n i < : i A ",
"n B n t 3 % : : : f k.L.k.F d i 7 1 % : 6 t W U.#.#.$.$.$.+.o.<.w.F d 6 u n n n K N K K K K n 5 5 t c n n n f f V o.o.N f f V F { $.$.2.s.$.s.s.r.....n i 5 5 8 ",
"% 1 1 o O : 6 i n.I.I.b.q.q.v.q.r.z 1 : 3 t v #.y.#.M.#.o.V o.F w.d < 6 p d n k.R n K ..K F f 5 : 1 6 t p p n V N o.F a u f O.5.V.k.g.2...........K n K | n 5 - ",
"1 X O 3 3 t R R.s.s.q.q.*.:.%.F ..r.c 3 3 6 i N a a g N N g g g < 6 < 6 F 2.>.{ { { { n { ..6 : z 7 3 3 6 r u u p a a a g $.C.C.5.{ F F { >.2.>.A K ....s.s.n 5 ",
"o X O 6 B g.l.k.2.2.>.:.:.:.%.F R W n t t 6 3 r 3 e r p p y r r > u f F k.k.2.2.F F F n { ! 5 : 7 6 7 i n N N g a p r a o.m.C.m.2.{ F F D :.{ { { 2.K n n s...z ",
"% 3 3 i S.!.H.>.:.:.:.:.%.%.F F { ..K N N i 6 6 6 r r p p r > : u F k.k.J.w.D D F A F n K A 5 : i i z n ..5.<.+.o.d w g m.J.C.m.>.{ F F D +.D F F { K n K d.L 7 ",
"3 n v n l.H.>.J.:.:.:.%.%.F F F { { ..g.l.N r 6 N N N N N a e ; N C.H.w.>.>.F +.F F F f n n 5 6 n n n n F 2.m.C.<.d w o.J.J.m.C.w.2.:.D +.+.+.F A F F &.s.W z 1 ",
"6 n n n 2.F n Y.<.<.*.%.F A A A A F F 2.n.A 6 r g.g.2.$.#.N p : n k.k.>.<.w.<.v.=.F F f n s 5 i ! S n f n D w.J.m.f u o.F.m.>.C.k.k.>.>.+.D %.F :.A A 2.r.c 6 3 ",
"3 t i n 2.F h v.<.<.%.F A A A A F F F 2.k.f 6 u 2.$.R K R B i > f g.J.>.w.F.<.%.<.F F n n i 5 n n n n n F D >.w.J.j f o.m.m.w.J.J.k.w.>.+.D %.F D F { l.r.i 1 1 ",
"3 i N R { { D +.%.+.F A n A n A F F F w.w.d < d { { m n B W n 6 f g.J.>.<.<.%.F =.F +.F n i 5 n n n n A F D >.<.J.D f D w.F.b.J.b.k.q.>.+.+.%.=.%.q.s...n 6 1 & ",
"t R I.g.n F <.%.%.%.A A n n n A f f j <.>.d < f 2.&.K n L s.B t u { w.D F +.=.v.%.j +.D A i 5 n A A A n F D <.F.m.g u f D w.w.2.J.k.w.<.<.<.v.v.Y.Q.b.8 O : 3 1 "
};
