/* XPM */
static char *_207_w032_n002_524b_p1_524__2_1671814171[] = {
/* columns rows colors chars-per-pixel */
"80 80 235 2 ",
"   c #0C161E",
".  c #1A1615",
"X  c #1C1917",
"o  c #14151A",
"O  c #151A1D",
"+  c #1D1C1B",
"@  c #181618",
"#  c #221D1C",
"$  c #2B1E1B",
"%  c #231C17",
"&  c #341E1A",
"*  c #1E201F",
"=  c #23211E",
"-  c #2B221D",
";  c #2E2A1F",
":  c #33231D",
">  c #3B241D",
",  c #3B2D1D",
"<  c #35281C",
"1  c #3C311F",
"2  c #0D1922",
"3  c #141C24",
"4  c #1B1E22",
"5  c #151E29",
"6  c #171826",
"7  c #221F21",
"8  c #2C1F22",
"9  c #331F21",
"0  c #1D2124",
"q  c #1B2229",
"w  c #172029",
"e  c #252323",
"r  c #292525",
"t  c #262826",
"y  c #2B2926",
"u  c #242529",
"i  c #2A2629",
"p  c #272B2B",
"a  c #2C2B2B",
"s  c #322523",
"d  c #392622",
"f  c #342B24",
"g  c #3B2B24",
"h  c #312D2C",
"j  c #3B2C2A",
"k  c #312629",
"l  c #3C3324",
"z  c #32312D",
"x  c #3C312C",
"c  c #3F3828",
"v  c #2D2E32",
"b  c #312F32",
"n  c #3B2F33",
"m  c #2E3134",
"M  c #2D3239",
"N  c #333235",
"B  c #3A3434",
"V  c #353539",
"C  c #39373B",
"Z  c #36393C",
"A  c #3A3A3D",
"S  c #3A3936",
"D  c #431D17",
"F  c #571D11",
"G  c #43251C",
"H  c #4B261B",
"J  c #432B1D",
"K  c #4C2C1C",
"L  c #4A2815",
"P  c #542314",
"I  c #5A2C17",
"U  c #532C1A",
"Y  c #592A17",
"T  c #4B331D",
"R  c #46341D",
"E  c #54331D",
"W  c #5C331B",
"Q  c #5E3C1D",
"!  c #593619",
"~  c #76290D",
"^  c #7D380F",
"/  c #632D15",
"(  c #652814",
")  c #722C12",
"_  c #792F14",
"`  c #6C3516",
"'  c #64341A",
"]  c #633C1C",
"[  c #693816",
"{  c #7C3A14",
"}  c #763715",
"|  c #6B2C0F",
" . c #422721",
".. c #442C22",
"X. c #4A2C24",
"o. c #422E2A",
"O. c #512E25",
"+. c #443524",
"@. c #4C3323",
"#. c #4C3B24",
"$. c #44322C",
"%. c #4B322D",
"&. c #483C29",
"*. c #553C23",
"=. c #54332B",
"-. c #563829",
";. c #443533",
":. c #4B3532",
">. c #423C3C",
",. c #4A3C3C",
"<. c #4A3A34",
"1. c #523633",
"2. c #533935",
"3. c #5C3A33",
"4. c #573B3A",
"5. c #4C2C33",
"6. c #66392A",
"7. c #633C35",
"8. c #663D36",
"9. c #763B31",
"0. c #6A1F0C",
"q. c #67451E",
"w. c #744315",
"e. c #754319",
"r. c #794819",
"t. c #7E511E",
"y. c #5B4323",
"u. c #574229",
"i. c #4A403F",
"p. c #5C423D",
"a. c #53413B",
"s. c #694B24",
"d. c #624625",
"f. c #724927",
"g. c #775224",
"h. c #64433C",
"j. c #6B453A",
"k. c #784937",
"l. c #6F5135",
"z. c #3D3C41",
"x. c #373C42",
"c. c #423E42",
"v. c #493F40",
"b. c #3F4044",
"n. c #424143",
"m. c #4B4342",
"M. c #454449",
"N. c #5C4542",
"B. c #574646",
"V. c #694943",
"C. c #7C4A44",
"Z. c #675040",
"A. c #88290A",
"S. c #8A370C",
"D. c #973A0B",
"F. c #873C12",
"G. c #A83B08",
"H. c #B93A03",
"J. c #88420D",
"K. c #9D430D",
"L. c #9A490F",
"P. c #9C540F",
"I. c #824C14",
"U. c #874414",
"Y. c #984912",
"T. c #88561A",
"R. c #985714",
"E. c #A2440C",
"W. c #AD490C",
"Q. c #B14A0B",
"!. c #B94707",
"~. c #B9580C",
"^. c #A25C12",
"/. c #AD530F",
"(. c #9B6318",
"). c #8F6116",
"_. c #AA660D",
"`. c #B7680D",
"'. c #B6740D",
"]. c #A76513",
"[. c #B96E11",
"{. c #B87515",
"}. c #AA7318",
"|. c #865823",
" X c #814A3E",
".X c #8A5E37",
"XX c #8F6325",
"oX c #C54A05",
"OX c #D34E03",
"+X c #D84F00",
"@X c #C75708",
"#X c #D45606",
"$X c #E65803",
"%X c #EC5302",
"&X c #CA6709",
"*X c #D66707",
"=X c #C57E0C",
"-X c #C9760B",
";X c #DC7D06",
":X c #D77909",
">X c #C67A11",
",X c #E36905",
"<X c #FE6B01",
"1X c #F76301",
"2X c #E97603",
"3X c #F87801",
"4X c #844D44",
"5X c #8C4F45",
"6X c #BE9110",
"7X c #C7810B",
"8X c #D68809",
"9X c #DC9709",
"0X c #CF8E10",
"qX c #EE8802",
"wX c #FD8E01",
"eX c #FE8301",
"rX c #FE9C00",
"tX c #FA9403",
"yX c #E59A09",
"uX c #D1AA0C",
"iX c #EBA805",
"pX c #FEA401",
"aX c #FFA900",
"sX c #F2A604",
"dX c #FEB401",
"fX c #FFBB01",
"gX c #F2B704",
"hX c #FDC401",
"jX c #FDCC01",
"kX c #FED401",
"lX c #FFDC01",
"zX c #FFEB00",
"xX c #FEE200",
"cX c #FFFE01",
"vX c #FDF301",
/* pixels */
"p a r - r s $X' 5 k B b N C C C C B p y a r e r r i r r i M N V V x.v i e + % # # + + + # + + 7 e e i r r # e 8 e # + + + + o O X O O X O @ X + # r r i r i r r ",
"v v r - r q Q.Q.5 d g h p p p a p t t t = e r a i t r e v N C V V V A v r i 7 # # # # # # 7 e 7 e e i i v v a e r t 7 % + + # + # # + # # # # # e i r r i r 7 r ",
"v v t - : q ' 1X' + : d r r e e e 0 e 4 + + e i e i r i M N N V V V A z.b r i 7 # # # e e e 7 e u i N C C x.z.S r i r e 7 # # 7 # # # = e e r e i i i r r r r u ",
"m N e r $ 7 d $X#Xr - > : : 8 $ - % # # + + e i i r e v N M N V V x.C z.C r t e e 7 e 7 # 7 # r t v C N C x.z.A r r r r r r r r r r a a h b b h i e r r r t u M ",
"N m u - - r r *XwXq., , - % # # # % # + % r r r r i 7 u N N N C Z A C V i e e 7 7 e # 7 e 7 e e i m V V V N a t 8 i r r i r r k a N N B B V A A z.i r r r 7 v V ",
"N N = r $ : f `.aX[.y.y.R : e = # # # 7 7 e r r r i e X v N V N N h y t # i i 7 e e e e e 7 7 i i v v p i u u + r r r i r t a h a h z N B V C A z.a r r r p x.V ",
"V v 0 t - , +.].dXaX[.s.#.f r - # = # 7 7 e t r e r i # 7 a i e r e e e % i 7 7 e 4 e 7 7 e 7 i e X 0 0 e 4 X # e 7 r t t s r h h N N B V V S z.C r r a r N x.C ",
"V v e t - J #.(.dXjXaX8XR.K 0 # e 7 e 7 e i a a r r i r + # r = e * r + e 7 % r s s e e 7 e e e r . X + O X + e # 7 7 e r r a h a z z N B S A A a 7 i e i A A A ",
"C p = s - l -.].aXfXfXfXpXqXE.7 7 e t i N A >.n.C a r i r + $ : : - $ = 5 w.eX`.r.Q g r r r = # e r % + + % # 7 e 7 7 i e r - t t a h z N B S a # r r t t V z.A ",
"V t r r $ f +.:XtX=X'.;XrXpX3X{ 5 s r k >.n.n.n.c.c.b r t - % - $ # - 5 ] 3Xw.e 0 e t t t u r e 7 7 i e # r e e 7 7 e i # # = = ; t t t y h a + # r r r r V z.A ",
"v u r $ % r @.,XI.y.d.u.e.#X<X1XU 5 i h x A A A S C N t r t e # - e 5 Q 2X@.5 g %.%.:.;.;.a i i e e r i r e # e e e # e - X = = = = = r = t r + e r e u = m b.b.",
"e t : # & 3 Y./.z #.#.l p t F.<X1XX.4 $.x z z h y h f i r i r t u e { eXe.5 O.6.4.;.B V V V B i e u r e 7 # 4 7 7 7 e # r = X * + + + + = + X # r e = r = a b.A ",
"p t : - % d +XU $.&.x h t t 5 J #X1XK 7 =.z z z z h y t t r s R R.8XfX&X6 y O.=.B N N V S Z A S a e r 7 # e e 7 e 7 7 7 e t # # % + # # % % + 8 7 e # = # r a z ",
"e = # % O E.F.B h.S V V N b a e u E.<X` # @.h a y r t = e y g '.vXcXfX! 0 s X.: y B N B Z S A c.c.h r 7 7 7 # 7 7 7 e 7 e u r e r # 7 # 7 e e e 7 7 e 7 e = y y ",
"+ # % O U E.u h.>.V V V N B a r r 5 { <XJ.> ..J , s = % y 0 r.jXvXxX7Xf t d  .s t y S C C S z.A A c.a e 7 7 7 7 e 7 # e r r r r r e e r e i t 8 # e 7 7 u = = r ",
"# # - 5 F.U ;.N.Z C V V V a u e t t 5 ` <X*Xw.E R 1 - e 6 ` pXjXfXdXq.y t s d t = y y C Z A A z.c.c.A a r e 7 8 e # r 7 r r t a b N N N r e e r = e # e - r # # ",
"r r i e ` d V.>.C z.S N a u + # i r =   P.pXaX:X].T.e.r.@X3XrX3X2X].f - u s , r - y - y S A A A c.z.n.N r 8 7 7 r e t r a v N V A C A x.a r t e 4 3 + 3 * r - = ",
"r 7 r e { o.N.c.z.S v i r X X r t 7 - r K tXfXhXfXdXdXwX@XU.W ..f - r u t s f = r y t y t N b.i.z.c.n.A r r 7 7 e r u v v b N N V V S A a i t s G ) D./ > # 3 q ",
"e i r u F.=.N.z.N a u = X + t t 7 7 7 - l R.aXjXkXdX;Xd.u 5 5 e u - i i r r s r = t t t t y z A x.i.A z r a e # e e r v v b N V V V V A r r e D.+X+XOX!.!.D.S./ ",
"d i u u ` ..;.h t = # @ + r # # # 7 7 - +.y.[.fXhXtXg.+.$.=.%.x x a 7 r i - & r - y - y y h y h z a r r t e r e 7 r e v b v N N V Z A z = s q K.%XF.: e ; > U } ",
"~ 0.r 0 K > * r 7 + # 7 e # e 4 = e e r , ! s.{.aX7Xu.-.9.4.C A z.A a t r 7 % # e - y y y t y y - = = e e e r 7 7 e # 7 p p a a h m p = - - q W.K.2 e # 0 4 6 q ",
"r H F s r s # # # # i r u r e r e i e = t +.*.u.*X-Xl d.<.v V C V A h 7 i r + . + = r t y y f y = * * * # r r e e e 7 X 7 e e u = e r & $ = , #X! e - - t i r r ",
"C M a & r u i r r r r t r f x x $.$.%.=.=.g l 1 q.1Xg d h a a a N a # i t i t - X X + * - t y y = * + + e e 5 3 4 = r 7 X # # $ $ $ $ : < +.e.3Xq., t r t i r h ",
"A c.z.h r e r u i i r u N B B V V N B :.3.9.+.t u @X@XO O 7 = e = + 7 i e e = e u = % + + = t t * * * + 2 X.U.E s 7 4 r 7 % % # % $ % - c Q iXkXT.y.1 y t j B V ",
"C C z.N r t t i t r r n A V V V B m N m z 1.6.j 5 F.eXoXY +   o + % a t 7 # # 4 7 r e # # # # + O o 2 $ S.OXY.Y.F.[ J e r r 7 r r 4 4 d q.8XvXcX0Xs.u.f ;.;.N N ",
"x.z.A e e e # 7 r r v A Z S V V V B V z N N 3...4 U wXfXtX*XL.W s 5 w q 4 7 # e 7 # % t f , r $ $ U K.@XQ.6.n j o.s s i t & } R.(.R.Y.~.qXdXlXcXlXT.+.1.1.n M N ",
"Z N a e e # e + r a C A A A S V V Z V N N z f d u : @X7X=X2X3X1X$X@XE.{ T - 4 3 2 3 3 u +.*.(.9XqX#XU.X.1.4.2.2.8.9.k 8 a r e.tXsXR.' @.y.g.].0XcXuXg =.1.B m N ",
"a r t 4 r 4 7 8 r V c.A A A A S V B B S N y r s r e 7 6 6 7 e k E [ U.Q.@X#X@X!.L.F.[ ] T.7XxXxX_.t 5 5.n v M M v >.8.d r t c ].(.&.u e g l..Xf.0XiXk X.:.B b b ",
"u r # 7 e 7 7 r i A x.b.A A A S A V V V h = r - e 7 e e r r u e u u w 5 u s E F.~.$X<XpXkXcXcXsX6.l =.B M v M N N M A 1.r r r { -.y r %.j.V.Z.Z.u.2Xf g 1.B v v ",
"* + + t + e e e B n.>.A b.A b.A A A S a ; = = r e e 7 r r r a B C A C V N v u q 5 u ..I.=XgXvXiXy.R =.v v M N N V C C x.h e > G.: u 3.p.A Z z.n.M P.q.4 o.g u e ",
"X X r e e 7 t a z.b.b.b.A x.b.S A A z r r r = = e r r t a V z.A x.C V V V N V N h p u y &.f.8XpX*.j g v v N M V M C C A A a > %XW i 4.V A A B a u +.Y.3 % # = * ",
"+ 0 = - 7 7 8 N M.b.b.>.i.A A b.A z t r t ; = r e u r a z.c.A z.x.C V V N N M v N v a x %.+.&.,X{ 4 - e v N M V V Z C C z.C 5 D D.4 d N p p u e # q Y.W 3 # % % ",
"H P & & # e r B M.M.i.b.b.b.i.A z y s y r r # r t r z M.z.z.c.A C V V V N N N v v v v p h o.0 } #Xe $ r * u b N Z V V z.z.V t w ( K O # + 7 = X # u J *XE 2 6 + ",
"Y : e 4 7 7 e = S b.b.M.b.b.A h y y y t t e # i r t h A z.c.A A C C V V V b V v v v i v i o.t + 2XT.o - 4 e e a m V A V m a r e - ) r # # # + e r r 6 P.aX`.[ J ",
"4 7 e e e e 0 # t z S >.A N h y s y y y - + 7 r 7 r # a h N V C C C V V V N b N v v p p j =.s 6 _.[.6 & $ 4 0 e t t p t t t e e e ( e e 7 e e 7 # + 7 : &X-X@X&X",
"e e e e 8 u e e = y h y h h f y h y y t = + t e 7 7 r + a a t a i p a a p i v u p i h ..=. .r g 8X'.f : $ + 4 + * e e t e + r # $ & 0 7 e 7 7 + e 0 e e 3 2 O r ",
"a h b N N v u e * + a h z h h h h y t = # # t 7 e 7 i # + t a t t t u e u e e r f  .X.: @ @ ] =XlXuXd., + X + % + 3 + + + % e e $ $ 7 7 7 e e e e = 7 e e e = t ",
"C A A c.z.c.B e r e # y y a t y = = * = + = e e 7 # # r + 7 r r y y y h f j ..X. .# O & S.*XwXdXxXkXt.1 r # + % % % + # + # e 7 7 r e i r t u u r u e e e 7 r u ",
"C A z.z.z.z.c.h t r = # r = e = = = * + + r e 7 7 7 7 e e % $ d > d > d > : $ o o Y E.!.W.U.w.T.[.dX(.u r r = = # + + # % e i e u t i p i i i i r t e 7 7 u t h ",
"A C C z.z.z.z.,.r r t = # # # # # # % % e e e e r e e e i e % $ : $ $ # % + + I.;X*X` e 6 2 7 j x t.~.0 r r r r r 7 7 7 e i a v m N N N N m N v i r r e 7 i N N ",
"C x.S z.z.z.z.m.r e r t r # = = = e 7 = r 7 e r t i a i t r r # # % + e 0 6 ^.dX/.e q u r s r r y u L.g u r t r 8 u r b n C C V V N N M N M v v v i r 7 e a N N ",
"C C A z.z.z.x.B.j u u r r t r u - r r r r r t r p V A V V b r r r # 7 q d &XpXY.5 u t u e t r r r q { } 6 i r t j ,.c.z.Z C x.V C N V N N b M v a a t i i m m N ",
"C A x.A c.b.c.4.k e r r k V n M v a 7 4 7 i i a C Z Z A c.z.i t r + r S.#X/.O.8 o.o.o.o.j r r e r u U !.u t t 7.V.c.x.C C x.V V V V V M M b M v v p r r r b N m ",
"C V V C B N B O.r s e j C N V C z.a # + 7 i a V V V C A C a t i e # !.Q.g 5 O..X5X4XC.j.j.j.3.:.t e g OXX.4 1.4Xv.z.z.C x.C Z V V V N N N M b v v v r t i v m N ",
"a r t y u r @.d 9 H u %.N N V Z b a 7 # 8 a b N B Z Z V h t t t 3 ` D.q u =.6.p.B.v.b.b.Z A >.a.j i t oXE 0 7.C.v.z.x.C C Z A V V V V V N M m v v u u a e a v a ",
"t t y t t j =.# X.K q s h N N a t d 7 $ s N N N V V m t r t r r - S.r e $.%.h z x.c.b.i.>.A A V V r e !.I w 7.C.v.x.>.A Z x.V Z V V V N N N m v v 7 7 i r # r e ",
"t a u t d X.> 3 )  .e $ 7 t i u r d u & d B n M N p r u t r = e U > 0 r $.h z h h z V A A Z A S B a 7 !.} 2 3.4Xv.z.A z.Z C C C V V V V m v a e e 7 e r r # e u ",
"e e r s  .G + s S.s u # + + 4 # % 7 7 D & o.;.p u 0 e t r * * t : + u f h a h h a h s y y z a z i r 4 G.H.6 o.4Xv.z.z.A x.Z Z V V N v p u e 0 e e # 4 t t # + 4 ",
"# r & : : % 6 I S.u 8 e # + + % % 7 3 0.P + : d s t e 0 + * = f ; - y y y h a y y y t t r = = # @ e e > !.F.6 8.h.z.A z.S C N v a u r e u e e e 0 O + t r r % + ",
"# % # % % + r G.| u r i e e 7 # r 7 # G ~ ( + + : : - - - - ! w.#.R l y f h y t t t = = * # = X % i # 4 # D.) o +.B N a a a t u t t t e e t e e + @ % t t i 7 7 ",
"% + % # + 4 D._ 4 e r r t e e 7 7 7 # 4 3 Y D.L # $ + X e 6.:X[.s.q.R f r t e r = e r * * = X + e e e 7 7 4 } / O - h y r t t t t u t r e t * + . % e i r r r 7 ",
"+ # # 5 $ S.( 3 e 7 e t r e 4 7 7 e # # # 3 P 2X7X).w.w.&XrXjXhX{.T.*.R - = e = = = + = + X X r e = e 7 = e 4 I L . $ u a t a y t u e e * O . X # e # 7 7 e r t ",
"+ 7 7 Y G.H 6 - e e r t r r 8 e = 7 7 # # # 0 _.zXkX8X@X-X0XiXjXlXhX}.+.- % e # # # + X % + 7 7 7 7 7 e 7 e e 4 > : + % # e = # 7 4 + + # + # = 7 4 & 8 7 e r r ",
"e 4 G H.U 5 r r t i a h a r i t r = 7 e 7 = 3 `.iXT.g u j d.XX6XyXxXgXR r # # # # X % # # # 7 7 7 e 7 7 e # 7 r e e e e # # # + + + # # # = e # 7 0 D - e u p b ",
"r + Y S.q h b V C V B N N z b i u r e 7 = 2 Y @X@.$.;.:.u.l.|.|.g.[.aXT e r r r # 7 7 7 7 e = e 7 7 7 7 e 7 e u t a i r r e 7 # $ 7 # e e 7 e e e e P e e u S z.",
"r 3 / I M c.z.A C C V N N N b t = u 7 e + } #X .b >.A ;.<.a.l.l.d.c ,Xw.3 r i t r 7 e e = u a u r r e e e e a V V A A a r r r t r t e 7 e 7 e r u $ F e e h z.x.",
"7 e / $.n.A b.A A S V B B N a * e e e e E.oXX.u S Z V V N V S <.<.t r.~.6 r r r t r r a h b N z a i r 7 e t V V C A S z e u r t r e r a a a N a i s ~ 7 u h z.A ",
"e r / n.m.i.A A z.A C V z t = + 7 r 4 > D.4 e h V Z M Z V V N m N a g ,X> u r t t u a N V V V m N h i r e N V V b h a u + u r r a N B V n.n.b.i.i q 0.F u r $.$.",
"6 F.6.B.B.b.c.A S N a y = = X X t - 5 U G 4 r a x.V Z V V V N M N t e ,Xe.5 r r t B A V C V B N N N a r r i p i u e # X X r r a V S A A z.A M.S a e s A.A.P % $ ",
"~.@X,.4XZ.S N h a t r = = X . + e 4 $ ^ - e = a z.A Z S V V C B h r 0 &X[ 4 r f S b.A A C C V B B t 7 u e % # + # X + # r i t N V S A b.c.b.A z r i e : P ~ A.P ",
"<X$X_ X.-.=...h h = # # o o @ = e - L H 7 7 r a n.z.x.x.A V N p u = y *X*.e h v.b.A A A A A A S a = = e e * + # 7 e r t r e a N V V A A A c.z r e r e + 4 u G _ ",
"G [ G.S.< : K K J : $ o L ^ [ E - = 7 4 e e r t S z.z.C N z t u = = s.fX*.s a.,.A A b.A A x.S y e = # e + e 7 e e e 7 e r r b N N V A A n.S t r e r t u r r u u ",
";.i q E K.! 1 T R < 4 L { J r e e u r r e 7 r = y m v a t u e + - , 6XzXI.+.1.B.b.b.A z.c.B y = r + + e # 7 4 # 4 # 7 7 e i h N B Z S A A z e = e e a r i n <.>.",
"C.8.o.u +.~.`.|.r.q.U.' 7 t j j j j r r u 0 e e = r r = * * O % , q.kXzX>Xy.T Z.m.b.b.z.B t y t = X e = e # # 4 7 # 7 7 e t N B N V S A N r e = + e r 8 b >.>.>.",
"V.2.=.X.&.g.tXgXiX:Xq.j 3.3.1.B B N b i t e e e + + + + + 7 X $ +.t.kXcXdXR.g j V.B.m.B h y t e + % e 7 + 7 r r r 7 7 # e t a N N N N N y = = % + e r i V N V C ",
",.$.X.@.*.g.0XkX9Xg.#.k.7.,.N M M v v v e u e 7 7 % 7 # # # % r R q.iXxXzXfX&X[ 6.3.j t s # % + + 7 = e r t r a p e i e 7 # + # = r r r y = + + + r r a V C V V ",
"V a g g E d.}.yXt.s.k.7.;.M V N M N N v u r 7 7 r e r r r e 4 - , #.-XkXaX'.U.J.D.D.W.~ 6 % + 7 e e = u v v V V A C a u e # # + % # = = = + * # 7 r p N N V V x.",
"p t a : +.$.R.].*. XV.,.C V N V N N v v i r r r r t r r r e 7 7 - r R.pXP.f 0 O * r K D./ u r e e e i a N V C C A c.A e r e e e e # # # # # # = i i i b N N n V ",
"a t e - - e L.w.:.k.a.x.Z V M Z V V N m 0 7 i t i r u v b v i r r + w.3Xg s r # e 0 0 q / K u 7 r r v N M V V C B N p r e 7 e e e r r r r r r r i r v N v N M V ",
"t u + = # e !.' x h.z.C A V V V V M N p + 7 i e r t e N x.A N r r 3 I @Xu r r =.6.%.d e q  .d e r t v m v M v i t r = + i r e r r r r r t r t r i e a v v N N n ",
"t e + = + K %XU h p.z.A A S Z V V V v # o e e 7 e i e N A C A t = 0 [ /.u r 3. XC.4Xk.3.j u r r r e 0 u e e u e 4 + . % u r 7 r e a i r r r r e r u v v M b M N ",
"r 0 + + 6 U.+X- h B.z.z.z.Z Z V V v 7 O + t 7 7 e i r N x.z.c.h = f ].-Xl ..h.p.p.a.V.V.j.1.r r u r X + + + O . . X # t b N b i r r e i r r e r u a v v v v v M ",
"e + * O s +X{ 5 s <.A A S B m v a e + X r e 8 # e u r N z.Z m.B = #.8X0Xy.,.>.A A A A A i.B.%.r t r # % # + X + # 8 i V z.z.z.C b i r r r r e r r p p v v v M v ",
"* O X O } OX% 0 # r a a t t u r 0 X O # r e 7 7 e a r B b.x.N.1.* R -XT.u.A V S A A A A A Z ;.r t r i e 7 e r r r i A z.z.z.x.C C N v i r r i i r i a v a v v v ",
"+ X + = OX^ 3 $ e # # = = + + # + + # e 7 7 4 r r t a C z.z.C.2.q Y } h B S S B A A A A A N z t r r t r r r i u e V z.z.x.C C x.x.V V b a i i u t 7 p v a v v v ",
"O X 3 } OX- + 7 i e # # # # # # # # 7 7 e e 7 r i e t h c.V.j.j u ) r t V V V V S A A S z y y t r r i r i r r 8 b c.x.A C x.C V V V N N N v u 8 i # + u p v p v ",
"+ # - OXG.3 % 7 t r r 8 7 e = = 7 7 # e r 7 7 e u # # + r - + 4 H H q h N x V N C V B y s y h - r i a r r i r r a S x.A C C C V n V N N v v v p r r # # # 7 u u ",
"# e d +XQ.+ # r r r t r r r u i e e 7 * 7 e r # e 7 # # X . # r G e t N N N B V h a y y h y y e i 7 7 r r r r r t p B A C C C N N M N b N v v v i i r r 7 # # # ",
"t r 5 ` %X' q t r r 7 e b b N v a r e e 7 7 r r r 7 e # 7 7 e s s i u h z z z t ; t y y t t e e i r e r r r i u i t u p N C C N M N N b v v v v p p a i r i 7 $ ",
"t i k e !.oXu r r i r a N V C Z C b r i r i r i t i r r e e r t t y = y h t t - r r y y t e + # r r i r i r r r i u r r u v M N n v M v v v a i p i r i r e i i "
};
