/* XPM */
static char *_694643220[] = {
/* columns rows colors chars-per-pixel */
"10 10 99 2 ",
"   c #003404",
".  c #003E07",
"X  c #004300",
"o  c #004400",
"O  c #004C00",
"+  c #044E03",
"@  c #01420A",
"#  c #094B0B",
"$  c #005400",
"%  c #085200",
"&  c #065900",
"*  c #0C5E00",
"=  c #0B5A09",
"-  c #12590B",
";  c #006200",
":  c #096700",
">  c #006B00",
",  c #006B02",
"<  c #006E05",
"1  c #126700",
"2  c #166C00",
"3  c #176C05",
"4  c #12620B",
"5  c #15600E",
"6  c #176F0B",
"7  c #1C680D",
"8  c #1B6F0D",
"9  c #0C7000",
"0  c #0D7600",
"q  c #077B00",
"w  c #0B7800",
"e  c #0A7901",
"r  c #0E7C0B",
"t  c #197802",
"y  c #1B7E00",
"u  c #1E7E00",
"i  c #237507",
"p  c #247608",
"a  c #207011",
"s  c #277E13",
"d  c #1E8600",
"f  c #198307",
"g  c #1B8D01",
"h  c #1E8C07",
"j  c #2D8300",
"k  c #298107",
"l  c #2D8304",
"z  c #248E06",
"x  c #24820A",
"c  c #278608",
"v  c #288D0B",
"b  c #318C01",
"n  c #358C00",
"m  c #388D0E",
"M  c #249200",
"N  c #249602",
"B  c #2B9203",
"V  c #2C9202",
"C  c #28920E",
"Z  c #309103",
"A  c #359300",
"S  c #3D9002",
"D  c #369F05",
"F  c #3C9B00",
"G  c #3D9E03",
"H  c #339608",
"J  c #32940D",
"K  c #37940F",
"L  c #2B8211",
"P  c #2D8413",
"I  c #208D10",
"U  c #318611",
"Y  c #3F9614",
"T  c #3AA70E",
"R  c #34A110",
"E  c #469E0A",
"W  c #42990C",
"Q  c #479F0D",
"!  c #47A803",
"~  c #44A70C",
"^  c #46A70C",
"/  c #4FA909",
"(  c #4CAE0B",
")  c #5AB60D",
"_  c #43A713",
"`  c #4FA715",
"'  c #52A610",
"]  c #59B313",
"[  c #5FB91B",
"{  c #60BB16",
"}  c #63BE18",
"|  c #4FA422",
" . c #60B522",
".. c #65C118",
"X. c #68C419",
"o. c #68C01C",
"O. c #70C923",
"+. c #75CF22",
"@. c #77D122",
/* pixels */
"> q g N M d t 6 = o ",
"w h R T D V c s 4 O ",
"u Z ^ ( ! F b k 3 $ ",
"n E ] ..X.{ ` Y L 1 ",
"S ' o.+.@.O. .| U 2 ",
"j Q [ } ) / W m p * ",
"y J _ ^ G A l i 7 % ",
"0 f z B H K P a - o ",
"> r I C v x 8 5 # . ",
"; < w w 9 : & + @   "
};
