/* XPM */
static char *Golden_Coin_PNG_Transparent__Glossy_Golden_Coin_Icon__Coin_Icons__Icons_Coin__Coin_PNG_Image_For_Free_Download1694643219[] = {
/* columns rows colors chars-per-pixel */
"10 10 100 2 ",
"   c #E3B53B",
".  c #F4C82B",
"X  c #F7D72C",
"o  c #E3C436",
"O  c #E4CC34",
"+  c #FAD030",
"@  c #FAD733",
"#  c #C59E53",
"$  c #CCA74C",
"%  c #CDA455",
"&  c #D6AD53",
"*  c #E7BB40",
"=  c #D6C84B",
"-  c #F0C948",
";  c #EFDC40",
":  c #F0DA49",
">  c #F9D855",
",  c #DFC66A",
"<  c #E6D56D",
"1  c #E8CC78",
"2  c #E7D072",
"3  c #EDE779",
"4  c #E6C288",
"5  c #E1C68F",
"6  c #E7C98B",
"7  c #F0D584",
"8  c #E3C191",
"9  c #F1E883",
"0  c #EEE894",
"q  c #F0E593",
"w  c #EDDCA6",
"e  c #FDE7B5",
"r  c #FFFFCA",
"t  c #FFFACE",
"y  c #F4F3D4",
"u  c #FFF4D6",
"i  c #FFF9D2",
"p  c #FFF9D5",
"a  c #FFF3D8",
"s  c #FFF3DB",
"d  c #FFF4DA",
"f  c #FFF5DB",
"g  c #FFF5DE",
"h  c #F5F8D9",
"j  c #FAFBDB",
"k  c #EEEFE7",
"l  c #F7EDE4",
"z  c #F2F5E0",
"x  c #FFF3E0",
"c  c #FFF3E1",
"v  c #FFF2E3",
"b  c #FFF7E0",
"n  c #FFF5E2",
"m  c #FFF4E4",
"M  c #FFF5E7",
"N  c #FCF6E6",
"B  c #FAFAE0",
"V  c #FFFBE1",
"C  c #FFFDE0",
"Z  c #FFFCE3",
"A  c #F7F7EB",
"S  c #FFF4E8",
"D  c #FFF6E9",
"F  c #FAF5EF",
"G  c #FEF5EC",
"H  c #FFF4EF",
"J  c #FFFCE9",
"K  c #FFFEEC",
"L  c #F7EEF1",
"P  c #FFEFF2",
"I  c #F8EDF5",
"U  c #FFEEF9",
"Y  c #FCEEFB",
"T  c #EDF1F0",
"R  c #F5F1F0",
"E  c #F7F1F1",
"W  c #F1F7F3",
"Q  c #F7F2F6",
"!  c #F7F6F4",
"~  c #F4F4F6",
"^  c #F6F4F7",
"/  c #FFF3F3",
"(  c #FDF6F0",
")  c #FFF1F7",
"_  c #FDF2F6",
"`  c #FFF3F7",
"'  c #FAF4F4",
"]  c #FFFAF4",
"[  c #F2F3F8",
"{  c #FEF3FB",
"}  c #FBF5F9",
"|  c #F9F7F8",
" . c #FBF4FB",
".. c #FBF3FF",
"X. c #FFF2FC",
"o. c #FFF7FF",
"O. c #F4FAF8",
"+. c #F9FCFF",
"@. c #FCFFFD",
"#. c #FDFFFE",
/* pixels */
"T @.W O.+.[ | R { X.",
"@.k z h y C K l / _ ",
"R J r 0 3 9 w V D G ",
"L Z q = ; : , e n ( ",
"o.u < O X @ > 7 m ..",
"Y V 2 o + . - 1 g | ",
"I D 8 $ *   & 6 i B ",
"| ] d 8 # % 4 t u j ",
"^ _ H S c s u s N A ",
"~ ~ _ _ U P c c ( ! "
};
