/* XPM */
static char *A_Porta__Animal_Cage___PNG__A_Porta_Do_Castelo_Imagens_Vetoriais__Arquivos_PSD___Pngtree1694643220[] = {
/* columns rows colors chars-per-pixel */
"10 10 100 2 ",
"   c #3E1E05",
".  c #3E1F0A",
"X  c #351F11",
"o  c #3A2315",
"O  c #30261D",
"+  c #392719",
"@  c #3A2A1B",
"#  c #3F2E1A",
"$  c #3B2F21",
"%  c #3F2F20",
"&  c #3C352F",
"*  c #462409",
"=  c #472A0C",
"-  c #48290C",
";  c #492B0F",
":  c #422A12",
">  c #442A11",
",  c #472C11",
"<  c #432A14",
"1  c #4A2E16",
"2  c #422B19",
"3  c #442A19",
"4  c #412F1B",
"5  c #4C3219",
"6  c #4E331E",
"7  c #4A341D",
"8  c #50351A",
"9  c #5A381C",
"0  c #443120",
"q  c #453221",
"w  c #473221",
"e  c #443323",
"r  c #473825",
"t  c #43352C",
"y  c #5A3C20",
"u  c #513A2C",
"i  c #5B4537",
"p  c #544339",
"a  c #564E41",
"s  c #564F47",
"d  c #584B43",
"f  c #5D574B",
"g  c #58504D",
"h  c #4F5356",
"j  c #565550",
"k  c #595450",
"l  c #61574B",
"z  c #61574D",
"x  c #605B55",
"c  c #605D56",
"v  c #5E605D",
"b  c #6E615B",
"n  c #6E706B",
"m  c #6F706B",
"M  c #707271",
"N  c #757470",
"B  c #7B7776",
"V  c #777873",
"C  c #7D7875",
"Z  c #8D776A",
"A  c #997A65",
"S  c #9C7C65",
"D  c #90796B",
"F  c #A37F67",
"G  c #737A80",
"H  c #8E8A89",
"J  c #9C9491",
"K  c #9B9798",
"L  c #989C9F",
"P  c #A1948C",
"I  c #AFAFB1",
"U  c #C3ADA0",
"Y  c #C3B0A2",
"T  c #D5C4BC",
"R  c #AEB8C1",
"E  c #BABFC2",
"W  c #BDC1C2",
"Q  c #C0C2C1",
"!  c #DACCC9",
"~  c #C1C9D4",
"^  c #C8D2D4",
"/  c #D8D9DB",
"(  c #DDDDDF",
")  c #CDDBE6",
"_  c #DFE2E7",
"`  c #DCE4E6",
"'  c #E2E6E5",
"]  c #E2E8E6",
"[  c #E5E9E8",
"{  c #E4EAEA",
"}  c #F5EFEF",
"|  c #E5ECF2",
" . c #ECEDF1",
".. c #E3F4FF",
"X. c #EEF5FF",
"o. c #F7FAFF",
"O. c #F2FFFF",
"+. c #F7FFFF",
"@. c #FFFBFC",
"#. c #F9FFFF",
/* pixels */
"..+.} T U Y ! @.o.X.",
"O.~ C p u i b H _ #.",
") G & + 3 2 t k L | ",
"R h O 0 6 < % s M ` ",
"^ v $ 7 8 5 r f m { ",
"E j @ : = , # a m ] ",
"W c 0 , - , 4 l V [ ",
"Q x w 1 9 y 0 z N ' ",
"I g X . *   o d B / ",
"( J Z A F S D P K  ."
};
